<svg xmlns="http://www.w3.org/2000/svg" xmlns:xlink="http://www.w3.org/1999/xlink" width="1920" zoomAndPan="magnify" viewBox="0 0 1440 809.999993" height="1080" preserveAspectRatio="xMidYMid meet" version="1.0"><defs><g/><clipPath id="edf7c39b12"><path d="M 654.007812 227.386719 L 799 227.386719 L 799 346.660156 L 654.007812 346.660156 Z M 654.007812 227.386719 " clip-rule="nonzero"/></clipPath><clipPath id="b2b8e91d5e"><path d="M 676.507812 227.386719 L 776.488281 227.386719 C 788.914062 227.386719 798.988281 237.460938 798.988281 249.886719 L 798.988281 324.160156 C 798.988281 336.585938 788.914062 346.660156 776.488281 346.660156 L 676.507812 346.660156 C 664.082031 346.660156 654.007812 336.585938 654.007812 324.160156 L 654.007812 249.886719 C 654.007812 237.460938 664.082031 227.386719 676.507812 227.386719 Z M 676.507812 227.386719 " clip-rule="nonzero"/></clipPath><clipPath id="b44084def6"><path d="M 654.007812 413.925781 L 798.007812 413.925781 L 798.007812 557.925781 L 654.007812 557.925781 Z M 654.007812 413.925781 " clip-rule="nonzero"/></clipPath><clipPath id="6bed055909"><path d="M 676.507812 413.925781 L 775.507812 413.925781 C 787.933594 413.925781 798.007812 424 798.007812 436.425781 L 798.007812 535.425781 C 798.007812 547.851562 787.933594 557.925781 775.507812 557.925781 L 676.507812 557.925781 C 664.082031 557.925781 654.007812 547.851562 654.007812 535.425781 L 654.007812 436.425781 C 654.007812 424 664.082031 413.925781 676.507812 413.925781 Z M 676.507812 413.925781 " clip-rule="nonzero"/></clipPath><clipPath id="3531cf1667"><path d="M 441.988281 413.925781 L 585.988281 413.925781 L 585.988281 557.925781 L 441.988281 557.925781 Z M 441.988281 413.925781 " clip-rule="nonzero"/></clipPath><clipPath id="29e7d3ffd9"><path d="M 464.488281 413.925781 L 563.488281 413.925781 C 575.914062 413.925781 585.988281 424 585.988281 436.425781 L 585.988281 535.425781 C 585.988281 547.851562 575.914062 557.925781 563.488281 557.925781 L 464.488281 557.925781 C 452.0625 557.925781 441.988281 547.851562 441.988281 535.425781 L 441.988281 436.425781 C 441.988281 424 452.0625 413.925781 464.488281 413.925781 Z M 464.488281 413.925781 " clip-rule="nonzero"/></clipPath><clipPath id="103abe80b2"><path d="M 867.757812 413.925781 L 1011.757812 413.925781 L 1011.757812 557.925781 L 867.757812 557.925781 Z M 867.757812 413.925781 " clip-rule="nonzero"/></clipPath><clipPath id="1957c8ab10"><path d="M 890.257812 413.925781 L 989.257812 413.925781 C 1001.683594 413.925781 1011.757812 424 1011.757812 436.425781 L 1011.757812 535.425781 C 1011.757812 547.851562 1001.683594 557.925781 989.257812 557.925781 L 890.257812 557.925781 C 877.832031 557.925781 867.757812 547.851562 867.757812 535.425781 L 867.757812 436.425781 C 867.757812 424 877.832031 413.925781 890.257812 413.925781 Z M 890.257812 413.925781 " clip-rule="nonzero"/></clipPath><clipPath id="74628e435d"><path d="M 585.988281 617.925781 L 729.988281 617.925781 L 729.988281 761.925781 L 585.988281 761.925781 Z M 585.988281 617.925781 " clip-rule="nonzero"/></clipPath><clipPath id="7d7afa68b2"><path d="M 608.488281 617.925781 L 707.488281 617.925781 C 719.914062 617.925781 729.988281 628 729.988281 640.425781 L 729.988281 739.425781 C 729.988281 751.851562 719.914062 761.925781 707.488281 761.925781 L 608.488281 761.925781 C 596.0625 761.925781 585.988281 751.851562 585.988281 739.425781 L 585.988281 640.425781 C 585.988281 628 596.0625 617.925781 608.488281 617.925781 Z M 608.488281 617.925781 " clip-rule="nonzero"/></clipPath><clipPath id="8887e9f736"><path d="M 297.988281 617.925781 L 441.988281 617.925781 L 441.988281 761.925781 L 297.988281 761.925781 Z M 297.988281 617.925781 " clip-rule="nonzero"/></clipPath><clipPath id="0e70ce50df"><path d="M 320.488281 617.925781 L 419.488281 617.925781 C 431.914062 617.925781 441.988281 628 441.988281 640.425781 L 441.988281 739.425781 C 441.988281 751.851562 431.914062 761.925781 419.488281 761.925781 L 320.488281 761.925781 C 308.0625 761.925781 297.988281 751.851562 297.988281 739.425781 L 297.988281 640.425781 C 297.988281 628 308.0625 617.925781 320.488281 617.925781 Z M 320.488281 617.925781 " clip-rule="nonzero"/></clipPath></defs><rect x="-144" width="1728" fill="#ffffff" y="-80.999999" height="971.999992" fill-opacity="1"/><rect x="-144" width="1728" fill="#ffffff" y="-80.999999" height="971.999992" fill-opacity="1"/><g clip-path="url(#edf7c39b12)"><g clip-path="url(#b2b8e91d5e)"><path fill="#38b6ff" d="M 654.007812 227.386719 L 798.90625 227.386719 L 798.90625 346.660156 L 654.007812 346.660156 Z M 654.007812 227.386719 " fill-opacity="1" fill-rule="nonzero"/></g></g><g fill="#000000" fill-opacity="1"><g transform="translate(694.729372, 303.137465)"><g><path d="M 1.46875 -1.890625 L 3.15625 -4.78125 C 3.707031 -4.394531 4.488281 -4.039062 5.5 -3.71875 C 6.507812 -3.394531 7.6875 -3.234375 9.03125 -3.234375 C 11.101562 -3.234375 12.570312 -3.546875 13.4375 -4.171875 C 14.300781 -4.804688 14.734375 -5.679688 14.734375 -6.796875 C 14.734375 -7.359375 14.613281 -8.050781 14.375 -8.875 C 14.144531 -9.707031 13.632812 -10.828125 12.84375 -12.234375 C 12.0625 -13.648438 10.859375 -15.507812 9.234375 -17.8125 L 12.140625 -19.703125 C 14.347656 -16.617188 15.898438 -14 16.796875 -11.84375 C 17.691406 -9.6875 18.140625 -7.9375 18.140625 -6.59375 C 18.140625 -5.445312 17.859375 -4.351562 17.296875 -3.3125 C 16.742188 -2.28125 15.804688 -1.425781 14.484375 -0.75 C 13.171875 -0.0820312 11.351562 0.25 9.03125 0.25 C 7.488281 0.25 6.054688 0.0625 4.734375 -0.3125 C 3.421875 -0.6875 2.332031 -1.210938 1.46875 -1.890625 Z M 1.46875 -1.890625 "/></g></g></g><g fill="#000000" fill-opacity="1"><g transform="translate(714.763363, 303.137465)"><g><path d="M 9.03125 -3.234375 C 11.101562 -3.234375 12.570312 -3.546875 13.4375 -4.171875 C 14.300781 -4.804688 14.734375 -5.679688 14.734375 -6.796875 C 14.734375 -7.523438 14.484375 -8.460938 13.984375 -9.609375 C 13.484375 -10.765625 12.816406 -12.046875 11.984375 -13.453125 C 11.160156 -14.867188 10.242188 -16.320312 9.234375 -17.8125 L 12.140625 -19.703125 C 13.765625 -17.203125 15.085938 -14.921875 16.109375 -12.859375 C 17.128906 -10.804688 17.890625 -8.957031 18.390625 -7.3125 C 18.785156 -6.070312 19.226562 -5.160156 19.71875 -4.578125 C 20.207031 -3.992188 20.71875 -3.625 21.25 -3.46875 C 21.78125 -3.3125 22.269531 -3.234375 22.71875 -3.234375 C 23.3125 -3.234375 23.742188 -3.070312 24.015625 -2.75 C 24.296875 -2.425781 24.4375 -2.039062 24.4375 -1.59375 C 24.4375 -1.144531 24.238281 -0.734375 23.84375 -0.359375 C 23.457031 0.015625 22.957031 0.203125 22.34375 0.203125 C 21.25 0.203125 20.195312 -0.03125 19.1875 -0.5 C 18.1875 -0.976562 17.378906 -1.789062 16.765625 -2.9375 C 16.203125 -2.007812 15.3125 -1.242188 14.09375 -0.640625 C 12.875 -0.046875 11.1875 0.25 9.03125 0.25 C 7.488281 0.25 6.054688 0.0625 4.734375 -0.3125 C 3.421875 -0.6875 2.332031 -1.210938 1.46875 -1.890625 L 3.15625 -4.78125 C 3.707031 -4.394531 4.488281 -4.039062 5.5 -3.71875 C 6.507812 -3.394531 7.6875 -3.234375 9.03125 -3.234375 Z M 9.03125 -3.234375 "/></g></g></g><g fill="#000000" fill-opacity="1"><g transform="translate(737.107356, 303.137465)"><g><path d="M 0 0.203125 L 0.421875 -3.234375 C 2.179688 -3.234375 3.546875 -3.242188 4.515625 -3.265625 C 5.484375 -3.296875 6.191406 -3.332031 6.640625 -3.375 C 7.085938 -3.414062 7.394531 -3.4375 7.5625 -3.4375 C 7.050781 -3.71875 6.457031 -4.160156 5.78125 -4.765625 C 5.113281 -5.367188 4.53125 -6.140625 4.03125 -7.078125 C 3.53125 -8.015625 3.28125 -9.128906 3.28125 -10.421875 C 3.28125 -11.984375 3.648438 -13.375 4.390625 -14.59375 C 5.128906 -15.8125 6.148438 -16.753906 7.453125 -17.421875 C 8.753906 -18.097656 10.242188 -18.4375 11.921875 -18.4375 C 13.265625 -18.4375 14.65625 -18.210938 16.09375 -17.765625 L 15.375 -14.53125 C 14.195312 -14.84375 13.046875 -15 11.921875 -15 C 10.390625 -15 9.140625 -14.582031 8.171875 -13.75 C 7.203125 -12.925781 6.71875 -11.816406 6.71875 -10.421875 C 6.71875 -9.492188 6.953125 -8.671875 7.421875 -7.953125 C 7.898438 -7.242188 8.5 -6.644531 9.21875 -6.15625 C 9.9375 -5.664062 10.675781 -5.289062 11.4375 -5.03125 C 12.207031 -4.78125 12.90625 -4.671875 13.53125 -4.703125 C 13.976562 -4.835938 14.390625 -4.96875 14.765625 -5.09375 C 15.140625 -5.226562 15.613281 -5.40625 16.1875 -5.625 C 16.757812 -5.851562 17.59375 -6.21875 18.6875 -6.71875 L 19.859375 -3.65625 C 17.984375 -2.894531 16.070312 -2.21875 14.125 -1.625 C 12.1875 -1.039062 10.078125 -0.585938 7.796875 -0.265625 C 5.515625 0.046875 2.914062 0.203125 0 0.203125 Z M 0 0.203125 "/></g></g></g><g clip-path="url(#b44084def6)"><g clip-path="url(#6bed055909)"><path fill="#38b6ff" d="M 654.007812 413.925781 L 798.007812 413.925781 L 798.007812 557.925781 L 654.007812 557.925781 Z M 654.007812 413.925781 " fill-opacity="1" fill-rule="nonzero"/></g></g><g fill="#000000" fill-opacity="1"><g transform="translate(700.497239, 507.164549)"><g><path d="M 1.53125 -18.03125 L 1.34375 -23.21875 L 3 -23.21875 L 3.1875 -18.03125 Z M 1.53125 -18.03125 "/></g></g></g><g fill="#000000" fill-opacity="1"><g transform="translate(696.358278, 497.926867)"><g><path d="M 0.90625 0.03125 C 0.90625 -0.6875 1.003906 -1.484375 1.203125 -2.359375 C 1.398438 -3.242188 1.71875 -4.21875 2.15625 -5.28125 L 4.3125 -4.4375 C 4 -3.601562 3.757812 -2.832031 3.59375 -2.125 C 3.4375 -1.425781 3.359375 -0.78125 3.359375 -0.1875 C 3.359375 0.9375 3.679688 1.84375 4.328125 2.53125 C 4.984375 3.21875 5.84375 3.722656 6.90625 4.046875 C 7.976562 4.367188 9.15625 4.53125 10.4375 4.53125 C 11.976562 4.53125 13.382812 4.351562 14.65625 4 C 15.925781 3.65625 16.941406 3.179688 17.703125 2.578125 C 18.460938 1.984375 18.84375 1.320312 18.84375 0.59375 C 18.84375 0.0703125 18.441406 -0.375 17.640625 -0.75 C 16.835938 -1.125 15.71875 -1.515625 14.28125 -1.921875 L 14.84375 -4.40625 C 16.90625 -3.59375 18.519531 -3.039062 19.6875 -2.75 C 20.863281 -2.457031 21.757812 -2.3125 22.375 -2.3125 C 22.800781 -2.3125 23.109375 -2.195312 23.296875 -1.96875 C 23.484375 -1.738281 23.578125 -1.460938 23.578125 -1.140625 C 23.578125 -0.816406 23.4375 -0.519531 23.15625 -0.25 C 22.875 0.0195312 22.515625 0.15625 22.078125 0.15625 L 20.96875 0.15625 C 20.988281 0.332031 21.015625 0.472656 21.046875 0.578125 C 21.078125 0.691406 21.09375 0.835938 21.09375 1.015625 C 21.09375 1.992188 20.640625 2.9375 19.734375 3.84375 C 18.835938 4.757812 17.539062 5.503906 15.84375 6.078125 C 14.15625 6.660156 12.132812 6.953125 9.78125 6.953125 C 8.175781 6.953125 6.703125 6.703125 5.359375 6.203125 C 4.023438 5.703125 2.945312 4.9375 2.125 3.90625 C 1.3125 2.882812 0.90625 1.59375 0.90625 0.03125 Z M 0.90625 0.03125 "/></g></g></g><g fill="#000000" fill-opacity="1"><g transform="translate(721.039063, 481.101078)"><g><path d="M 1.53125 -18.03125 L 1.34375 -23.21875 L 3 -23.21875 L 3.1875 -18.03125 Z M 1.53125 -18.03125 "/></g></g></g><g fill="#000000" fill-opacity="1"><g transform="translate(718.909592, 497.117072)"><g><path d="M 2.765625 -17.734375 C 1.960938 -17.734375 1.429688 -17.992188 1.171875 -18.515625 C 0.910156 -19.046875 0.78125 -19.613281 0.78125 -20.21875 C 0.78125 -20.4375 0.796875 -20.671875 0.828125 -20.921875 C 0.859375 -21.171875 0.898438 -21.457031 0.953125 -21.78125 L 2.453125 -22.203125 C 2.335938 -21.523438 2.28125 -20.953125 2.28125 -20.484375 C 2.28125 -19.742188 2.53125 -19.375 3.03125 -19.375 C 3.332031 -19.375 3.582031 -19.53125 3.78125 -19.84375 C 3.976562 -20.15625 4.085938 -20.78125 4.109375 -21.71875 L 4.109375 -22.625 L 5.546875 -23.15625 L 5.546875 -21.328125 C 5.546875 -21.046875 5.597656 -20.800781 5.703125 -20.59375 C 5.816406 -20.382812 6.054688 -20.28125 6.421875 -20.28125 C 6.773438 -20.28125 7.007812 -20.390625 7.125 -20.609375 C 7.25 -20.828125 7.3125 -21.109375 7.3125 -21.453125 C 7.3125 -21.785156 7.269531 -22.128906 7.1875 -22.484375 C 7.113281 -22.835938 7.007812 -23.179688 6.875 -23.515625 L 8.21875 -23.9375 C 8.414062 -23.539062 8.578125 -23.101562 8.703125 -22.625 C 8.835938 -22.144531 8.90625 -21.703125 8.90625 -21.296875 C 8.90625 -20.640625 8.71875 -20.046875 8.34375 -19.515625 C 7.976562 -18.984375 7.40625 -18.71875 6.625 -18.71875 C 5.988281 -18.71875 5.46875 -18.898438 5.0625 -19.265625 C 4.882812 -18.796875 4.585938 -18.421875 4.171875 -18.140625 C 3.765625 -17.867188 3.296875 -17.734375 2.765625 -17.734375 Z M 3.8125 -24.03125 L 3.625 -29.21875 L 5.28125 -29.21875 L 5.46875 -24.03125 Z M 3.8125 -24.03125 "/></g></g></g><g fill="#000000" fill-opacity="1"><g transform="translate(718.429707, 497.926867)"><g><path d="M 0 0.15625 L 0.296875 -2.3125 C 1.140625 -2.3125 1.800781 -2.382812 2.28125 -2.53125 C 2.757812 -2.6875 3.125 -2.976562 3.375 -3.40625 C 3.625 -3.832031 3.835938 -4.457031 4.015625 -5.28125 C 4.203125 -6.101562 4.425781 -7.171875 4.6875 -8.484375 L 7.015625 -8.046875 C 6.898438 -7.503906 6.765625 -6.878906 6.609375 -6.171875 C 6.460938 -5.472656 6.390625 -4.882812 6.390625 -4.40625 C 6.390625 -4.007812 6.476562 -3.648438 6.65625 -3.328125 C 6.84375 -3.003906 7.226562 -2.753906 7.8125 -2.578125 C 8.40625 -2.398438 9.332031 -2.3125 10.59375 -2.3125 C 11.007812 -2.3125 11.3125 -2.195312 11.5 -1.96875 C 11.695312 -1.738281 11.796875 -1.460938 11.796875 -1.140625 C 11.796875 -0.816406 11.65625 -0.519531 11.375 -0.25 C 11.09375 0.0195312 10.734375 0.15625 10.296875 0.15625 C 8.710938 0.15625 7.539062 -0.015625 6.78125 -0.359375 C 6.019531 -0.703125 5.5 -1.210938 5.21875 -1.890625 C 4.613281 -1.046875 3.921875 -0.492188 3.140625 -0.234375 C 2.367188 0.0234375 1.320312 0.15625 0 0.15625 Z M 5.609375 -11.578125 C 5.191406 -11.578125 4.835938 -11.71875 4.546875 -12 C 4.253906 -12.289062 4.109375 -12.640625 4.109375 -13.046875 C 4.109375 -13.441406 4.253906 -13.789062 4.546875 -14.09375 C 4.835938 -14.394531 5.191406 -14.546875 5.609375 -14.546875 C 6.003906 -14.546875 6.347656 -14.394531 6.640625 -14.09375 C 6.929688 -13.789062 7.078125 -13.441406 7.078125 -13.046875 C 7.078125 -12.640625 6.929688 -12.289062 6.640625 -12 C 6.347656 -11.71875 6.003906 -11.578125 5.609375 -11.578125 Z M 5.609375 -11.578125 "/></g></g></g><g fill="#000000" fill-opacity="1"><g transform="translate(729.825435, 493.817889)"><g><path d="M 1.203125 -18.0625 L 1.203125 -19.734375 L 7.921875 -21.71875 L 7.921875 -20.015625 Z M 1.203125 -18.0625 "/></g></g></g><g fill="#000000" fill-opacity="1"><g transform="translate(728.715713, 497.926867)"><g><path d="M 0 0.15625 L 0.296875 -2.3125 C 1.296875 -2.3125 2.078125 -2.382812 2.640625 -2.53125 C 3.203125 -2.6875 3.625 -2.976562 3.90625 -3.40625 C 4.195312 -3.832031 4.429688 -4.457031 4.609375 -5.28125 C 4.796875 -6.101562 5.019531 -7.171875 5.28125 -8.484375 L 7.625 -8.046875 C 7.5 -7.503906 7.359375 -6.878906 7.203125 -6.171875 C 7.054688 -5.472656 6.984375 -4.882812 6.984375 -4.40625 C 6.984375 -4.101562 7.003906 -3.820312 7.046875 -3.5625 C 7.085938 -3.3125 7.238281 -3.09375 7.5 -2.90625 C 7.757812 -2.726562 8.195312 -2.582031 8.8125 -2.46875 C 9.4375 -2.363281 10.328125 -2.3125 11.484375 -2.3125 C 11.910156 -2.3125 12.21875 -2.195312 12.40625 -1.96875 C 12.59375 -1.738281 12.6875 -1.460938 12.6875 -1.140625 C 12.6875 -0.816406 12.546875 -0.519531 12.265625 -0.25 C 11.984375 0.0195312 11.625 0.15625 11.1875 0.15625 C 9.882812 0.15625 8.867188 0.0820312 8.140625 -0.0625 C 7.410156 -0.21875 6.867188 -0.441406 6.515625 -0.734375 C 6.171875 -1.023438 5.921875 -1.390625 5.765625 -1.828125 C 5.179688 -1.003906 4.460938 -0.46875 3.609375 -0.21875 C 2.765625 0.03125 1.5625 0.15625 0 0.15625 Z M 5.96875 -14.875 C 5.550781 -14.875 5.195312 -15.019531 4.90625 -15.3125 C 4.613281 -15.601562 4.46875 -15.945312 4.46875 -16.34375 C 4.46875 -16.738281 4.613281 -17.085938 4.90625 -17.390625 C 5.195312 -17.691406 5.550781 -17.84375 5.96875 -17.84375 C 6.375 -17.84375 6.71875 -17.691406 7 -17.390625 C 7.289062 -17.085938 7.4375 -16.738281 7.4375 -16.34375 C 7.4375 -15.945312 7.289062 -15.601562 7 -15.3125 C 6.71875 -15.019531 6.375 -14.875 5.96875 -14.875 Z M 3.9375 -11.578125 C 3.519531 -11.578125 3.164062 -11.71875 2.875 -12 C 2.582031 -12.289062 2.4375 -12.640625 2.4375 -13.046875 C 2.4375 -13.441406 2.582031 -13.789062 2.875 -14.09375 C 3.164062 -14.394531 3.519531 -14.546875 3.9375 -14.546875 C 4.332031 -14.546875 4.675781 -14.394531 4.96875 -14.09375 C 5.257812 -13.789062 5.40625 -13.441406 5.40625 -13.046875 C 5.40625 -12.640625 5.257812 -12.289062 4.96875 -12 C 4.675781 -11.71875 4.332031 -11.578125 3.9375 -11.578125 Z M 8.015625 -11.578125 C 7.597656 -11.578125 7.242188 -11.71875 6.953125 -12 C 6.660156 -12.289062 6.515625 -12.640625 6.515625 -13.046875 C 6.515625 -13.441406 6.660156 -13.789062 6.953125 -14.09375 C 7.242188 -14.394531 7.597656 -14.546875 8.015625 -14.546875 C 8.410156 -14.546875 8.753906 -14.394531 9.046875 -14.09375 C 9.335938 -13.789062 9.484375 -13.441406 9.484375 -13.046875 C 9.484375 -12.640625 9.335938 -12.289062 9.046875 -12 C 8.753906 -11.71875 8.410156 -11.578125 8.015625 -11.578125 Z M 8.015625 -11.578125 "/></g></g></g><g fill="#000000" fill-opacity="1"><g transform="translate(743.800388, 500.926112)"><g><path d="M 0.78125 -17.453125 L 0.515625 -18.90625 C 1.347656 -18.957031 2.082031 -19.054688 2.71875 -19.203125 C 3.363281 -19.359375 3.914062 -19.535156 4.375 -19.734375 C 3.875 -19.992188 3.46875 -20.328125 3.15625 -20.734375 C 2.851562 -21.148438 2.703125 -21.648438 2.703125 -22.234375 C 2.703125 -22.929688 2.945312 -23.539062 3.4375 -24.0625 C 3.925781 -24.582031 4.570312 -24.84375 5.375 -24.84375 C 6.164062 -24.84375 6.765625 -24.5625 7.171875 -24 C 7.585938 -23.4375 7.796875 -22.816406 7.796875 -22.140625 C 7.796875 -20.796875 7.15625 -19.703125 5.875 -18.859375 C 4.59375 -18.023438 2.894531 -17.554688 0.78125 -17.453125 Z M 4.265625 -22.234375 C 4.265625 -21.910156 4.390625 -21.59375 4.640625 -21.28125 C 4.890625 -20.96875 5.203125 -20.734375 5.578125 -20.578125 C 6.035156 -21.015625 6.265625 -21.503906 6.265625 -22.046875 C 6.265625 -22.410156 6.1875 -22.710938 6.03125 -22.953125 C 5.875 -23.191406 5.632812 -23.3125 5.3125 -23.3125 C 5.007812 -23.3125 4.757812 -23.207031 4.5625 -23 C 4.363281 -22.789062 4.265625 -22.535156 4.265625 -22.234375 Z M 4.265625 -22.234375 "/></g></g></g><g fill="#000000" fill-opacity="1"><g transform="translate(739.901363, 497.926867)"><g><path d="M 0 0.15625 L 0.296875 -2.3125 C 0.859375 -2.3125 1.328125 -2.429688 1.703125 -2.671875 C 2.085938 -2.910156 2.457031 -3.304688 2.8125 -3.859375 C 3.175781 -4.410156 3.566406 -5.164062 3.984375 -6.125 C 4.566406 -7.40625 5.140625 -8.375 5.703125 -9.03125 C 6.273438 -9.6875 6.847656 -10.132812 7.421875 -10.375 C 7.992188 -10.613281 8.5625 -10.734375 9.125 -10.734375 C 9.800781 -10.734375 10.425781 -10.554688 11 -10.203125 C 11.582031 -9.859375 12.09375 -9.394531 12.53125 -8.8125 C 12.976562 -8.238281 13.328125 -7.601562 13.578125 -6.90625 C 13.828125 -6.21875 13.953125 -5.535156 13.953125 -4.859375 C 13.953125 -3.660156 13.738281 -2.707031 13.3125 -2 C 12.894531 -1.289062 12.359375 -0.78125 11.703125 -0.46875 C 11.054688 -0.15625 10.382812 0 9.6875 0 C 9.101562 0 8.367188 -0.0976562 7.484375 -0.296875 C 6.597656 -0.492188 5.484375 -1.015625 4.140625 -1.859375 C 3.503906 -0.941406 2.863281 -0.375 2.21875 -0.15625 C 1.582031 0.0507812 0.84375 0.15625 0 0.15625 Z M 5.609375 -4.53125 C 5.492188 -4.269531 5.382812 -4.019531 5.28125 -3.78125 C 6.132812 -3.28125 6.914062 -2.929688 7.625 -2.734375 C 8.34375 -2.546875 8.941406 -2.453125 9.421875 -2.453125 C 10.273438 -2.453125 10.882812 -2.640625 11.25 -3.015625 C 11.613281 -3.398438 11.796875 -3.90625 11.796875 -4.53125 C 11.796875 -5.113281 11.65625 -5.691406 11.375 -6.265625 C 11.09375 -6.847656 10.734375 -7.328125 10.296875 -7.703125 C 9.867188 -8.085938 9.414062 -8.28125 8.9375 -8.28125 C 8.582031 -8.28125 8.234375 -8.179688 7.890625 -7.984375 C 7.546875 -7.785156 7.191406 -7.414062 6.828125 -6.875 C 6.472656 -6.332031 6.066406 -5.550781 5.609375 -4.53125 Z M 5.609375 -4.53125 "/></g></g></g><path stroke-linecap="round" transform="matrix(0.75, 0, 0, 0.75, 724.506714, 346.660315)" fill="none" stroke-linejoin="miter" d="M 2.652507 1.999788 L 2.652507 44.515415 C 2.652507 44.697707 2.506673 44.84354 2.32959 44.84354 C 2.147298 44.84354 2.001465 44.989373 2.001465 45.171665 L 2.001465 86.687292 " stroke="#acb8c0" stroke-width="4" stroke-opacity="1" stroke-miterlimit="4"/><path stroke-linecap="round" transform="matrix(0.75, 0, 0, 0.75, 724.506714, 346.660315)" fill="none" stroke-linejoin="round" d="M 8.001465 79.687292 L 2.001465 87.687292 L -3.998535 79.687292 " stroke="#acb8c0" stroke-width="4" stroke-opacity="1" stroke-miterlimit="4"/><g clip-path="url(#3531cf1667)"><g clip-path="url(#29e7d3ffd9)"><path fill="#38b6ff" d="M 441.988281 413.925781 L 585.988281 413.925781 L 585.988281 557.925781 L 441.988281 557.925781 Z M 441.988281 413.925781 " fill-opacity="1" fill-rule="nonzero"/></g></g><g fill="#000000" fill-opacity="1"><g transform="translate(488.52437, 497.926867)"><g><path d="M 8.90625 11.8125 C 8.007812 11.8125 7.0625 11.726562 6.0625 11.5625 C 5.0625 11.394531 4.125 11.078125 3.25 10.609375 C 2.382812 10.140625 1.675781 9.484375 1.125 8.640625 C 0.570312 7.796875 0.296875 6.695312 0.296875 5.34375 C 0.296875 3.882812 0.59375 2.613281 1.1875 1.53125 C 1.789062 0.445312 2.550781 -0.484375 3.46875 -1.265625 C 4.394531 -2.054688 5.328125 -2.773438 6.265625 -3.421875 C 5.785156 -3.984375 5.253906 -4.539062 4.671875 -5.09375 C 4.097656 -5.65625 3.460938 -6.1875 2.765625 -6.6875 C 2.640625 -6.789062 2.515625 -6.972656 2.390625 -7.234375 C 2.273438 -7.492188 2.175781 -7.757812 2.09375 -8.03125 C 2.019531 -8.3125 1.984375 -8.523438 1.984375 -8.671875 C 1.984375 -8.972656 2.171875 -9.332031 2.546875 -9.75 C 2.929688 -10.164062 3.441406 -10.566406 4.078125 -10.953125 C 4.722656 -11.347656 5.453125 -11.675781 6.265625 -11.9375 C 7.085938 -12.195312 7.9375 -12.328125 8.8125 -12.328125 C 10.21875 -12.328125 11.316406 -11.976562 12.109375 -11.28125 C 12.898438 -10.582031 13.296875 -9.757812 13.296875 -8.8125 C 13.296875 -7.675781 12.976562 -6.6875 12.34375 -5.84375 C 11.71875 -5.007812 10.953125 -4.234375 10.046875 -3.515625 C 10.804688 -3.128906 11.65625 -2.832031 12.59375 -2.625 C 13.539062 -2.414062 14.753906 -2.3125 16.234375 -2.3125 C 16.648438 -2.3125 16.953125 -2.195312 17.140625 -1.96875 C 17.335938 -1.738281 17.4375 -1.460938 17.4375 -1.140625 C 17.4375 -0.816406 17.296875 -0.519531 17.015625 -0.25 C 16.734375 0.0195312 16.375 0.15625 15.9375 0.15625 C 14.550781 0.15625 13.375 0.0664062 12.40625 -0.109375 C 11.4375 -0.296875 10.597656 -0.539062 9.890625 -0.84375 C 9.191406 -1.15625 8.546875 -1.523438 7.953125 -1.953125 C 7.066406 -1.304688 6.226562 -0.65625 5.4375 0 C 4.65625 0.65625 4.015625 1.382812 3.515625 2.1875 C 3.015625 2.988281 2.765625 3.910156 2.765625 4.953125 C 2.765625 5.867188 2.984375 6.613281 3.421875 7.1875 C 3.859375 7.769531 4.40625 8.21875 5.0625 8.53125 C 5.726562 8.84375 6.410156 9.054688 7.109375 9.171875 C 7.804688 9.296875 8.40625 9.359375 8.90625 9.359375 C 9.945312 9.359375 11.035156 9.242188 12.171875 9.015625 C 13.316406 8.785156 14.5 8.421875 15.71875 7.921875 L 16.5 9.84375 C 15.894531 10.195312 15.175781 10.523438 14.34375 10.828125 C 13.519531 11.128906 12.632812 11.367188 11.6875 11.546875 C 10.738281 11.722656 9.8125 11.8125 8.90625 11.8125 Z M 4.140625 -8.515625 C 4.859375 -7.921875 5.53125 -7.335938 6.15625 -6.765625 C 6.789062 -6.191406 7.476562 -5.515625 8.21875 -4.734375 C 9 -5.273438 9.644531 -5.816406 10.15625 -6.359375 C 10.664062 -6.898438 10.921875 -7.5 10.921875 -8.15625 C 10.921875 -8.5625 10.726562 -8.953125 10.34375 -9.328125 C 9.96875 -9.710938 9.3125 -9.90625 8.375 -9.90625 C 7.6875 -9.90625 6.925781 -9.773438 6.09375 -9.515625 C 5.269531 -9.253906 4.617188 -8.921875 4.140625 -8.515625 Z M 4.140625 -8.515625 "/></g></g></g><g fill="#000000" fill-opacity="1"><g transform="translate(504.448182, 497.926867)"><g><path d="M 0 0.15625 L 0.296875 -2.3125 C 0.859375 -2.3125 1.300781 -2.429688 1.625 -2.671875 C 1.957031 -2.910156 2.28125 -3.304688 2.59375 -3.859375 C 2.90625 -4.410156 3.300781 -5.164062 3.78125 -6.125 C 4.414062 -7.40625 5.054688 -8.382812 5.703125 -9.0625 C 6.359375 -9.738281 6.976562 -10.207031 7.5625 -10.46875 C 8.15625 -10.726562 8.695312 -10.859375 9.1875 -10.859375 C 9.84375 -10.859375 10.429688 -10.710938 10.953125 -10.421875 C 11.472656 -10.128906 11.957031 -9.640625 12.40625 -8.953125 C 12.851562 -8.265625 13.328125 -7.320312 13.828125 -6.125 C 14.285156 -5 14.695312 -4.164062 15.0625 -3.625 C 15.4375 -3.082031 15.828125 -2.726562 16.234375 -2.5625 C 16.648438 -2.394531 17.117188 -2.3125 17.640625 -2.3125 C 18.054688 -2.3125 18.359375 -2.195312 18.546875 -1.96875 C 18.742188 -1.738281 18.84375 -1.460938 18.84375 -1.140625 C 18.84375 -0.816406 18.703125 -0.519531 18.421875 -0.25 C 18.140625 0.0195312 17.78125 0.15625 17.34375 0.15625 C 16.5625 0.15625 15.84375 0.03125 15.1875 -0.21875 C 14.539062 -0.46875 14.03125 -0.851562 13.65625 -1.375 C 13.269531 -0.695312 12.789062 -0.207031 12.21875 0.09375 C 11.65625 0.40625 11.039062 0.5625 10.375 0.5625 C 9.375 0.5625 8.351562 0.25 7.3125 -0.375 C 6.28125 -1 5.40625 -1.832031 4.6875 -2.875 C 4.164062 -1.957031 3.664062 -1.28125 3.1875 -0.84375 C 2.71875 -0.414062 2.226562 -0.140625 1.71875 -0.015625 C 1.207031 0.0976562 0.632812 0.15625 0 0.15625 Z M 5.8125 -5.15625 C 6.5 -4.019531 7.257812 -3.1875 8.09375 -2.65625 C 8.9375 -2.125 9.6875 -1.859375 10.34375 -1.859375 C 11.050781 -1.859375 11.566406 -2.109375 11.890625 -2.609375 C 12.222656 -3.109375 12.207031 -3.804688 11.84375 -4.703125 C 11.601562 -5.304688 11.351562 -5.894531 11.09375 -6.46875 C 10.832031 -7.050781 10.53125 -7.523438 10.1875 -7.890625 C 9.851562 -8.265625 9.457031 -8.453125 9 -8.453125 C 8.5625 -8.441406 8.082031 -8.203125 7.5625 -7.734375 C 7.039062 -7.273438 6.457031 -6.414062 5.8125 -5.15625 Z M 5.8125 -5.15625 "/></g></g></g><g fill="#000000" fill-opacity="1"><g transform="translate(521.781448, 497.926867)"><g><path d="M 0 0.15625 L 0.265625 -2.3125 C 2.328125 -2.3125 4.328125 -2.613281 6.265625 -3.21875 C 8.210938 -3.832031 9.984375 -4.695312 11.578125 -5.8125 C 10.796875 -6.5 9.835938 -7.050781 8.703125 -7.46875 C 7.578125 -7.882812 6.335938 -8.09375 4.984375 -8.09375 C 4.484375 -8.09375 4.039062 -8.066406 3.65625 -8.015625 C 3.28125 -7.972656 2.820312 -7.890625 2.28125 -7.765625 L 1.796875 -10.046875 C 2.921875 -10.390625 3.984375 -10.5625 4.984375 -10.5625 C 6.023438 -10.5625 6.960938 -10.4375 7.796875 -10.1875 C 8.640625 -9.9375 9.40625 -9.628906 10.09375 -9.265625 C 10.78125 -8.910156 11.425781 -8.550781 12.03125 -8.1875 C 12.644531 -7.832031 13.242188 -7.53125 13.828125 -7.28125 C 14.410156 -7.03125 15.007812 -6.90625 15.625 -6.90625 L 16.265625 -6.90625 L 16.46875 -4.734375 C 15.445312 -4.734375 14.515625 -4.566406 13.671875 -4.234375 C 12.835938 -3.910156 11.992188 -3.503906 11.140625 -3.015625 C 10.296875 -2.523438 9.367188 -2.039062 8.359375 -1.5625 C 7.347656 -1.082031 6.171875 -0.675781 4.828125 -0.34375 C 3.484375 -0.0078125 1.875 0.15625 0 0.15625 Z M 8.375 5.578125 C 7.957031 5.578125 7.601562 5.429688 7.3125 5.140625 C 7.019531 4.847656 6.875 4.503906 6.875 4.109375 C 6.875 3.703125 7.019531 3.347656 7.3125 3.046875 C 7.601562 2.753906 7.957031 2.609375 8.375 2.609375 C 8.769531 2.609375 9.113281 2.753906 9.40625 3.046875 C 9.695312 3.347656 9.84375 3.703125 9.84375 4.109375 C 9.84375 4.503906 9.695312 4.847656 9.40625 5.140625 C 9.113281 5.429688 8.769531 5.578125 8.375 5.578125 Z M 8.375 5.578125 "/></g></g></g><path stroke-linecap="round" transform="matrix(0.75, 0, 0, 0.75, 512.489212, 346.660315)" fill="none" stroke-linejoin="miter" d="M 285.342523 1.999788 L 285.342523 23.421664 C 285.342523 29.103956 283.087314 34.551873 279.071689 38.567498 C 275.050856 42.588332 269.602939 44.84354 263.920647 44.84354 L 22.920635 44.84354 C 17.373759 44.84354 12.050842 47.046665 8.128967 50.973749 C 4.201884 54.895624 1.998759 60.218541 1.998759 65.765416 L 1.998759 86.687292 " stroke="#acb8c0" stroke-width="4" stroke-opacity="1" stroke-miterlimit="4"/><path stroke-linecap="round" transform="matrix(0.75, 0, 0, 0.75, 512.489212, 346.660315)" fill="none" stroke-linejoin="round" d="M 7.998759 79.687292 L 1.998759 87.687292 L -4.001242 79.687292 " stroke="#acb8c0" stroke-width="4" stroke-opacity="1" stroke-miterlimit="4"/><g clip-path="url(#103abe80b2)"><g clip-path="url(#1957c8ab10)"><path fill="#38b6ff" d="M 867.757812 413.925781 L 1011.757812 413.925781 L 1011.757812 557.925781 L 867.757812 557.925781 Z M 867.757812 413.925781 " fill-opacity="1" fill-rule="nonzero"/></g></g><g fill="#000000" fill-opacity="1"><g transform="translate(912.674601, 497.926867)"><g><path d="M 6.453125 -2.3125 C 7.929688 -2.3125 8.976562 -2.535156 9.59375 -2.984375 C 10.21875 -3.429688 10.53125 -4.054688 10.53125 -4.859375 C 10.53125 -5.378906 10.347656 -6.046875 9.984375 -6.859375 C 9.628906 -7.679688 9.15625 -8.597656 8.5625 -9.609375 C 7.976562 -10.617188 7.320312 -11.65625 6.59375 -12.71875 L 8.671875 -14.0625 C 9.828125 -12.289062 10.769531 -10.664062 11.5 -9.1875 C 12.226562 -7.71875 12.773438 -6.394531 13.140625 -5.21875 C 13.421875 -4.34375 13.734375 -3.691406 14.078125 -3.265625 C 14.429688 -2.847656 14.796875 -2.582031 15.171875 -2.46875 C 15.554688 -2.363281 15.910156 -2.3125 16.234375 -2.3125 C 16.648438 -2.3125 16.957031 -2.195312 17.15625 -1.96875 C 17.351562 -1.738281 17.453125 -1.460938 17.453125 -1.140625 C 17.453125 -0.816406 17.3125 -0.519531 17.03125 -0.25 C 16.757812 0.0195312 16.398438 0.15625 15.953125 0.15625 C 15.179688 0.15625 14.429688 -0.015625 13.703125 -0.359375 C 12.984375 -0.703125 12.40625 -1.28125 11.96875 -2.09375 C 11.570312 -1.4375 10.9375 -0.890625 10.0625 -0.453125 C 9.195312 -0.0234375 7.992188 0.1875 6.453125 0.1875 C 5.347656 0.1875 4.328125 0.0507812 3.390625 -0.21875 C 2.453125 -0.488281 1.671875 -0.863281 1.046875 -1.34375 L 2.25 -3.421875 C 2.644531 -3.140625 3.203125 -2.882812 3.921875 -2.65625 C 4.648438 -2.425781 5.492188 -2.3125 6.453125 -2.3125 Z M 6.453125 -2.3125 "/></g></g></g><g fill="#000000" fill-opacity="1"><g transform="translate(928.628397, 497.926867)"><g><path d="M 0 0.15625 L 0.265625 -2.3125 C 2.328125 -2.3125 4.328125 -2.613281 6.265625 -3.21875 C 8.210938 -3.832031 9.984375 -4.695312 11.578125 -5.8125 C 10.796875 -6.5 9.835938 -7.050781 8.703125 -7.46875 C 7.578125 -7.882812 6.335938 -8.09375 4.984375 -8.09375 C 4.484375 -8.09375 4.039062 -8.066406 3.65625 -8.015625 C 3.28125 -7.972656 2.820312 -7.890625 2.28125 -7.765625 L 1.796875 -10.046875 C 2.921875 -10.390625 3.984375 -10.5625 4.984375 -10.5625 C 6.023438 -10.5625 6.960938 -10.4375 7.796875 -10.1875 C 8.640625 -9.9375 9.40625 -9.628906 10.09375 -9.265625 C 10.78125 -8.910156 11.425781 -8.550781 12.03125 -8.1875 C 12.644531 -7.832031 13.242188 -7.53125 13.828125 -7.28125 C 14.410156 -7.03125 15.007812 -6.90625 15.625 -6.90625 L 16.265625 -6.90625 L 16.46875 -4.734375 C 15.445312 -4.734375 14.515625 -4.566406 13.671875 -4.234375 C 12.835938 -3.910156 11.992188 -3.503906 11.140625 -3.015625 C 10.296875 -2.523438 9.367188 -2.039062 8.359375 -1.5625 C 7.347656 -1.082031 6.171875 -0.675781 4.828125 -0.34375 C 3.484375 -0.0078125 1.875 0.15625 0 0.15625 Z M 0 0.15625 "/></g></g></g><g fill="#000000" fill-opacity="1"><g transform="translate(946.291528, 497.926867)"><g><path d="M 2.765625 0 L 2.15625 -21.421875 L 4.59375 -21.421875 L 5.1875 0 Z M 2.765625 0 "/></g></g></g><g fill="#000000" fill-opacity="1"><g transform="translate(953.42875, 497.926867)"><g><path d="M 1.734375 6.90625 L 1.203125 4.4375 C 2.484375 4.28125 3.640625 4.039062 4.671875 3.71875 C 5.710938 3.394531 6.601562 2.929688 7.34375 2.328125 C 8.082031 1.734375 8.632812 0.9375 9 -0.0625 C 8.632812 0.0390625 8.253906 0.113281 7.859375 0.15625 C 7.460938 0.207031 7.070312 0.234375 6.6875 0.234375 C 5.144531 0.234375 3.960938 -0.0703125 3.140625 -0.6875 C 2.328125 -1.3125 1.921875 -2.269531 1.921875 -3.5625 C 1.921875 -4.320312 2.039062 -5.085938 2.28125 -5.859375 C 2.519531 -6.628906 2.859375 -7.332031 3.296875 -7.96875 C 3.734375 -8.613281 4.257812 -9.128906 4.875 -9.515625 C 5.5 -9.910156 6.191406 -10.109375 6.953125 -10.109375 C 8.035156 -10.109375 8.929688 -9.753906 9.640625 -9.046875 C 10.347656 -8.335938 10.878906 -7.421875 11.234375 -6.296875 C 11.585938 -5.179688 11.765625 -3.992188 11.765625 -2.734375 C 11.765625 0.0664062 10.914062 2.273438 9.21875 3.890625 C 7.53125 5.515625 5.035156 6.519531 1.734375 6.90625 Z M 4.296875 -4.171875 C 4.296875 -3.546875 4.492188 -3.046875 4.890625 -2.671875 C 5.285156 -2.304688 5.972656 -2.125 6.953125 -2.125 C 7.816406 -2.125 8.640625 -2.242188 9.421875 -2.484375 C 9.421875 -2.609375 9.421875 -2.75 9.421875 -2.90625 C 9.421875 -3.726562 9.3125 -4.503906 9.09375 -5.234375 C 8.875 -5.960938 8.5625 -6.546875 8.15625 -6.984375 C 7.757812 -7.429688 7.28125 -7.65625 6.71875 -7.65625 C 6.238281 -7.65625 5.816406 -7.476562 5.453125 -7.125 C 5.097656 -6.769531 4.816406 -6.320312 4.609375 -5.78125 C 4.398438 -5.25 4.296875 -4.710938 4.296875 -4.171875 Z M 4.296875 -4.171875 "/></g></g></g><path stroke-linecap="round" transform="matrix(0.75, 0, 0, 0.75, 724.997898, 346.660315)" fill="none" stroke-linejoin="miter" d="M 1.997595 1.999788 L 1.997595 23.421664 C 1.997595 29.103956 4.258012 34.551873 8.273637 38.567498 C 12.29447 42.588332 17.742387 44.84354 23.424679 44.84354 L 265.424691 44.84354 C 270.971567 44.84354 276.294484 47.046665 280.216359 50.973749 C 284.138234 54.895624 286.346567 60.218541 286.346567 65.765416 L 286.346567 86.687292 " stroke="#acb8c0" stroke-width="4" stroke-opacity="1" stroke-miterlimit="4"/><path stroke-linecap="round" transform="matrix(0.75, 0, 0, 0.75, 724.997898, 346.660315)" fill="none" stroke-linejoin="round" d="M 292.346568 79.687292 L 286.346567 87.687292 L 280.346567 79.687292 " stroke="#acb8c0" stroke-width="4" stroke-opacity="1" stroke-miterlimit="4"/><g clip-path="url(#74628e435d)"><g clip-path="url(#7d7afa68b2)"><path fill="#38b6ff" d="M 585.988281 617.925781 L 729.988281 617.925781 L 729.988281 761.925781 L 585.988281 761.925781 Z M 585.988281 617.925781 " fill-opacity="1" fill-rule="nonzero"/></g></g><g fill="#000000" fill-opacity="1"><g transform="translate(629.500925, 699.676857)"><g><path d="M 0.09375 5.796875 L -0.625 3.90625 C 0.988281 3.363281 2.25 2.726562 3.15625 2 C 4.070312 1.269531 4.71875 0.5 5.09375 -0.3125 C 5.46875 -1.125 5.65625 -1.910156 5.65625 -2.671875 C 5.65625 -3.492188 5.472656 -4.320312 5.109375 -5.15625 C 4.753906 -6 4.359375 -6.796875 3.921875 -7.546875 L 5.75 -8.46875 C 6.21875 -7.59375 6.613281 -6.742188 6.9375 -5.921875 C 7.257812 -5.109375 7.515625 -4.394531 7.703125 -3.78125 C 7.929688 -3.0625 8.234375 -2.570312 8.609375 -2.3125 C 8.984375 -2.050781 9.5 -1.921875 10.15625 -1.921875 C 10.5 -1.921875 10.75 -1.820312 10.90625 -1.625 C 11.070312 -1.4375 11.15625 -1.210938 11.15625 -0.953125 C 11.15625 -0.679688 11.035156 -0.429688 10.796875 -0.203125 C 10.566406 0.015625 10.269531 0.125 9.90625 0.125 C 9.269531 0.125 8.738281 0.0234375 8.3125 -0.171875 C 7.882812 -0.367188 7.539062 -0.632812 7.28125 -0.96875 C 7.113281 -0.0390625 6.757812 0.800781 6.21875 1.5625 C 5.6875 2.332031 5.0625 3.003906 4.34375 3.578125 C 3.632812 4.160156 2.90625 4.632812 2.15625 5 C 1.40625 5.363281 0.71875 5.628906 0.09375 5.796875 Z M 0.09375 5.796875 "/></g></g></g><g fill="#000000" fill-opacity="1"><g transform="translate(639.399355, 699.676857)"><g><path d="M 0 0.125 L 0.25 -1.921875 C 0.78125 -1.921875 1.210938 -1.957031 1.546875 -2.03125 C 1.878906 -2.113281 2.15625 -2.304688 2.375 -2.609375 C 2.601562 -2.921875 2.816406 -3.410156 3.015625 -4.078125 C 3.222656 -4.742188 3.457031 -5.675781 3.71875 -6.875 L 5.59375 -6.34375 C 5.5 -5.914062 5.382812 -5.410156 5.25 -4.828125 C 5.113281 -4.242188 5.046875 -3.71875 5.046875 -3.25 C 5.046875 -2.832031 5.203125 -2.503906 5.515625 -2.265625 C 5.835938 -2.035156 6.414062 -1.921875 7.25 -1.921875 C 7.75 -1.921875 8.15625 -1.960938 8.46875 -2.046875 C 8.789062 -2.128906 9.054688 -2.328125 9.265625 -2.640625 C 9.472656 -2.960938 9.660156 -3.46875 9.828125 -4.15625 C 9.992188 -4.851562 10.164062 -5.816406 10.34375 -7.046875 L 12.25 -6.703125 C 12.195312 -6.398438 12.132812 -6.03125 12.0625 -5.59375 C 11.988281 -5.164062 11.925781 -4.738281 11.875 -4.3125 C 11.820312 -3.882812 11.796875 -3.53125 11.796875 -3.25 C 11.796875 -3.019531 11.847656 -2.800781 11.953125 -2.59375 C 12.066406 -2.382812 12.285156 -2.21875 12.609375 -2.09375 C 12.929688 -1.976562 13.421875 -1.921875 14.078125 -1.921875 C 14.910156 -1.921875 15.515625 -2.09375 15.890625 -2.4375 C 16.265625 -2.78125 16.453125 -3.316406 16.453125 -4.046875 C 16.453125 -4.617188 16.429688 -5.242188 16.390625 -5.921875 C 16.359375 -6.609375 16.28125 -7.46875 16.15625 -8.5 L 17.96875 -8.625 C 18.070312 -7.269531 18.1875 -6.160156 18.3125 -5.296875 C 18.4375 -4.429688 18.617188 -3.753906 18.859375 -3.265625 C 19.097656 -2.773438 19.425781 -2.425781 19.84375 -2.21875 C 20.257812 -2.019531 20.8125 -1.921875 21.5 -1.921875 C 21.851562 -1.921875 22.109375 -1.820312 22.265625 -1.625 C 22.421875 -1.4375 22.5 -1.210938 22.5 -0.953125 C 22.5 -0.679688 22.378906 -0.429688 22.140625 -0.203125 C 21.910156 0.015625 21.613281 0.125 21.25 0.125 C 20.3125 0.125 19.539062 -0.0820312 18.9375 -0.5 C 18.332031 -0.914062 17.882812 -1.441406 17.59375 -2.078125 C 17.257812 -1.191406 16.753906 -0.601562 16.078125 -0.3125 C 15.410156 -0.0195312 14.664062 0.125 13.84375 0.125 C 13 0.125 12.328125 0.00390625 11.828125 -0.234375 C 11.335938 -0.472656 10.976562 -0.84375 10.75 -1.34375 C 10.351562 -0.75 9.875 -0.351562 9.3125 -0.15625 C 8.75 0.03125 7.960938 0.125 6.953125 0.125 C 6.597656 0.125 6.222656 0.0820312 5.828125 0 C 5.441406 -0.0820312 5.082031 -0.242188 4.75 -0.484375 C 4.414062 -0.722656 4.15625 -1.085938 3.96875 -1.578125 C 3.539062 -0.835938 3.003906 -0.367188 2.359375 -0.171875 C 1.722656 0.0234375 0.9375 0.125 0 0.125 Z M 0 0.125 "/></g></g></g><g fill="#000000" fill-opacity="1"><g transform="translate(660.645985, 699.676857)"><g><path d="M 0 0.125 L 0.25 -1.921875 L 2.171875 -1.921875 C 3.554688 -1.921875 4.582031 -1.992188 5.25 -2.140625 C 5.914062 -2.296875 6.351562 -2.492188 6.5625 -2.734375 C 6.769531 -2.972656 6.875 -3.238281 6.875 -3.53125 C 6.875 -3.925781 6.722656 -4.363281 6.421875 -4.84375 C 6.117188 -5.332031 5.734375 -5.828125 5.265625 -6.328125 C 4.804688 -6.835938 4.3125 -7.34375 3.78125 -7.84375 C 3.257812 -8.34375 2.765625 -8.800781 2.296875 -9.21875 C 1.828125 -9.632812 1.441406 -10 1.140625 -10.3125 C 0.847656 -10.625 0.703125 -10.84375 0.703125 -10.96875 C 0.703125 -11.351562 0.742188 -11.710938 0.828125 -12.046875 C 0.910156 -12.378906 1.039062 -12.640625 1.21875 -12.828125 C 1.675781 -13.304688 2.34375 -13.804688 3.21875 -14.328125 C 4.09375 -14.859375 5.09375 -15.398438 6.21875 -15.953125 C 7.351562 -16.515625 8.515625 -17.085938 9.703125 -17.671875 L 10.546875 -15.828125 C 9.078125 -15.085938 7.640625 -14.375 6.234375 -13.6875 C 4.828125 -13.007812 3.597656 -12.304688 2.546875 -11.578125 C 3.460938 -10.796875 4.320312 -10.035156 5.125 -9.296875 C 5.925781 -8.566406 6.664062 -7.78125 7.34375 -6.9375 C 8.03125 -6.09375 8.65625 -5.140625 9.21875 -4.078125 C 9.570312 -3.421875 9.984375 -2.941406 10.453125 -2.640625 C 10.921875 -2.347656 11.378906 -2.15625 11.828125 -2.0625 C 12.273438 -1.96875 12.648438 -1.921875 12.953125 -1.921875 C 13.296875 -1.921875 13.546875 -1.820312 13.703125 -1.625 C 13.867188 -1.4375 13.953125 -1.210938 13.953125 -0.953125 C 13.953125 -0.679688 13.832031 -0.429688 13.59375 -0.203125 C 13.363281 0.015625 13.066406 0.125 12.703125 0.125 C 12.296875 0.125 11.832031 0.0703125 11.3125 -0.03125 C 10.789062 -0.144531 10.257812 -0.351562 9.71875 -0.65625 C 9.1875 -0.96875 8.722656 -1.425781 8.328125 -2.03125 C 7.992188 -1.539062 7.578125 -1.132812 7.078125 -0.8125 C 6.578125 -0.5 5.925781 -0.265625 5.125 -0.109375 C 4.320312 0.046875 3.304688 0.125 2.078125 0.125 Z M 0 0.125 "/></g></g></g><g fill="#000000" fill-opacity="1"><g transform="translate(673.343971, 699.676857)"><g><path d="M 0 0.125 L 0.25 -1.921875 C 0.71875 -1.921875 1.109375 -2.019531 1.421875 -2.21875 C 1.742188 -2.425781 2.050781 -2.757812 2.34375 -3.21875 C 2.644531 -3.675781 2.972656 -4.300781 3.328125 -5.09375 C 3.804688 -6.164062 4.28125 -6.972656 4.75 -7.515625 C 5.226562 -8.066406 5.707031 -8.441406 6.1875 -8.640625 C 6.664062 -8.847656 7.132812 -8.953125 7.59375 -8.953125 C 8.164062 -8.953125 8.691406 -8.804688 9.171875 -8.515625 C 9.660156 -8.222656 10.085938 -7.832031 10.453125 -7.34375 C 10.816406 -6.863281 11.101562 -6.335938 11.3125 -5.765625 C 11.519531 -5.191406 11.625 -4.617188 11.625 -4.046875 C 11.625 -3.046875 11.445312 -2.25 11.09375 -1.65625 C 10.75 -1.070312 10.304688 -0.648438 9.765625 -0.390625 C 9.222656 -0.128906 8.660156 0 8.078125 0 C 7.585938 0 6.972656 -0.0820312 6.234375 -0.25 C 5.492188 -0.414062 4.566406 -0.847656 3.453125 -1.546875 C 2.921875 -0.785156 2.382812 -0.316406 1.84375 -0.140625 C 1.3125 0.0351562 0.695312 0.125 0 0.125 Z M 4.671875 -3.78125 C 4.578125 -3.5625 4.488281 -3.351562 4.40625 -3.15625 C 5.113281 -2.738281 5.765625 -2.445312 6.359375 -2.28125 C 6.953125 -2.125 7.445312 -2.046875 7.84375 -2.046875 C 8.5625 -2.046875 9.070312 -2.203125 9.375 -2.515625 C 9.675781 -2.835938 9.828125 -3.257812 9.828125 -3.78125 C 9.828125 -4.257812 9.707031 -4.738281 9.46875 -5.21875 C 9.238281 -5.707031 8.941406 -6.109375 8.578125 -6.421875 C 8.222656 -6.742188 7.847656 -6.90625 7.453125 -6.90625 C 7.148438 -6.90625 6.859375 -6.820312 6.578125 -6.65625 C 6.296875 -6.488281 6.003906 -6.175781 5.703125 -5.71875 C 5.398438 -5.269531 5.054688 -4.625 4.671875 -3.78125 Z M 4.671875 -3.78125 "/></g></g></g><path stroke-linecap="round" transform="matrix(0.75, 0, 0, 0.75, 512.489212, 557.926864)" fill="none" stroke-linejoin="miter" d="M 1.998759 1.998557 L 1.998759 20.998557 C 1.998759 31.49335 10.509176 39.998558 20.998759 39.998558 L 175.498767 39.998558 C 180.405017 39.998558 185.113351 41.951684 188.582101 45.420434 C 192.050851 48.889184 193.998768 53.592309 193.998768 58.498559 L 193.998768 76.99856 " stroke="#acb8c0" stroke-width="4" stroke-opacity="1" stroke-miterlimit="4"/><path stroke-linecap="round" transform="matrix(0.75, 0, 0, 0.75, 512.489212, 557.926864)" fill="none" stroke-linejoin="round" d="M 199.998768 69.99856 L 193.998768 77.99856 L 187.998768 69.99856 " stroke="#acb8c0" stroke-width="4" stroke-opacity="1" stroke-miterlimit="4"/><g clip-path="url(#8887e9f736)"><g clip-path="url(#0e70ce50df)"><path fill="#38b6ff" d="M 297.988281 617.925781 L 441.988281 617.925781 L 441.988281 761.925781 L 297.988281 761.925781 Z M 297.988281 617.925781 " fill-opacity="1" fill-rule="nonzero"/></g></g><g fill="#000000" fill-opacity="1"><g transform="translate(346.270447, 699.676857)"><g><path d="M 1.921875 9.828125 C 1.578125 8.546875 1.28125 7.289062 1.03125 6.0625 C 0.78125 4.832031 0.585938 3.738281 0.453125 2.78125 C 0.316406 1.820312 0.25 1.101562 0.25 0.625 C 0.25 -0.601562 0.445312 -1.726562 0.84375 -2.75 C 1.25 -3.769531 1.765625 -4.664062 2.390625 -5.4375 C 3.023438 -6.207031 3.707031 -6.863281 4.4375 -7.40625 C 5.175781 -7.945312 5.890625 -8.351562 6.578125 -8.625 C 7.273438 -8.90625 7.863281 -9.046875 8.34375 -9.046875 C 8.75 -9.046875 9.113281 -8.953125 9.4375 -8.765625 C 9.757812 -8.585938 10.066406 -8.234375 10.359375 -7.703125 C 10.648438 -7.171875 10.972656 -6.382812 11.328125 -5.34375 C 11.640625 -4.382812 11.9375 -3.660156 12.21875 -3.171875 C 12.507812 -2.691406 12.820312 -2.363281 13.15625 -2.1875 C 13.488281 -2.007812 13.867188 -1.921875 14.296875 -1.921875 C 14.648438 -1.921875 14.90625 -1.820312 15.0625 -1.625 C 15.21875 -1.4375 15.296875 -1.210938 15.296875 -0.953125 C 15.296875 -0.679688 15.175781 -0.429688 14.9375 -0.203125 C 14.707031 0.015625 14.410156 0.125 14.046875 0.125 C 13.460938 0.125 12.957031 0.03125 12.53125 -0.15625 C 12.113281 -0.351562 11.738281 -0.617188 11.40625 -0.953125 C 11.082031 -0.460938 10.695312 -0.109375 10.25 0.109375 C 9.800781 0.335938 9.316406 0.453125 8.796875 0.453125 C 8.179688 0.453125 7.535156 0.304688 6.859375 0.015625 C 6.179688 -0.273438 5.535156 -0.703125 4.921875 -1.265625 C 4.304688 -1.835938 3.773438 -2.523438 3.328125 -3.328125 C 2.910156 -2.691406 2.632812 -2.007812 2.5 -1.28125 C 2.363281 -0.5625 2.296875 0.0703125 2.296875 0.625 C 2.296875 1.101562 2.34375 1.703125 2.4375 2.421875 C 2.539062 3.140625 2.671875 3.90625 2.828125 4.71875 C 2.992188 5.539062 3.171875 6.351562 3.359375 7.15625 C 3.554688 7.96875 3.738281 8.695312 3.90625 9.34375 Z M 9 -1.59375 C 9.4375 -1.59375 9.757812 -1.726562 9.96875 -2 C 10.1875 -2.269531 10.210938 -2.660156 10.046875 -3.171875 C 9.660156 -4.390625 9.3125 -5.300781 9 -5.90625 C 8.695312 -6.519531 8.363281 -6.828125 8 -6.828125 C 7.632812 -6.828125 7.117188 -6.660156 6.453125 -6.328125 C 5.796875 -6.003906 5.203125 -5.535156 4.671875 -4.921875 C 5.035156 -4.171875 5.476562 -3.546875 6 -3.046875 C 6.53125 -2.546875 7.054688 -2.175781 7.578125 -1.9375 C 8.109375 -1.707031 8.582031 -1.59375 9 -1.59375 Z M 9 -1.59375 "/></g></g></g><g fill="#000000" fill-opacity="1"><g transform="translate(360.318218, 699.676857)"><g><path d="M 0 0.125 L 0.21875 -1.921875 C 1.175781 -1.921875 1.84375 -2.007812 2.21875 -2.1875 C 2.601562 -2.375 2.820312 -2.695312 2.875 -3.15625 C 2.9375 -3.613281 2.953125 -4.269531 2.921875 -5.125 L 2.453125 -17.84375 L 4.46875 -17.84375 L 4.96875 -5.34375 C 5.019531 -4.164062 4.941406 -3.164062 4.734375 -2.34375 C 4.523438 -1.53125 4.054688 -0.914062 3.328125 -0.5 C 2.609375 -0.0820312 1.5 0.125 0 0.125 Z M 0 0.125 "/></g></g></g><g fill="#000000" fill-opacity="1"><g transform="translate(366.817191, 699.676857)"><g><path d="M 7.28125 0.125 C 5.925781 0.125 4.898438 -0.0234375 4.203125 -0.328125 C 3.503906 -0.628906 3.019531 -1.09375 2.75 -1.71875 C 2.476562 -2.351562 2.328125 -3.171875 2.296875 -4.171875 L 1.796875 -17.84375 L 3.84375 -17.84375 L 4.34375 -4.96875 C 4.382812 -4.15625 4.46875 -3.523438 4.59375 -3.078125 C 4.71875 -2.640625 5 -2.335938 5.4375 -2.171875 C 5.875 -2.003906 6.570312 -1.921875 7.53125 -1.921875 C 7.875 -1.921875 8.125 -1.820312 8.28125 -1.625 C 8.445312 -1.4375 8.53125 -1.210938 8.53125 -0.953125 C 8.53125 -0.679688 8.410156 -0.429688 8.171875 -0.203125 C 7.941406 0.015625 7.644531 0.125 7.28125 0.125 Z M 7.28125 0.125 "/></g></g></g><g fill="#000000" fill-opacity="1"><g transform="translate(374.091044, 699.676857)"><g><path d="M 0 0.125 L 0.25 -1.921875 C 0.78125 -1.921875 1.210938 -1.957031 1.546875 -2.03125 C 1.878906 -2.113281 2.15625 -2.304688 2.375 -2.609375 C 2.601562 -2.921875 2.816406 -3.410156 3.015625 -4.078125 C 3.222656 -4.742188 3.457031 -5.675781 3.71875 -6.875 L 5.59375 -6.34375 C 5.5 -5.914062 5.382812 -5.410156 5.25 -4.828125 C 5.113281 -4.242188 5.046875 -3.71875 5.046875 -3.25 C 5.046875 -2.832031 5.203125 -2.503906 5.515625 -2.265625 C 5.835938 -2.035156 6.414062 -1.921875 7.25 -1.921875 C 7.75 -1.921875 8.15625 -1.960938 8.46875 -2.046875 C 8.789062 -2.128906 9.054688 -2.328125 9.265625 -2.640625 C 9.472656 -2.960938 9.660156 -3.46875 9.828125 -4.15625 C 9.992188 -4.851562 10.164062 -5.816406 10.34375 -7.046875 L 12.25 -6.703125 C 12.195312 -6.398438 12.132812 -6.03125 12.0625 -5.59375 C 11.988281 -5.164062 11.925781 -4.738281 11.875 -4.3125 C 11.820312 -3.882812 11.796875 -3.53125 11.796875 -3.25 C 11.796875 -3.019531 11.847656 -2.800781 11.953125 -2.59375 C 12.066406 -2.382812 12.285156 -2.21875 12.609375 -2.09375 C 12.929688 -1.976562 13.421875 -1.921875 14.078125 -1.921875 C 14.796875 -1.921875 15.367188 -2.0625 15.796875 -2.34375 C 16.234375 -2.632812 16.453125 -3.210938 16.453125 -4.078125 C 16.453125 -4.691406 16.304688 -5.484375 16.015625 -6.453125 C 15.722656 -7.421875 15.394531 -8.378906 15.03125 -9.328125 L 17.046875 -10.078125 C 17.242188 -9.523438 17.441406 -8.910156 17.640625 -8.234375 C 17.847656 -7.554688 18.015625 -6.882812 18.140625 -6.21875 C 18.273438 -5.550781 18.34375 -4.96875 18.34375 -4.46875 C 18.34375 -2.925781 17.957031 -1.773438 17.1875 -1.015625 C 16.425781 -0.253906 15.378906 0.125 14.046875 0.125 C 13.128906 0.125 12.40625 0.00390625 11.875 -0.234375 C 11.351562 -0.472656 10.976562 -0.851562 10.75 -1.375 C 10.351562 -0.757812 9.875 -0.351562 9.3125 -0.15625 C 8.75 0.03125 7.960938 0.125 6.953125 0.125 C 6.597656 0.125 6.222656 0.0820312 5.828125 0 C 5.441406 -0.0820312 5.082031 -0.242188 4.75 -0.484375 C 4.414062 -0.722656 4.15625 -1.085938 3.96875 -1.578125 C 3.539062 -0.835938 3.003906 -0.367188 2.359375 -0.171875 C 1.722656 0.0234375 0.9375 0.125 0 0.125 Z M 0 0.125 "/></g></g></g><path stroke-linecap="round" transform="matrix(0.75, 0, 0, 0.75, 368.489196, 557.926864)" fill="none" stroke-linejoin="miter" d="M 193.998791 1.998557 L 193.998791 20.998557 C 193.998791 31.49335 185.493582 39.998558 174.99879 39.998558 L 20.498782 39.998558 C 15.592532 39.998558 10.889406 41.951684 7.420656 45.420434 C 3.946698 48.889184 1.998781 53.592309 1.998781 58.498559 L 1.998781 76.99856 " stroke="#acb8c0" stroke-width="4" stroke-opacity="1" stroke-miterlimit="4"/><path stroke-linecap="round" transform="matrix(0.75, 0, 0, 0.75, 368.489196, 557.926864)" fill="none" stroke-linejoin="round" d="M 7.998781 69.99856 L 1.998781 77.99856 L -4.001219 69.99856 " stroke="#acb8c0" stroke-width="4" stroke-opacity="1" stroke-miterlimit="4"/><g fill="#000000" fill-opacity="1"><g transform="translate(594.998928, 113.086978)"><g><path d="M 2.640625 14.0625 C 2.210938 12.507812 1.851562 10.972656 1.5625 9.453125 C 1.28125 7.941406 1.066406 6.550781 0.921875 5.28125 C 0.785156 4.019531 0.71875 2.988281 0.71875 2.1875 C 0.71875 0.726562 0.976562 -0.476562 1.5 -1.4375 C 2.019531 -2.40625 2.722656 -3.15625 3.609375 -3.6875 C 4.492188 -4.226562 5.476562 -4.59375 6.5625 -4.78125 C 7.644531 -4.976562 8.765625 -5.046875 9.921875 -4.984375 C 11.078125 -4.929688 12.171875 -4.785156 13.203125 -4.546875 C 13.273438 -5.617188 13.164062 -6.628906 12.875 -7.578125 C 12.59375 -8.535156 12.140625 -9.304688 11.515625 -9.890625 C 10.898438 -10.472656 10.140625 -10.765625 9.234375 -10.765625 C 7.484375 -10.765625 5.976562 -9.570312 4.71875 -7.1875 L 2.5 -8.40625 C 3.40625 -10.332031 4.472656 -11.6875 5.703125 -12.46875 C 6.929688 -13.257812 8.164062 -13.65625 9.40625 -13.65625 C 10.625 -13.65625 11.648438 -13.398438 12.484375 -12.890625 C 13.316406 -12.378906 13.976562 -11.710938 14.46875 -10.890625 C 14.957031 -10.066406 15.3125 -9.179688 15.53125 -8.234375 C 15.757812 -7.296875 15.875 -6.398438 15.875 -5.546875 C 15.875 -4.660156 15.71875 -3.78125 15.40625 -2.90625 C 15.101562 -2.039062 14.820312 -1.414062 14.5625 -1.03125 C 12.382812 -1.675781 10.476562 -2.015625 8.84375 -2.046875 C 7.21875 -2.085938 5.941406 -1.753906 5.015625 -1.046875 C 4.097656 -0.347656 3.640625 0.785156 3.640625 2.359375 C 3.640625 3.265625 3.710938 4.316406 3.859375 5.515625 C 4.003906 6.722656 4.207031 8 4.46875 9.34375 C 4.726562 10.695312 5.039062 12.03125 5.40625 13.34375 Z M 2.640625 14.0625 "/></g></g></g><g fill="#000000" fill-opacity="1"><g transform="translate(612.305635, 113.086978)"><g><path d="M 10.40625 0.171875 C 8.476562 0.171875 7.007812 -0.0390625 6 -0.46875 C 5 -0.894531 4.304688 -1.5625 3.921875 -2.46875 C 3.546875 -3.375 3.335938 -4.539062 3.296875 -5.96875 L 2.578125 -25.53125 L 5.515625 -25.53125 L 6.21875 -7.125 C 6.269531 -5.945312 6.382812 -5.039062 6.5625 -4.40625 C 6.738281 -3.78125 7.144531 -3.347656 7.78125 -3.109375 C 8.414062 -2.867188 9.410156 -2.75 10.765625 -2.75 C 11.265625 -2.75 11.628906 -2.613281 11.859375 -2.34375 C 12.085938 -2.070312 12.203125 -1.742188 12.203125 -1.359375 C 12.203125 -0.972656 12.03125 -0.617188 11.6875 -0.296875 C 11.351562 0.015625 10.925781 0.171875 10.40625 0.171875 Z M 10.40625 0.171875 "/></g></g></g><g fill="#000000" fill-opacity="1"><g transform="translate(622.711107, 113.086978)"><g><path d="M 0 0.171875 L 0.359375 -2.75 C 1.117188 -2.75 1.738281 -2.800781 2.21875 -2.90625 C 2.695312 -3.019531 3.097656 -3.296875 3.421875 -3.734375 C 3.742188 -4.179688 4.046875 -4.878906 4.328125 -5.828125 C 4.609375 -6.785156 4.941406 -8.117188 5.328125 -9.828125 L 8.015625 -9.078125 C 7.867188 -8.460938 7.695312 -7.738281 7.5 -6.90625 C 7.3125 -6.070312 7.21875 -5.320312 7.21875 -4.65625 C 7.21875 -4.050781 7.441406 -3.582031 7.890625 -3.25 C 8.347656 -2.914062 9.175781 -2.75 10.375 -2.75 C 11.082031 -2.75 11.660156 -2.804688 12.109375 -2.921875 C 12.566406 -3.046875 12.945312 -3.332031 13.25 -3.78125 C 13.550781 -4.238281 13.816406 -4.960938 14.046875 -5.953125 C 14.285156 -6.941406 14.539062 -8.316406 14.8125 -10.078125 L 17.53125 -9.578125 C 17.457031 -9.148438 17.363281 -8.625 17.25 -8 C 17.144531 -7.382812 17.054688 -6.769531 16.984375 -6.15625 C 16.910156 -5.550781 16.875 -5.050781 16.875 -4.65625 C 16.875 -4.320312 16.953125 -4.003906 17.109375 -3.703125 C 17.265625 -3.398438 17.570312 -3.164062 18.03125 -3 C 18.5 -2.832031 19.203125 -2.75 20.140625 -2.75 C 21.328125 -2.75 22.1875 -2.992188 22.71875 -3.484375 C 23.257812 -3.972656 23.53125 -4.742188 23.53125 -5.796875 C 23.53125 -6.609375 23.503906 -7.5 23.453125 -8.46875 C 23.410156 -9.445312 23.296875 -10.675781 23.109375 -12.15625 L 25.71875 -12.34375 C 25.863281 -10.40625 26.023438 -8.816406 26.203125 -7.578125 C 26.378906 -6.335938 26.640625 -5.363281 26.984375 -4.65625 C 27.328125 -3.957031 27.796875 -3.460938 28.390625 -3.171875 C 28.992188 -2.890625 29.785156 -2.75 30.765625 -2.75 C 31.265625 -2.75 31.625 -2.613281 31.84375 -2.34375 C 32.070312 -2.070312 32.1875 -1.742188 32.1875 -1.359375 C 32.1875 -0.972656 32.019531 -0.617188 31.6875 -0.296875 C 31.351562 0.015625 30.925781 0.171875 30.40625 0.171875 C 29.0625 0.171875 27.953125 -0.125 27.078125 -0.71875 C 26.210938 -1.3125 25.578125 -2.0625 25.171875 -2.96875 C 24.703125 -1.707031 23.984375 -0.867188 23.015625 -0.453125 C 22.046875 -0.0351562 20.976562 0.171875 19.8125 0.171875 C 18.59375 0.171875 17.628906 0 16.921875 -0.34375 C 16.222656 -0.6875 15.707031 -1.21875 15.375 -1.9375 C 14.800781 -1.070312 14.113281 -0.503906 13.3125 -0.234375 C 12.519531 0.0351562 11.394531 0.171875 9.9375 0.171875 C 9.4375 0.171875 8.90625 0.113281 8.34375 0 C 7.789062 -0.113281 7.273438 -0.34375 6.796875 -0.6875 C 6.316406 -1.039062 5.945312 -1.5625 5.6875 -2.25 C 5.0625 -1.195312 4.289062 -0.53125 3.375 -0.25 C 2.457031 0.03125 1.332031 0.171875 0 0.171875 Z M 0 0.171875 "/></g></g></g><g fill="#000000" fill-opacity="1"><g transform="translate(653.105113, 113.086978)"><g><path d="M 0 0.171875 L 0.359375 -2.75 C 1.140625 -2.75 2.035156 -2.753906 3.046875 -2.765625 C 4.066406 -2.785156 5.050781 -2.835938 6 -2.921875 C 6.957031 -3.003906 7.710938 -3.140625 8.265625 -3.328125 C 9.023438 -3.585938 9.632812 -3.925781 10.09375 -4.34375 C 10.5625 -4.757812 10.914062 -5.300781 11.15625 -5.96875 C 10.726562 -5.832031 10.269531 -5.734375 9.78125 -5.671875 C 9.289062 -5.609375 8.804688 -5.578125 8.328125 -5.578125 C 6.492188 -5.578125 5.085938 -6.003906 4.109375 -6.859375 C 3.128906 -7.722656 2.640625 -8.8125 2.640625 -10.125 C 2.640625 -11.03125 2.78125 -11.941406 3.0625 -12.859375 C 3.351562 -13.773438 3.757812 -14.613281 4.28125 -15.375 C 4.8125 -16.144531 5.445312 -16.757812 6.1875 -17.21875 C 6.925781 -17.6875 7.75 -17.921875 8.65625 -17.921875 C 9.945312 -17.921875 11.015625 -17.492188 11.859375 -16.640625 C 12.703125 -15.796875 13.332031 -14.707031 13.75 -13.375 C 14.164062 -12.039062 14.375 -10.625 14.375 -9.125 C 14.375 -7.332031 14.066406 -5.796875 13.453125 -4.515625 C 12.847656 -3.242188 11.84375 -2.191406 10.4375 -1.359375 C 9.695312 -0.929688 8.773438 -0.601562 7.671875 -0.375 C 6.566406 -0.144531 5.359375 0 4.046875 0.0625 C 2.734375 0.132812 1.382812 0.171875 0 0.171875 Z M 5.46875 -10.84375 C 5.46875 -10.101562 5.707031 -9.507812 6.1875 -9.0625 C 6.664062 -8.625 7.488281 -8.40625 8.65625 -8.40625 C 9.675781 -8.40625 10.65625 -8.546875 11.59375 -8.828125 C 11.59375 -8.972656 11.59375 -9.140625 11.59375 -9.328125 C 11.59375 -10.304688 11.457031 -11.226562 11.1875 -12.09375 C 10.925781 -12.96875 10.554688 -13.664062 10.078125 -14.1875 C 9.609375 -14.71875 9.039062 -14.984375 8.375 -14.984375 C 7.800781 -14.984375 7.296875 -14.773438 6.859375 -14.359375 C 6.429688 -13.941406 6.09375 -13.410156 5.84375 -12.765625 C 5.59375 -12.117188 5.46875 -11.476562 5.46875 -10.84375 Z M 10.484375 -21.609375 C 9.972656 -21.609375 9.546875 -21.78125 9.203125 -22.125 C 8.859375 -22.46875 8.6875 -22.878906 8.6875 -23.359375 C 8.6875 -23.835938 8.859375 -24.253906 9.203125 -24.609375 C 9.546875 -24.960938 9.972656 -25.140625 10.484375 -25.140625 C 10.953125 -25.140625 11.359375 -24.960938 11.703125 -24.609375 C 12.054688 -24.253906 12.234375 -23.835938 12.234375 -23.359375 C 12.234375 -22.878906 12.054688 -22.46875 11.703125 -22.125 C 11.359375 -21.78125 10.953125 -21.609375 10.484375 -21.609375 Z M 5.578125 -21.609375 C 5.078125 -21.609375 4.65625 -21.78125 4.3125 -22.125 C 3.96875 -22.46875 3.796875 -22.878906 3.796875 -23.359375 C 3.796875 -23.835938 3.96875 -24.253906 4.3125 -24.609375 C 4.65625 -24.960938 5.078125 -25.140625 5.578125 -25.140625 C 6.054688 -25.140625 6.46875 -24.960938 6.8125 -24.609375 C 7.15625 -24.253906 7.328125 -23.835938 7.328125 -23.359375 C 7.328125 -22.878906 7.15625 -22.46875 6.8125 -22.125 C 6.46875 -21.78125 6.054688 -21.609375 5.578125 -21.609375 Z M 5.578125 -21.609375 "/></g></g></g><g fill="#000000" fill-opacity="1"><g transform="translate(669.088774, 113.086978)"><g><path d="M 3.296875 0 L 2.578125 -25.53125 L 5.46875 -25.53125 L 6.1875 0 Z M 3.296875 0 "/></g></g></g><g fill="#000000" fill-opacity="1"><g transform="translate(677.599093, 113.086978)"><g/></g></g><g fill="#000000" fill-opacity="1"><g transform="translate(686.363918, 113.086978)"><g><path d="M 1.078125 0.03125 C 1.078125 -0.820312 1.191406 -1.773438 1.421875 -2.828125 C 1.660156 -3.878906 2.046875 -5.035156 2.578125 -6.296875 L 5.15625 -5.296875 C 4.769531 -4.296875 4.476562 -3.375 4.28125 -2.53125 C 4.09375 -1.695312 4 -0.925781 4 -0.21875 C 4 1.113281 4.382812 2.191406 5.15625 3.015625 C 5.9375 3.835938 6.960938 4.441406 8.234375 4.828125 C 9.515625 5.210938 10.921875 5.40625 12.453125 5.40625 C 14.285156 5.40625 15.957031 5.195312 17.46875 4.78125 C 18.988281 4.363281 20.195312 3.796875 21.09375 3.078125 C 22 2.359375 22.453125 1.570312 22.453125 0.71875 C 22.453125 0.09375 21.972656 -0.441406 21.015625 -0.890625 C 20.066406 -1.347656 18.738281 -1.8125 17.03125 -2.28125 L 17.703125 -5.25 C 20.160156 -4.28125 22.085938 -3.617188 23.484375 -3.265625 C 24.878906 -2.921875 25.945312 -2.75 26.6875 -2.75 C 27.1875 -2.75 27.546875 -2.613281 27.765625 -2.34375 C 27.992188 -2.070312 28.109375 -1.742188 28.109375 -1.359375 C 28.109375 -0.972656 27.941406 -0.617188 27.609375 -0.296875 C 27.273438 0.015625 26.847656 0.171875 26.328125 0.171875 L 25 0.171875 C 25.019531 0.390625 25.046875 0.5625 25.078125 0.6875 C 25.117188 0.820312 25.140625 1 25.140625 1.21875 C 25.140625 2.382812 24.601562 3.507812 23.53125 4.59375 C 22.457031 5.675781 20.910156 6.5625 18.890625 7.25 C 16.878906 7.945312 14.46875 8.296875 11.65625 8.296875 C 9.75 8.296875 7.992188 8 6.390625 7.40625 C 4.796875 6.8125 3.507812 5.898438 2.53125 4.671875 C 1.5625 3.441406 1.078125 1.894531 1.078125 0.03125 Z M 1.078125 0.03125 "/></g></g></g><g fill="#000000" fill-opacity="1"><g transform="translate(712.68155, 113.086978)"><g><path d="M 0 0.171875 L 0.359375 -2.75 L 3.71875 -2.75 C 5.101562 -2.75 6.210938 -2.828125 7.046875 -2.984375 C 7.878906 -3.140625 8.492188 -3.34375 8.890625 -3.59375 C 9.285156 -3.84375 9.546875 -4.113281 9.671875 -4.40625 C 9.804688 -4.707031 9.875 -5.015625 9.875 -5.328125 C 9.875 -5.878906 9.664062 -6.554688 9.25 -7.359375 C 8.832031 -8.171875 7.976562 -9.222656 6.6875 -10.515625 C 5.800781 -11.421875 4.914062 -12.21875 4.03125 -12.90625 C 3.15625 -13.601562 2.429688 -14.1875 1.859375 -14.65625 C 1.285156 -15.132812 1 -15.484375 1 -15.703125 C 1 -16.253906 1.054688 -16.765625 1.171875 -17.234375 C 1.296875 -17.710938 1.488281 -18.082031 1.75 -18.34375 C 2.707031 -19.375 4.203125 -20.398438 6.234375 -21.421875 C 8.273438 -22.453125 10.820312 -23.738281 13.875 -25.28125 L 15.09375 -22.640625 C 12.925781 -21.585938 11.15625 -20.722656 9.78125 -20.046875 C 8.40625 -19.367188 7.269531 -18.769531 6.375 -18.25 C 5.488281 -17.738281 4.664062 -17.222656 3.90625 -16.703125 C 6.6875 -14.441406 8.820312 -12.410156 10.3125 -10.609375 C 11.800781 -8.804688 12.546875 -6.988281 12.546875 -5.15625 C 12.546875 -4.625 12.453125 -4.046875 12.265625 -3.421875 C 12.078125 -2.804688 11.671875 -2.222656 11.046875 -1.671875 C 10.429688 -1.128906 9.503906 -0.6875 8.265625 -0.34375 C 7.023438 0 5.351562 0.171875 3.25 0.171875 Z M 0 0.171875 "/></g></g></g><g fill="#000000" fill-opacity="1"><g transform="translate(727.441704, 113.086978)"><g/></g></g><g fill="#000000" fill-opacity="1"><g transform="translate(736.206528, 113.086978)"><g/></g></g><g fill="#000000" fill-opacity="1"><g transform="translate(744.995469, 113.086978)"><g><path d="M 1.25 -1.609375 L 2.6875 -4.078125 C 3.15625 -3.742188 3.816406 -3.4375 4.671875 -3.15625 C 5.535156 -2.882812 6.539062 -2.75 7.6875 -2.75 C 9.457031 -2.75 10.707031 -3.015625 11.4375 -3.546875 C 12.175781 -4.085938 12.546875 -4.835938 12.546875 -5.796875 C 12.546875 -6.273438 12.445312 -6.863281 12.25 -7.5625 C 12.050781 -8.269531 11.613281 -9.222656 10.9375 -10.421875 C 10.269531 -11.628906 9.25 -13.210938 7.875 -15.171875 L 10.34375 -16.78125 C 12.21875 -14.15625 13.535156 -11.921875 14.296875 -10.078125 C 15.066406 -8.242188 15.453125 -6.753906 15.453125 -5.609375 C 15.453125 -4.640625 15.210938 -3.710938 14.734375 -2.828125 C 14.253906 -1.941406 13.453125 -1.210938 12.328125 -0.640625 C 11.210938 -0.0664062 9.664062 0.21875 7.6875 0.21875 C 6.375 0.21875 5.15625 0.0546875 4.03125 -0.265625 C 2.914062 -0.585938 1.988281 -1.035156 1.25 -1.609375 Z M 1.25 -1.609375 "/></g></g></g><g fill="#000000" fill-opacity="1"><g transform="translate(762.051874, 113.086978)"><g><path d="M 7.6875 -2.75 C 9.457031 -2.75 10.707031 -3.015625 11.4375 -3.546875 C 12.175781 -4.085938 12.546875 -4.835938 12.546875 -5.796875 C 12.546875 -6.410156 12.332031 -7.207031 11.90625 -8.1875 C 11.476562 -9.164062 10.910156 -10.253906 10.203125 -11.453125 C 9.503906 -12.660156 8.726562 -13.898438 7.875 -15.171875 L 10.34375 -16.78125 C 11.71875 -14.65625 12.835938 -12.710938 13.703125 -10.953125 C 14.578125 -9.203125 15.234375 -7.625 15.671875 -6.21875 C 16.003906 -5.175781 16.378906 -4.398438 16.796875 -3.890625 C 17.210938 -3.390625 17.644531 -3.070312 18.09375 -2.9375 C 18.550781 -2.8125 18.96875 -2.75 19.34375 -2.75 C 19.84375 -2.75 20.210938 -2.613281 20.453125 -2.34375 C 20.691406 -2.070312 20.8125 -1.742188 20.8125 -1.359375 C 20.8125 -0.972656 20.644531 -0.617188 20.3125 -0.296875 C 19.976562 0.015625 19.550781 0.171875 19.03125 0.171875 C 18.09375 0.171875 17.195312 -0.0234375 16.34375 -0.421875 C 15.488281 -0.828125 14.796875 -1.519531 14.265625 -2.5 C 13.796875 -1.71875 13.039062 -1.066406 12 -0.546875 C 10.957031 -0.0351562 9.519531 0.21875 7.6875 0.21875 C 6.375 0.21875 5.15625 0.0546875 4.03125 -0.265625 C 2.914062 -0.585938 1.988281 -1.035156 1.25 -1.609375 L 2.6875 -4.078125 C 3.15625 -3.742188 3.816406 -3.4375 4.671875 -3.15625 C 5.535156 -2.882812 6.539062 -2.75 7.6875 -2.75 Z M 7.6875 -2.75 "/></g></g></g><g fill="#000000" fill-opacity="1"><g transform="translate(781.074933, 113.086978)"><g><path d="M 0 0.171875 L 0.359375 -2.75 C 1.859375 -2.75 3.019531 -2.757812 3.84375 -2.78125 C 4.664062 -2.8125 5.265625 -2.84375 5.640625 -2.875 C 6.023438 -2.914062 6.289062 -2.9375 6.4375 -2.9375 C 6.007812 -3.175781 5.507812 -3.550781 4.9375 -4.0625 C 4.363281 -4.570312 3.863281 -5.222656 3.4375 -6.015625 C 3.007812 -6.816406 2.796875 -7.769531 2.796875 -8.875 C 2.796875 -10.207031 3.109375 -11.390625 3.734375 -12.421875 C 4.367188 -13.460938 5.238281 -14.269531 6.34375 -14.84375 C 7.457031 -15.414062 8.726562 -15.703125 10.15625 -15.703125 C 11.300781 -15.703125 12.484375 -15.507812 13.703125 -15.125 L 13.09375 -12.375 C 12.09375 -12.632812 11.113281 -12.765625 10.15625 -12.765625 C 8.84375 -12.765625 7.773438 -12.410156 6.953125 -11.703125 C 6.128906 -11.003906 5.71875 -10.0625 5.71875 -8.875 C 5.71875 -8.082031 5.921875 -7.378906 6.328125 -6.765625 C 6.734375 -6.160156 7.238281 -5.648438 7.84375 -5.234375 C 8.457031 -4.816406 9.09375 -4.5 9.75 -4.28125 C 10.40625 -4.070312 10.992188 -3.976562 11.515625 -4 C 11.898438 -4.125 12.25 -4.238281 12.5625 -4.34375 C 12.882812 -4.445312 13.289062 -4.59375 13.78125 -4.78125 C 14.269531 -4.976562 14.984375 -5.289062 15.921875 -5.71875 L 16.921875 -3.109375 C 15.316406 -2.460938 13.6875 -1.890625 12.03125 -1.390625 C 10.375 -0.890625 8.570312 -0.503906 6.625 -0.234375 C 4.6875 0.0351562 2.476562 0.171875 0 0.171875 Z M 0 0.171875 "/></g></g></g></svg>