<svg xmlns="http://www.w3.org/2000/svg" xmlns:xlink="http://www.w3.org/1999/xlink" width="514" zoomAndPan="magnify" viewBox="0 0 385.5 443.999984" height="592" preserveAspectRatio="xMidYMid meet" version="1.0"><defs><g/><clipPath id="ecf553a56a"><path d="M 137.203125 0.289062 L 366.496094 0.289062 L 366.496094 51.066406 L 137.203125 51.066406 Z M 137.203125 0.289062 " clip-rule="nonzero"/></clipPath><clipPath id="227d092fdc"><path d="M 159.675781 0.289062 L 343.988281 0.289062 C 356.398438 0.289062 366.460938 10.347656 366.460938 22.757812 L 366.460938 28.59375 C 366.460938 41.003906 356.398438 51.066406 343.988281 51.066406 L 159.675781 51.066406 C 147.265625 51.066406 137.203125 41.003906 137.203125 28.59375 L 137.203125 22.757812 C 137.203125 10.347656 147.265625 0.289062 159.675781 0.289062 Z M 159.675781 0.289062 " clip-rule="nonzero"/></clipPath><clipPath id="821b69a439"><path d="M 206.980469 110.988281 L 296.832031 110.988281 L 296.832031 161.765625 L 206.980469 161.765625 Z M 206.980469 110.988281 " clip-rule="nonzero"/></clipPath><clipPath id="0a5ecabb8a"><path d="M 229.453125 110.988281 L 274.210938 110.988281 C 286.621094 110.988281 296.683594 121.046875 296.683594 133.457031 L 296.683594 139.292969 C 296.683594 151.703125 286.621094 161.765625 274.210938 161.765625 L 229.453125 161.765625 C 217.042969 161.765625 206.980469 151.703125 206.980469 139.292969 L 206.980469 133.457031 C 206.980469 121.046875 217.042969 110.988281 229.453125 110.988281 Z M 229.453125 110.988281 " clip-rule="nonzero"/></clipPath><clipPath id="5c84120750"><path d="M 276.757812 234.734375 L 366.503906 234.734375 L 366.503906 297.851562 L 276.757812 297.851562 Z M 276.757812 234.734375 " clip-rule="nonzero"/></clipPath><clipPath id="dc749522dd"><path d="M 299.230469 234.734375 L 343.988281 234.734375 C 356.398438 234.734375 366.460938 244.792969 366.460938 257.203125 L 366.460938 275.382812 C 366.460938 287.792969 356.398438 297.851562 343.988281 297.851562 L 299.230469 297.851562 C 286.820312 297.851562 276.757812 287.792969 276.757812 275.382812 L 276.757812 257.203125 C 276.757812 244.792969 286.820312 234.734375 299.230469 234.734375 Z M 299.230469 234.734375 " clip-rule="nonzero"/></clipPath><clipPath id="90f9734027"><path d="M 137.203125 234.734375 L 226.949219 234.734375 L 226.949219 297.851562 L 137.203125 297.851562 Z M 137.203125 234.734375 " clip-rule="nonzero"/></clipPath><clipPath id="cceb69e943"><path d="M 159.675781 234.734375 L 204.433594 234.734375 C 216.84375 234.734375 226.90625 244.792969 226.90625 257.203125 L 226.90625 275.382812 C 226.90625 287.792969 216.84375 297.851562 204.433594 297.851562 L 159.675781 297.851562 C 147.265625 297.851562 137.203125 287.792969 137.203125 275.382812 L 137.203125 257.203125 C 137.203125 244.792969 147.265625 234.734375 159.675781 234.734375 Z M 159.675781 234.734375 " clip-rule="nonzero"/></clipPath><clipPath id="ed8aaa47f7"><path d="M 137.203125 380.355469 L 226.949219 380.355469 L 226.949219 443.472656 L 137.203125 443.472656 Z M 137.203125 380.355469 " clip-rule="nonzero"/></clipPath><clipPath id="d9c5713899"><path d="M 159.675781 380.355469 L 204.433594 380.355469 C 216.84375 380.355469 226.90625 390.414062 226.90625 402.824219 L 226.90625 421.003906 C 226.90625 433.414062 216.84375 443.472656 204.433594 443.472656 L 159.675781 443.472656 C 147.265625 443.472656 137.203125 433.414062 137.203125 421.003906 L 137.203125 402.824219 C 137.203125 390.414062 147.265625 380.355469 159.675781 380.355469 Z M 159.675781 380.355469 " clip-rule="nonzero"/></clipPath><clipPath id="546249cb26"><path d="M 0 380.355469 L 89.746094 380.355469 L 89.746094 443.472656 L 0 443.472656 Z M 0 380.355469 " clip-rule="nonzero"/></clipPath><clipPath id="a941ad1c72"><path d="M 22.472656 380.355469 L 67.230469 380.355469 C 79.640625 380.355469 89.699219 390.414062 89.699219 402.824219 L 89.699219 421.003906 C 89.699219 433.414062 79.640625 443.472656 67.230469 443.472656 L 22.472656 443.472656 C 10.058594 443.472656 0 433.414062 0 421.003906 L 0 402.824219 C 0 390.414062 10.058594 380.355469 22.472656 380.355469 Z M 22.472656 380.355469 " clip-rule="nonzero"/></clipPath><clipPath id="71e9df3905"><path d="M 295.066406 380.355469 L 384.8125 380.355469 L 384.8125 443.472656 L 295.066406 443.472656 Z M 295.066406 380.355469 " clip-rule="nonzero"/></clipPath><clipPath id="08e35e63c8"><path d="M 317.539062 380.355469 L 362.296875 380.355469 C 374.707031 380.355469 384.765625 390.414062 384.765625 402.824219 L 384.765625 421.003906 C 384.765625 433.414062 374.707031 443.472656 362.296875 443.472656 L 317.539062 443.472656 C 305.125 443.472656 295.066406 433.414062 295.066406 421.003906 L 295.066406 402.824219 C 295.066406 390.414062 305.125 380.355469 317.539062 380.355469 Z M 317.539062 380.355469 " clip-rule="nonzero"/></clipPath></defs><g clip-path="url(#ecf553a56a)"><g clip-path="url(#227d092fdc)"><path fill="#545454" d="M 137.203125 0.289062 L 366.496094 0.289062 L 366.496094 51.066406 L 137.203125 51.066406 Z M 137.203125 0.289062 " fill-opacity="1" fill-rule="nonzero"/></g></g><g fill="#ffffff" fill-opacity="1"><g transform="translate(198.273335, 22.009382)"><g/></g></g><g fill="#ffffff" fill-opacity="1"><g transform="translate(201.210931, 22.009382)"><g><path d="M 4.421875 0.15625 C 3.421875 0.15625 2.566406 0.128906 1.859375 0.078125 C 1.148438 0.0234375 0.609375 -0.0234375 0.234375 -0.078125 L 0.34375 -1 C 0.5625 -0.96875 0.804688 -0.941406 1.078125 -0.921875 C 1.347656 -0.910156 1.648438 -0.894531 1.984375 -0.875 C 2.148438 -1.144531 2.335938 -1.410156 2.546875 -1.671875 L 2.3125 -8.5625 L 3.28125 -8.5625 L 3.5 -2.78125 C 3.976562 -3.257812 4.5 -3.660156 5.0625 -3.984375 C 5.625 -4.316406 6.195312 -4.484375 6.78125 -4.484375 C 7.21875 -4.484375 7.59375 -4.390625 7.90625 -4.203125 C 8.226562 -4.023438 8.472656 -3.785156 8.640625 -3.484375 C 8.816406 -3.179688 8.90625 -2.835938 8.90625 -2.453125 C 8.90625 -1.984375 8.765625 -1.550781 8.484375 -1.15625 C 8.210938 -0.757812 7.75 -0.441406 7.09375 -0.203125 C 6.4375 0.0351562 5.546875 0.15625 4.421875 0.15625 Z M 6.71875 -3.5 C 6.34375 -3.5 5.972656 -3.40625 5.609375 -3.21875 C 5.242188 -3.039062 4.898438 -2.8125 4.578125 -2.53125 C 4.253906 -2.25 3.957031 -1.957031 3.6875 -1.65625 C 3.414062 -1.351562 3.195312 -1.082031 3.03125 -0.84375 C 3.28125 -0.84375 3.535156 -0.835938 3.796875 -0.828125 C 4.066406 -0.828125 4.347656 -0.828125 4.640625 -0.828125 C 5.691406 -0.828125 6.507812 -0.957031 7.09375 -1.21875 C 7.6875 -1.476562 7.984375 -1.859375 7.984375 -2.359375 C 7.984375 -2.523438 7.9375 -2.695312 7.84375 -2.875 C 7.757812 -3.050781 7.625 -3.195312 7.4375 -3.3125 C 7.257812 -3.4375 7.019531 -3.5 6.71875 -3.5 Z M 9.96875 0.0625 C 9.757812 0.0625 9.492188 0.0390625 9.171875 0 C 8.859375 -0.0507812 8.539062 -0.128906 8.21875 -0.234375 C 7.894531 -0.347656 7.625 -0.503906 7.40625 -0.703125 L 8.375 -1.203125 C 8.65625 -1.085938 8.945312 -1.007812 9.25 -0.96875 C 9.550781 -0.9375 9.828125 -0.921875 10.078125 -0.921875 C 10.242188 -0.921875 10.363281 -0.875 10.4375 -0.78125 C 10.519531 -0.6875 10.5625 -0.578125 10.5625 -0.453125 C 10.5625 -0.328125 10.503906 -0.207031 10.390625 -0.09375 C 10.285156 0.0078125 10.144531 0.0625 9.96875 0.0625 Z M 6.1875 -5.71875 C 6.019531 -5.71875 5.878906 -5.773438 5.765625 -5.890625 C 5.648438 -6.003906 5.59375 -6.144531 5.59375 -6.3125 C 5.59375 -6.46875 5.648438 -6.601562 5.765625 -6.71875 C 5.878906 -6.84375 6.019531 -6.90625 6.1875 -6.90625 C 6.351562 -6.90625 6.492188 -6.84375 6.609375 -6.71875 C 6.722656 -6.601562 6.78125 -6.46875 6.78125 -6.3125 C 6.78125 -6.144531 6.722656 -6.003906 6.609375 -5.890625 C 6.492188 -5.773438 6.351562 -5.71875 6.1875 -5.71875 Z M 6.1875 -5.71875 "/></g></g></g><g fill="#ffffff" fill-opacity="1"><g transform="translate(211.170029, 22.009382)"><g><path d="M 0 0.0625 L 0.125 -0.921875 C 0.394531 -0.921875 0.675781 -0.925781 0.96875 -0.9375 C 1.257812 -0.945312 1.539062 -0.96875 1.8125 -1 C 1.613281 -1.175781 1.421875 -1.398438 1.234375 -1.671875 C 1.054688 -1.953125 0.96875 -2.296875 0.96875 -2.703125 C 0.96875 -3.117188 1.066406 -3.5 1.265625 -3.84375 C 1.460938 -4.195312 1.71875 -4.472656 2.03125 -4.671875 C 2.351562 -4.867188 2.695312 -4.96875 3.0625 -4.96875 C 3.457031 -4.96875 3.800781 -4.859375 4.09375 -4.640625 C 4.394531 -4.429688 4.625 -4.160156 4.78125 -3.828125 C 4.945312 -3.492188 5.03125 -3.148438 5.03125 -2.796875 C 5.03125 -2.421875 4.953125 -2.082031 4.796875 -1.78125 C 4.648438 -1.488281 4.445312 -1.226562 4.1875 -1 C 4.507812 -0.976562 4.835938 -0.957031 5.171875 -0.9375 C 5.515625 -0.925781 5.804688 -0.921875 6.046875 -0.921875 C 6.210938 -0.921875 6.332031 -0.875 6.40625 -0.78125 C 6.488281 -0.6875 6.53125 -0.578125 6.53125 -0.453125 C 6.53125 -0.328125 6.472656 -0.207031 6.359375 -0.09375 C 6.253906 0.0078125 6.113281 0.0625 5.9375 0.0625 C 5.445312 0.0625 4.9375 0.0234375 4.40625 -0.046875 C 3.882812 -0.128906 3.421875 -0.222656 3.015625 -0.328125 C 2.890625 -0.285156 2.757812 -0.242188 2.625 -0.203125 C 2.257812 -0.0976562 1.835938 -0.03125 1.359375 0 C 0.890625 0.0390625 0.4375 0.0625 0 0.0625 Z M 1.953125 -2.671875 C 1.953125 -2.359375 2.046875 -2.082031 2.234375 -1.84375 C 2.429688 -1.613281 2.648438 -1.425781 2.890625 -1.28125 C 3.210938 -1.425781 3.484375 -1.617188 3.703125 -1.859375 C 3.929688 -2.097656 4.046875 -2.382812 4.046875 -2.71875 C 4.046875 -2.90625 4 -3.09375 3.90625 -3.28125 C 3.820312 -3.476562 3.703125 -3.644531 3.546875 -3.78125 C 3.398438 -3.914062 3.226562 -3.984375 3.03125 -3.984375 C 2.84375 -3.984375 2.664062 -3.914062 2.5 -3.78125 C 2.332031 -3.65625 2.195312 -3.492188 2.09375 -3.296875 C 2 -3.097656 1.953125 -2.890625 1.953125 -2.671875 Z M 2.953125 -6.203125 C 2.785156 -6.203125 2.644531 -6.257812 2.53125 -6.375 C 2.414062 -6.488281 2.359375 -6.628906 2.359375 -6.796875 C 2.359375 -6.953125 2.414062 -7.085938 2.53125 -7.203125 C 2.644531 -7.328125 2.785156 -7.390625 2.953125 -7.390625 C 3.117188 -7.390625 3.257812 -7.328125 3.375 -7.203125 C 3.488281 -7.085938 3.546875 -6.953125 3.546875 -6.796875 C 3.546875 -6.628906 3.488281 -6.488281 3.375 -6.375 C 3.257812 -6.257812 3.117188 -6.203125 2.953125 -6.203125 Z M 2.953125 -6.203125 "/></g></g></g><g fill="#ffffff" fill-opacity="1"><g transform="translate(217.102344, 22.009382)"><g><path d="M 0 0.0625 L 0.109375 -0.921875 C 0.566406 -0.921875 0.882812 -0.960938 1.0625 -1.046875 C 1.25 -1.140625 1.351562 -1.296875 1.375 -1.515625 C 1.40625 -1.734375 1.414062 -2.046875 1.40625 -2.453125 L 1.171875 -8.5625 L 2.140625 -8.5625 L 2.390625 -2.5625 C 2.410156 -2 2.367188 -1.519531 2.265625 -1.125 C 2.171875 -0.738281 1.945312 -0.441406 1.59375 -0.234375 C 1.25 -0.0351562 0.71875 0.0625 0 0.0625 Z M 0 0.0625 "/></g></g></g><g fill="#ffffff" fill-opacity="1"><g transform="translate(220.218306, 22.009382)"><g/></g><g transform="translate(223.155902, 22.009382)"><g><path d="M 5.78125 -5.09375 L 0.75 -5.09375 L 0.75 -5.90625 L 5.78125 -5.90625 Z M 5.78125 -2.65625 L 0.75 -2.65625 L 0.75 -3.46875 L 5.78125 -3.46875 Z M 5.78125 -2.65625 "/></g></g><g transform="translate(229.709901, 22.009382)"><g/></g></g><g fill="#ffffff" fill-opacity="1"><g transform="translate(232.647497, 22.009382)"><g><path d="M 4.671875 0.25 C 3.253906 0.25 2.179688 0.0664062 1.453125 -0.296875 C 0.722656 -0.671875 0.359375 -1.300781 0.359375 -2.1875 C 0.359375 -2.476562 0.394531 -2.789062 0.46875 -3.125 C 0.539062 -3.457031 0.613281 -3.769531 0.6875 -4.0625 L 1.59375 -3.828125 C 1.539062 -3.660156 1.484375 -3.4375 1.421875 -3.15625 C 1.367188 -2.882812 1.34375 -2.648438 1.34375 -2.453125 C 1.34375 -2.035156 1.445312 -1.703125 1.65625 -1.453125 C 1.875 -1.203125 2.242188 -1.019531 2.765625 -0.90625 C 3.296875 -0.789062 4.035156 -0.734375 4.984375 -0.734375 C 6.847656 -0.734375 8.207031 -0.832031 9.0625 -1.03125 C 9.925781 -1.238281 10.359375 -1.617188 10.359375 -2.171875 C 10.359375 -2.460938 10.300781 -2.8125 10.1875 -3.21875 C 10.070312 -3.625 9.925781 -4.050781 9.75 -4.5 L 10.671875 -4.828125 C 10.828125 -4.441406 10.96875 -4.023438 11.09375 -3.578125 C 11.226562 -3.128906 11.296875 -2.722656 11.296875 -2.359375 C 11.296875 -1.890625 11.1875 -1.488281 10.96875 -1.15625 C 10.757812 -0.820312 10.398438 -0.550781 9.890625 -0.34375 C 9.390625 -0.132812 8.710938 0.015625 7.859375 0.109375 C 7.015625 0.203125 5.953125 0.25 4.671875 0.25 Z M 6.671875 -4.796875 C 6.503906 -4.796875 6.363281 -4.851562 6.25 -4.96875 C 6.132812 -5.082031 6.078125 -5.222656 6.078125 -5.390625 C 6.078125 -5.546875 6.132812 -5.679688 6.25 -5.796875 C 6.363281 -5.921875 6.503906 -5.984375 6.671875 -5.984375 C 6.835938 -5.984375 6.976562 -5.921875 7.09375 -5.796875 C 7.207031 -5.679688 7.265625 -5.546875 7.265625 -5.390625 C 7.265625 -5.222656 7.207031 -5.082031 7.09375 -4.96875 C 6.976562 -4.851562 6.835938 -4.796875 6.671875 -4.796875 Z M 5.03125 -4.796875 C 4.863281 -4.796875 4.722656 -4.851562 4.609375 -4.96875 C 4.492188 -5.082031 4.4375 -5.222656 4.4375 -5.390625 C 4.4375 -5.546875 4.492188 -5.679688 4.609375 -5.796875 C 4.722656 -5.921875 4.863281 -5.984375 5.03125 -5.984375 C 5.195312 -5.984375 5.335938 -5.921875 5.453125 -5.796875 C 5.566406 -5.679688 5.625 -5.546875 5.625 -5.390625 C 5.625 -5.222656 5.566406 -5.082031 5.453125 -4.96875 C 5.335938 -4.851562 5.195312 -4.796875 5.03125 -4.796875 Z M 5.03125 -4.796875 "/></g></g></g><g fill="#ffffff" fill-opacity="1"><g transform="translate(244.548084, 22.009382)"><g><path d="M 3.484375 0.0625 C 2.835938 0.0625 2.347656 -0.0078125 2.015625 -0.15625 C 1.679688 -0.300781 1.445312 -0.523438 1.3125 -0.828125 C 1.1875 -1.128906 1.117188 -1.519531 1.109375 -2 L 0.859375 -8.5625 L 1.84375 -8.5625 L 2.078125 -2.390625 C 2.097656 -1.992188 2.132812 -1.6875 2.1875 -1.46875 C 2.25 -1.257812 2.382812 -1.113281 2.59375 -1.03125 C 2.8125 -0.957031 3.148438 -0.921875 3.609375 -0.921875 C 3.773438 -0.921875 3.894531 -0.875 3.96875 -0.78125 C 4.050781 -0.6875 4.09375 -0.578125 4.09375 -0.453125 C 4.09375 -0.328125 4.035156 -0.207031 3.921875 -0.09375 C 3.804688 0.0078125 3.660156 0.0625 3.484375 0.0625 Z M 3.484375 0.0625 "/></g></g></g><g fill="#ffffff" fill-opacity="1"><g transform="translate(248.035565, 22.009382)"><g><path d="M 0 0.0625 L 0.125 -0.921875 L 1.25 -0.921875 C 1.707031 -0.921875 2.078125 -0.945312 2.359375 -1 C 2.640625 -1.050781 2.84375 -1.117188 2.96875 -1.203125 C 3.101562 -1.285156 3.191406 -1.375 3.234375 -1.46875 C 3.285156 -1.570312 3.3125 -1.675781 3.3125 -1.78125 C 3.3125 -1.96875 3.238281 -2.195312 3.09375 -2.46875 C 2.957031 -2.738281 2.671875 -3.085938 2.234375 -3.515625 C 1.941406 -3.828125 1.644531 -4.097656 1.34375 -4.328125 C 1.050781 -4.554688 0.804688 -4.75 0.609375 -4.90625 C 0.421875 -5.070312 0.328125 -5.191406 0.328125 -5.265625 C 0.328125 -5.441406 0.347656 -5.609375 0.390625 -5.765625 C 0.429688 -5.929688 0.5 -6.054688 0.59375 -6.140625 C 0.90625 -6.484375 1.398438 -6.828125 2.078125 -7.171875 C 2.765625 -7.515625 3.625 -7.945312 4.65625 -8.46875 L 5.0625 -7.59375 C 4.332031 -7.238281 3.738281 -6.945312 3.28125 -6.71875 C 2.820312 -6.488281 2.441406 -6.285156 2.140625 -6.109375 C 1.835938 -5.941406 1.5625 -5.769531 1.3125 -5.59375 C 2.238281 -4.832031 2.953125 -4.148438 3.453125 -3.546875 C 3.953125 -2.953125 4.203125 -2.34375 4.203125 -1.71875 C 4.203125 -1.550781 4.171875 -1.363281 4.109375 -1.15625 C 4.046875 -0.945312 3.910156 -0.75 3.703125 -0.5625 C 3.492188 -0.375 3.179688 -0.222656 2.765625 -0.109375 C 2.347656 0.00390625 1.789062 0.0625 1.09375 0.0625 Z M 0 0.0625 "/></g></g></g><g fill="#ffffff" fill-opacity="1"><g transform="translate(252.493791, 22.009382)"><g><path d="M 0.046875 2.78125 L -0.296875 1.875 C 0.472656 1.613281 1.078125 1.304688 1.515625 0.953125 C 1.953125 0.609375 2.257812 0.242188 2.4375 -0.140625 C 2.613281 -0.535156 2.703125 -0.914062 2.703125 -1.28125 C 2.703125 -1.675781 2.613281 -2.070312 2.4375 -2.46875 C 2.269531 -2.875 2.082031 -3.257812 1.875 -3.625 L 2.75 -4.0625 C 2.976562 -3.632812 3.171875 -3.222656 3.328125 -2.828125 C 3.484375 -2.441406 3.601562 -2.101562 3.6875 -1.8125 C 3.800781 -1.46875 3.945312 -1.234375 4.125 -1.109375 C 4.300781 -0.984375 4.546875 -0.921875 4.859375 -0.921875 C 5.035156 -0.921875 5.160156 -0.875 5.234375 -0.78125 C 5.304688 -0.6875 5.34375 -0.578125 5.34375 -0.453125 C 5.34375 -0.328125 5.285156 -0.207031 5.171875 -0.09375 C 5.066406 0.0078125 4.925781 0.0625 4.75 0.0625 C 4.445312 0.0625 4.191406 0.015625 3.984375 -0.078125 C 3.773438 -0.179688 3.609375 -0.3125 3.484375 -0.46875 C 3.410156 -0.0195312 3.242188 0.382812 2.984375 0.75 C 2.722656 1.125 2.421875 1.445312 2.078125 1.71875 C 1.734375 2 1.378906 2.222656 1.015625 2.390625 C 0.660156 2.566406 0.335938 2.695312 0.046875 2.78125 Z M 0.046875 2.78125 "/></g></g></g><g fill="#ffffff" fill-opacity="1"><g transform="translate(257.239646, 22.009382)"><g><path d="M 0 0.0625 L 0.109375 -0.921875 C 0.929688 -0.921875 1.726562 -1.039062 2.5 -1.28125 C 3.28125 -1.53125 3.988281 -1.878906 4.625 -2.328125 C 4.3125 -2.597656 3.925781 -2.816406 3.46875 -2.984375 C 3.019531 -3.148438 2.523438 -3.234375 1.984375 -3.234375 C 1.785156 -3.234375 1.609375 -3.222656 1.453125 -3.203125 C 1.304688 -3.179688 1.125 -3.148438 0.90625 -3.109375 L 0.71875 -4.015625 C 1.164062 -4.148438 1.585938 -4.21875 1.984375 -4.21875 C 2.398438 -4.21875 2.773438 -4.164062 3.109375 -4.0625 C 3.453125 -3.96875 3.757812 -3.847656 4.03125 -3.703125 C 4.3125 -3.554688 4.570312 -3.410156 4.8125 -3.265625 C 5.050781 -3.128906 5.285156 -3.007812 5.515625 -2.90625 C 5.753906 -2.800781 6 -2.75 6.25 -2.75 L 6.5 -2.75 L 6.578125 -1.890625 C 6.171875 -1.890625 5.800781 -1.820312 5.46875 -1.6875 C 5.132812 -1.5625 4.796875 -1.398438 4.453125 -1.203125 C 4.109375 -1.003906 3.734375 -0.804688 3.328125 -0.609375 C 2.929688 -0.421875 2.460938 -0.257812 1.921875 -0.125 C 1.390625 0 0.75 0.0625 0 0.0625 Z M 0 0.0625 "/></g></g></g><g fill="#ffffff" fill-opacity="1"><g transform="translate(264.29851, 22.009382)"><g><path d="M 3.5625 -4.6875 L 5.640625 -4.6875 L 5.640625 -3.875 L 3.5625 -3.875 L 3.5625 -1.765625 L 2.703125 -1.765625 L 2.703125 -3.875 L 0.609375 -3.875 L 0.609375 -4.6875 L 2.703125 -4.6875 L 2.703125 -6.796875 L 3.5625 -6.796875 Z M 3.5625 -4.6875 "/></g></g><g transform="translate(270.548216, 22.009382)"><g/></g></g><g fill="#ffffff" fill-opacity="1"><g transform="translate(273.485812, 22.009382)"><g><path d="M 4.671875 0.25 C 3.253906 0.25 2.179688 0.0664062 1.453125 -0.296875 C 0.722656 -0.671875 0.359375 -1.300781 0.359375 -2.1875 C 0.359375 -2.476562 0.394531 -2.789062 0.46875 -3.125 C 0.539062 -3.457031 0.613281 -3.769531 0.6875 -4.0625 L 1.59375 -3.828125 C 1.539062 -3.660156 1.484375 -3.4375 1.421875 -3.15625 C 1.367188 -2.882812 1.34375 -2.648438 1.34375 -2.453125 C 1.34375 -2.035156 1.445312 -1.703125 1.65625 -1.453125 C 1.875 -1.203125 2.242188 -1.019531 2.765625 -0.90625 C 3.296875 -0.789062 4.035156 -0.734375 4.984375 -0.734375 C 5.472656 -0.734375 5.96875 -0.734375 6.46875 -0.734375 C 6.976562 -0.734375 7.457031 -0.738281 7.90625 -0.75 C 8.351562 -0.769531 8.738281 -0.800781 9.0625 -0.84375 C 9.382812 -0.882812 9.613281 -0.941406 9.75 -1.015625 C 10.019531 -1.191406 10.191406 -1.53125 10.265625 -2.03125 C 10.097656 -1.96875 9.925781 -1.925781 9.75 -1.90625 C 9.570312 -1.882812 9.394531 -1.875 9.21875 -1.875 C 8.601562 -1.875 8.128906 -1.992188 7.796875 -2.234375 C 7.472656 -2.484375 7.3125 -2.867188 7.3125 -3.390625 C 7.3125 -3.691406 7.359375 -3.992188 7.453125 -4.296875 C 7.546875 -4.609375 7.679688 -4.890625 7.859375 -5.140625 C 8.035156 -5.398438 8.25 -5.609375 8.5 -5.765625 C 8.75 -5.921875 9.023438 -6 9.328125 -6 C 9.753906 -6 10.109375 -5.859375 10.390625 -5.578125 C 10.679688 -5.296875 10.894531 -4.929688 11.03125 -4.484375 C 11.164062 -4.035156 11.234375 -3.5625 11.234375 -3.0625 C 11.234375 -2.457031 11.175781 -1.925781 11.0625 -1.46875 C 10.945312 -1.007812 10.75 -0.640625 10.46875 -0.359375 C 10.320312 -0.203125 10.054688 -0.0820312 9.671875 0 C 9.296875 0.0820312 8.835938 0.140625 8.296875 0.171875 C 7.765625 0.210938 7.1875 0.234375 6.5625 0.234375 C 5.9375 0.242188 5.304688 0.25 4.671875 0.25 Z M 8.25 -3.625 C 8.25 -3.382812 8.328125 -3.1875 8.484375 -3.03125 C 8.648438 -2.882812 8.929688 -2.8125 9.328125 -2.8125 C 9.671875 -2.8125 10 -2.859375 10.3125 -2.953125 C 10.3125 -3.003906 10.3125 -3.0625 10.3125 -3.125 C 10.3125 -3.457031 10.265625 -3.769531 10.171875 -4.0625 C 10.085938 -4.351562 9.960938 -4.582031 9.796875 -4.75 C 9.640625 -4.925781 9.453125 -5.015625 9.234375 -5.015625 C 9.035156 -5.015625 8.863281 -4.945312 8.71875 -4.8125 C 8.582031 -4.675781 8.46875 -4.5 8.375 -4.28125 C 8.289062 -4.0625 8.25 -3.84375 8.25 -3.625 Z M 9.09375 -7.234375 C 8.925781 -7.234375 8.785156 -7.289062 8.671875 -7.40625 C 8.554688 -7.519531 8.5 -7.660156 8.5 -7.828125 C 8.5 -7.984375 8.554688 -8.117188 8.671875 -8.234375 C 8.785156 -8.359375 8.925781 -8.421875 9.09375 -8.421875 C 9.257812 -8.421875 9.398438 -8.359375 9.515625 -8.234375 C 9.628906 -8.117188 9.6875 -7.984375 9.6875 -7.828125 C 9.6875 -7.660156 9.628906 -7.519531 9.515625 -7.40625 C 9.398438 -7.289062 9.257812 -7.234375 9.09375 -7.234375 Z M 9.09375 -7.234375 "/></g></g></g><g fill="#ffffff" fill-opacity="1"><g transform="translate(285.266552, 22.009382)"><g><path d="M 0.6875 2.75 L 0.484375 1.78125 C 0.992188 1.707031 1.457031 1.609375 1.875 1.484375 C 2.289062 1.359375 2.644531 1.175781 2.9375 0.9375 C 3.226562 0.695312 3.445312 0.375 3.59375 -0.03125 C 3.445312 0.0078125 3.296875 0.0390625 3.140625 0.0625 C 2.984375 0.0820312 2.828125 0.09375 2.671875 0.09375 C 2.054688 0.09375 1.582031 -0.0234375 1.25 -0.265625 C 0.925781 -0.515625 0.765625 -0.898438 0.765625 -1.421875 C 0.765625 -1.722656 0.8125 -2.023438 0.90625 -2.328125 C 1 -2.640625 1.132812 -2.925781 1.3125 -3.1875 C 1.488281 -3.445312 1.703125 -3.648438 1.953125 -3.796875 C 2.203125 -3.953125 2.476562 -4.03125 2.78125 -4.03125 C 3.207031 -4.03125 3.5625 -3.890625 3.84375 -3.609375 C 4.132812 -3.328125 4.347656 -2.960938 4.484375 -2.515625 C 4.628906 -2.066406 4.703125 -1.59375 4.703125 -1.09375 C 4.703125 0.03125 4.363281 0.914062 3.6875 1.5625 C 3.007812 2.207031 2.007812 2.601562 0.6875 2.75 Z M 1.71875 -1.671875 C 1.71875 -1.421875 1.796875 -1.21875 1.953125 -1.0625 C 2.109375 -0.914062 2.382812 -0.84375 2.78125 -0.84375 C 3.125 -0.84375 3.453125 -0.894531 3.765625 -1 C 3.765625 -1.039062 3.765625 -1.09375 3.765625 -1.15625 C 3.765625 -1.488281 3.71875 -1.800781 3.625 -2.09375 C 3.539062 -2.382812 3.414062 -2.617188 3.25 -2.796875 C 3.09375 -2.972656 2.90625 -3.0625 2.6875 -3.0625 C 2.488281 -3.0625 2.316406 -2.988281 2.171875 -2.84375 C 2.035156 -2.707031 1.925781 -2.53125 1.84375 -2.3125 C 1.757812 -2.09375 1.71875 -1.878906 1.71875 -1.671875 Z M 1.71875 -1.671875 "/></g></g></g><g fill="#ffffff" fill-opacity="1"><g transform="translate(290.62361, 22.009382)"><g><path d="M 0.046875 2.78125 L -0.296875 1.875 C 0.472656 1.613281 1.078125 1.304688 1.515625 0.953125 C 1.953125 0.609375 2.257812 0.242188 2.4375 -0.140625 C 2.613281 -0.535156 2.703125 -0.914062 2.703125 -1.28125 C 2.703125 -1.675781 2.613281 -2.070312 2.4375 -2.46875 C 2.269531 -2.875 2.082031 -3.257812 1.875 -3.625 L 2.75 -4.0625 C 2.976562 -3.632812 3.171875 -3.222656 3.328125 -2.828125 C 3.484375 -2.441406 3.601562 -2.101562 3.6875 -1.8125 C 3.800781 -1.46875 3.945312 -1.234375 4.125 -1.109375 C 4.300781 -0.984375 4.546875 -0.921875 4.859375 -0.921875 C 5.035156 -0.921875 5.160156 -0.875 5.234375 -0.78125 C 5.304688 -0.6875 5.34375 -0.578125 5.34375 -0.453125 C 5.34375 -0.328125 5.285156 -0.207031 5.171875 -0.09375 C 5.066406 0.0078125 4.925781 0.0625 4.75 0.0625 C 4.445312 0.0625 4.191406 0.015625 3.984375 -0.078125 C 3.773438 -0.179688 3.609375 -0.3125 3.484375 -0.46875 C 3.410156 -0.0195312 3.242188 0.382812 2.984375 0.75 C 2.722656 1.125 2.421875 1.445312 2.078125 1.71875 C 1.734375 2 1.378906 2.222656 1.015625 2.390625 C 0.660156 2.566406 0.335938 2.695312 0.046875 2.78125 Z M 0.046875 2.78125 "/></g></g></g><g fill="#ffffff" fill-opacity="1"><g transform="translate(295.369465, 22.009382)"><g><path d="M 0 0.0625 L 0.109375 -0.921875 C 0.929688 -0.921875 1.726562 -1.039062 2.5 -1.28125 C 3.28125 -1.53125 3.988281 -1.878906 4.625 -2.328125 C 4.3125 -2.597656 3.925781 -2.816406 3.46875 -2.984375 C 3.019531 -3.148438 2.523438 -3.234375 1.984375 -3.234375 C 1.785156 -3.234375 1.609375 -3.222656 1.453125 -3.203125 C 1.304688 -3.179688 1.125 -3.148438 0.90625 -3.109375 L 0.71875 -4.015625 C 1.164062 -4.148438 1.585938 -4.21875 1.984375 -4.21875 C 2.398438 -4.21875 2.773438 -4.164062 3.109375 -4.0625 C 3.453125 -3.96875 3.757812 -3.847656 4.03125 -3.703125 C 4.3125 -3.554688 4.570312 -3.410156 4.8125 -3.265625 C 5.050781 -3.128906 5.285156 -3.007812 5.515625 -2.90625 C 5.753906 -2.800781 6 -2.75 6.25 -2.75 L 6.5 -2.75 L 6.578125 -1.890625 C 6.171875 -1.890625 5.800781 -1.820312 5.46875 -1.6875 C 5.132812 -1.5625 4.796875 -1.398438 4.453125 -1.203125 C 4.109375 -1.003906 3.734375 -0.804688 3.328125 -0.609375 C 2.929688 -0.421875 2.460938 -0.257812 1.921875 -0.125 C 1.390625 0 0.75 0.0625 0 0.0625 Z M 0 0.0625 "/></g></g></g><g fill="#ffffff" fill-opacity="1"><g transform="translate(302.435106, 22.009382)"><g/></g></g><g clip-path="url(#821b69a439)"><g clip-path="url(#0a5ecabb8a)"><path fill="#004aad" d="M 206.980469 110.988281 L 296.636719 110.988281 L 296.636719 161.765625 L 206.980469 161.765625 Z M 206.980469 110.988281 " fill-opacity="1" fill-rule="nonzero"/></g></g><g fill="#ffffff" fill-opacity="1"><g transform="translate(242.314395, 140.94819)"><g><path d="M 4.421875 0.15625 C 3.421875 0.15625 2.566406 0.128906 1.859375 0.078125 C 1.148438 0.0234375 0.609375 -0.0234375 0.234375 -0.078125 L 0.34375 -1 C 0.5625 -0.96875 0.804688 -0.941406 1.078125 -0.921875 C 1.347656 -0.910156 1.648438 -0.894531 1.984375 -0.875 C 2.148438 -1.144531 2.335938 -1.410156 2.546875 -1.671875 L 2.3125 -8.5625 L 3.28125 -8.5625 L 3.5 -2.78125 C 3.976562 -3.257812 4.5 -3.660156 5.0625 -3.984375 C 5.625 -4.316406 6.195312 -4.484375 6.78125 -4.484375 C 7.21875 -4.484375 7.59375 -4.390625 7.90625 -4.203125 C 8.226562 -4.023438 8.472656 -3.785156 8.640625 -3.484375 C 8.816406 -3.179688 8.90625 -2.835938 8.90625 -2.453125 C 8.90625 -1.984375 8.765625 -1.550781 8.484375 -1.15625 C 8.210938 -0.757812 7.75 -0.441406 7.09375 -0.203125 C 6.4375 0.0351562 5.546875 0.15625 4.421875 0.15625 Z M 6.71875 -3.5 C 6.34375 -3.5 5.972656 -3.40625 5.609375 -3.21875 C 5.242188 -3.039062 4.898438 -2.8125 4.578125 -2.53125 C 4.253906 -2.25 3.957031 -1.957031 3.6875 -1.65625 C 3.414062 -1.351562 3.195312 -1.082031 3.03125 -0.84375 C 3.28125 -0.84375 3.535156 -0.835938 3.796875 -0.828125 C 4.066406 -0.828125 4.347656 -0.828125 4.640625 -0.828125 C 5.691406 -0.828125 6.507812 -0.957031 7.09375 -1.21875 C 7.6875 -1.476562 7.984375 -1.859375 7.984375 -2.359375 C 7.984375 -2.523438 7.9375 -2.695312 7.84375 -2.875 C 7.757812 -3.050781 7.625 -3.195312 7.4375 -3.3125 C 7.257812 -3.4375 7.019531 -3.5 6.71875 -3.5 Z M 9.96875 0.0625 C 9.757812 0.0625 9.492188 0.0390625 9.171875 0 C 8.859375 -0.0507812 8.539062 -0.128906 8.21875 -0.234375 C 7.894531 -0.347656 7.625 -0.503906 7.40625 -0.703125 L 8.375 -1.203125 C 8.65625 -1.085938 8.945312 -1.007812 9.25 -0.96875 C 9.550781 -0.9375 9.828125 -0.921875 10.078125 -0.921875 C 10.242188 -0.921875 10.363281 -0.875 10.4375 -0.78125 C 10.519531 -0.6875 10.5625 -0.578125 10.5625 -0.453125 C 10.5625 -0.328125 10.503906 -0.207031 10.390625 -0.09375 C 10.285156 0.0078125 10.144531 0.0625 9.96875 0.0625 Z M 6.1875 -5.71875 C 6.019531 -5.71875 5.878906 -5.773438 5.765625 -5.890625 C 5.648438 -6.003906 5.59375 -6.144531 5.59375 -6.3125 C 5.59375 -6.46875 5.648438 -6.601562 5.765625 -6.71875 C 5.878906 -6.84375 6.019531 -6.90625 6.1875 -6.90625 C 6.351562 -6.90625 6.492188 -6.84375 6.609375 -6.71875 C 6.722656 -6.601562 6.78125 -6.46875 6.78125 -6.3125 C 6.78125 -6.144531 6.722656 -6.003906 6.609375 -5.890625 C 6.492188 -5.773438 6.351562 -5.71875 6.1875 -5.71875 Z M 6.1875 -5.71875 "/></g></g></g><g fill="#ffffff" fill-opacity="1"><g transform="translate(252.273493, 140.94819)"><g><path d="M 0 0.0625 L 0.125 -0.921875 C 0.394531 -0.921875 0.675781 -0.925781 0.96875 -0.9375 C 1.257812 -0.945312 1.539062 -0.96875 1.8125 -1 C 1.613281 -1.175781 1.421875 -1.398438 1.234375 -1.671875 C 1.054688 -1.953125 0.96875 -2.296875 0.96875 -2.703125 C 0.96875 -3.117188 1.066406 -3.5 1.265625 -3.84375 C 1.460938 -4.195312 1.71875 -4.472656 2.03125 -4.671875 C 2.351562 -4.867188 2.695312 -4.96875 3.0625 -4.96875 C 3.457031 -4.96875 3.800781 -4.859375 4.09375 -4.640625 C 4.394531 -4.429688 4.625 -4.160156 4.78125 -3.828125 C 4.945312 -3.492188 5.03125 -3.148438 5.03125 -2.796875 C 5.03125 -2.421875 4.953125 -2.082031 4.796875 -1.78125 C 4.648438 -1.488281 4.445312 -1.226562 4.1875 -1 C 4.507812 -0.976562 4.835938 -0.957031 5.171875 -0.9375 C 5.515625 -0.925781 5.804688 -0.921875 6.046875 -0.921875 C 6.210938 -0.921875 6.332031 -0.875 6.40625 -0.78125 C 6.488281 -0.6875 6.53125 -0.578125 6.53125 -0.453125 C 6.53125 -0.328125 6.472656 -0.207031 6.359375 -0.09375 C 6.253906 0.0078125 6.113281 0.0625 5.9375 0.0625 C 5.445312 0.0625 4.9375 0.0234375 4.40625 -0.046875 C 3.882812 -0.128906 3.421875 -0.222656 3.015625 -0.328125 C 2.890625 -0.285156 2.757812 -0.242188 2.625 -0.203125 C 2.257812 -0.0976562 1.835938 -0.03125 1.359375 0 C 0.890625 0.0390625 0.4375 0.0625 0 0.0625 Z M 1.953125 -2.671875 C 1.953125 -2.359375 2.046875 -2.082031 2.234375 -1.84375 C 2.429688 -1.613281 2.648438 -1.425781 2.890625 -1.28125 C 3.210938 -1.425781 3.484375 -1.617188 3.703125 -1.859375 C 3.929688 -2.097656 4.046875 -2.382812 4.046875 -2.71875 C 4.046875 -2.90625 4 -3.09375 3.90625 -3.28125 C 3.820312 -3.476562 3.703125 -3.644531 3.546875 -3.78125 C 3.398438 -3.914062 3.226562 -3.984375 3.03125 -3.984375 C 2.84375 -3.984375 2.664062 -3.914062 2.5 -3.78125 C 2.332031 -3.65625 2.195312 -3.492188 2.09375 -3.296875 C 2 -3.097656 1.953125 -2.890625 1.953125 -2.671875 Z M 2.953125 -6.203125 C 2.785156 -6.203125 2.644531 -6.257812 2.53125 -6.375 C 2.414062 -6.488281 2.359375 -6.628906 2.359375 -6.796875 C 2.359375 -6.953125 2.414062 -7.085938 2.53125 -7.203125 C 2.644531 -7.328125 2.785156 -7.390625 2.953125 -7.390625 C 3.117188 -7.390625 3.257812 -7.328125 3.375 -7.203125 C 3.488281 -7.085938 3.546875 -6.953125 3.546875 -6.796875 C 3.546875 -6.628906 3.488281 -6.488281 3.375 -6.375 C 3.257812 -6.257812 3.117188 -6.203125 2.953125 -6.203125 Z M 2.953125 -6.203125 "/></g></g></g><g fill="#ffffff" fill-opacity="1"><g transform="translate(258.205808, 140.94819)"><g><path d="M 0 0.0625 L 0.109375 -0.921875 C 0.566406 -0.921875 0.882812 -0.960938 1.0625 -1.046875 C 1.25 -1.140625 1.351562 -1.296875 1.375 -1.515625 C 1.40625 -1.734375 1.414062 -2.046875 1.40625 -2.453125 L 1.171875 -8.5625 L 2.140625 -8.5625 L 2.390625 -2.5625 C 2.410156 -2 2.367188 -1.519531 2.265625 -1.125 C 2.171875 -0.738281 1.945312 -0.441406 1.59375 -0.234375 C 1.25 -0.0351562 0.71875 0.0625 0 0.0625 Z M 0 0.0625 "/></g></g></g><path stroke-linecap="round" transform="matrix(0.749028, 0, 0, 0.749028, 250.333535, 51.064774)" fill="none" stroke-linejoin="miter" d="M 2.000587 1.999558 L 2.000587 76.997751 " stroke="#acb8c0" stroke-width="4" stroke-opacity="1" stroke-miterlimit="4"/><path stroke-linecap="round" transform="matrix(0.749028, 0, 0, 0.749028, 250.333535, 51.064774)" fill="none" stroke-linejoin="round" d="M 7.997939 69.999102 L 2.000587 77.999048 L -4.00198 69.999102 " stroke="#acb8c0" stroke-width="4" stroke-opacity="1" stroke-miterlimit="4"/><g clip-path="url(#5c84120750)"><g clip-path="url(#dc749522dd)"><path fill="#5271ff" d="M 276.757812 234.734375 L 366.503906 234.734375 L 366.503906 297.851562 L 276.757812 297.851562 Z M 276.757812 234.734375 " fill-opacity="1" fill-rule="nonzero"/></g></g><g fill="#ffffff" fill-opacity="1"><g transform="translate(305.62316, 266.138859)"><g><path d="M 0.609375 -7.203125 L 0.546875 -9.28125 L 1.203125 -9.28125 L 1.265625 -7.203125 Z M 0.609375 -7.203125 "/></g></g></g><g fill="#ffffff" fill-opacity="1"><g transform="translate(303.969299, 262.447652)"><g><path d="M 0.359375 0.015625 C 0.359375 -0.273438 0.394531 -0.59375 0.46875 -0.9375 C 0.550781 -1.289062 0.679688 -1.679688 0.859375 -2.109375 L 1.71875 -1.78125 C 1.59375 -1.4375 1.5 -1.125 1.4375 -0.84375 C 1.375 -0.570312 1.34375 -0.316406 1.34375 -0.078125 C 1.34375 0.367188 1.472656 0.726562 1.734375 1 C 1.992188 1.28125 2.335938 1.484375 2.765625 1.609375 C 3.191406 1.742188 3.660156 1.8125 4.171875 1.8125 C 4.785156 1.8125 5.34375 1.738281 5.84375 1.59375 C 6.351562 1.457031 6.757812 1.269531 7.0625 1.03125 C 7.375 0.789062 7.53125 0.523438 7.53125 0.234375 C 7.53125 0.0234375 7.367188 -0.148438 7.046875 -0.296875 C 6.722656 -0.453125 6.273438 -0.609375 5.703125 -0.765625 L 5.9375 -1.765625 C 6.757812 -1.429688 7.398438 -1.207031 7.859375 -1.09375 C 8.328125 -0.976562 8.6875 -0.921875 8.9375 -0.921875 C 9.101562 -0.921875 9.222656 -0.875 9.296875 -0.78125 C 9.378906 -0.6875 9.421875 -0.578125 9.421875 -0.453125 C 9.421875 -0.328125 9.363281 -0.207031 9.25 -0.09375 C 9.132812 0.0078125 8.992188 0.0625 8.828125 0.0625 L 8.375 0.0625 C 8.382812 0.132812 8.394531 0.191406 8.40625 0.234375 C 8.414062 0.273438 8.421875 0.332031 8.421875 0.40625 C 8.421875 0.800781 8.238281 1.175781 7.875 1.53125 C 7.519531 1.894531 7.003906 2.191406 6.328125 2.421875 C 5.660156 2.660156 4.851562 2.78125 3.90625 2.78125 C 3.269531 2.78125 2.679688 2.679688 2.140625 2.484375 C 1.609375 2.285156 1.175781 1.976562 0.84375 1.5625 C 0.519531 1.15625 0.359375 0.640625 0.359375 0.015625 Z M 4.765625 5.046875 C 4.597656 5.046875 4.457031 4.988281 4.34375 4.875 C 4.226562 4.757812 4.171875 4.617188 4.171875 4.453125 C 4.171875 4.296875 4.226562 4.15625 4.34375 4.03125 C 4.457031 3.914062 4.597656 3.859375 4.765625 3.859375 C 4.929688 3.859375 5.070312 3.914062 5.1875 4.03125 C 5.300781 4.15625 5.359375 4.296875 5.359375 4.453125 C 5.359375 4.617188 5.300781 4.757812 5.1875 4.875 C 5.070312 4.988281 4.929688 5.046875 4.765625 5.046875 Z M 3.125 5.046875 C 2.957031 5.046875 2.816406 4.988281 2.703125 4.875 C 2.585938 4.757812 2.53125 4.617188 2.53125 4.453125 C 2.53125 4.296875 2.585938 4.15625 2.703125 4.03125 C 2.816406 3.914062 2.957031 3.859375 3.125 3.859375 C 3.289062 3.859375 3.429688 3.914062 3.546875 4.03125 C 3.660156 4.15625 3.71875 4.296875 3.71875 4.453125 C 3.71875 4.617188 3.660156 4.757812 3.546875 4.875 C 3.429688 4.988281 3.289062 5.046875 3.125 5.046875 Z M 3.125 5.046875 "/></g></g></g><g fill="#ffffff" fill-opacity="1"><g transform="translate(312.789882, 262.447652)"><g><path d="M 0 0.0625 L 0.125 -0.921875 C 0.457031 -0.921875 0.71875 -0.953125 0.90625 -1.015625 C 1.101562 -1.078125 1.25 -1.191406 1.34375 -1.359375 C 1.445312 -1.535156 1.535156 -1.785156 1.609375 -2.109375 C 1.679688 -2.429688 1.769531 -2.859375 1.875 -3.390625 L 2.796875 -3.21875 C 2.753906 -3 2.703125 -2.75 2.640625 -2.46875 C 2.578125 -2.1875 2.546875 -1.953125 2.546875 -1.765625 C 2.546875 -1.597656 2.582031 -1.453125 2.65625 -1.328125 C 2.726562 -1.203125 2.878906 -1.101562 3.109375 -1.03125 C 3.347656 -0.957031 3.722656 -0.921875 4.234375 -0.921875 C 4.398438 -0.921875 4.519531 -0.875 4.59375 -0.78125 C 4.664062 -0.6875 4.703125 -0.578125 4.703125 -0.453125 C 4.703125 -0.328125 4.644531 -0.207031 4.53125 -0.09375 C 4.425781 0.0078125 4.285156 0.0625 4.109375 0.0625 C 3.472656 0.0625 3.003906 -0.00390625 2.703125 -0.140625 C 2.398438 -0.273438 2.191406 -0.476562 2.078125 -0.75 C 1.835938 -0.414062 1.5625 -0.195312 1.25 -0.09375 C 0.945312 0.0078125 0.53125 0.0625 0 0.0625 Z M 2.234375 -4.625 C 2.066406 -4.625 1.925781 -4.679688 1.8125 -4.796875 C 1.695312 -4.910156 1.640625 -5.050781 1.640625 -5.21875 C 1.640625 -5.375 1.695312 -5.507812 1.8125 -5.625 C 1.925781 -5.75 2.066406 -5.8125 2.234375 -5.8125 C 2.398438 -5.8125 2.539062 -5.75 2.65625 -5.625 C 2.769531 -5.507812 2.828125 -5.375 2.828125 -5.21875 C 2.828125 -5.050781 2.769531 -4.910156 2.65625 -4.796875 C 2.539062 -4.679688 2.398438 -4.625 2.234375 -4.625 Z M 2.234375 -4.625 "/></g></g></g><g fill="#ffffff" fill-opacity="1"><g transform="translate(316.900555, 262.447652)"><g><path d="M 0 0.0625 L 0.125 -0.921875 C 0.539062 -0.921875 0.941406 -0.957031 1.328125 -1.03125 C 1.710938 -1.101562 2.066406 -1.203125 2.390625 -1.328125 C 2.203125 -1.554688 1.988281 -1.785156 1.75 -2.015625 C 1.507812 -2.242188 1.242188 -2.460938 0.953125 -2.671875 C 0.910156 -2.710938 0.863281 -2.785156 0.8125 -2.890625 C 0.769531 -2.992188 0.726562 -3.097656 0.6875 -3.203125 C 0.65625 -3.316406 0.640625 -3.40625 0.640625 -3.46875 C 0.640625 -3.582031 0.71875 -3.722656 0.875 -3.890625 C 1.03125 -4.054688 1.234375 -4.21875 1.484375 -4.375 C 1.742188 -4.53125 2.035156 -4.660156 2.359375 -4.765625 C 2.691406 -4.867188 3.03125 -4.921875 3.375 -4.921875 C 3.832031 -4.921875 4.203125 -4.851562 4.484375 -4.71875 C 4.765625 -4.582031 4.972656 -4.410156 5.109375 -4.203125 C 5.242188 -3.992188 5.3125 -3.765625 5.3125 -3.515625 C 5.3125 -3.128906 5.195312 -2.742188 4.96875 -2.359375 C 4.75 -1.972656 4.441406 -1.617188 4.046875 -1.296875 C 4.390625 -1.171875 4.757812 -1.078125 5.15625 -1.015625 C 5.5625 -0.953125 5.960938 -0.921875 6.359375 -0.921875 C 6.523438 -0.921875 6.644531 -0.875 6.71875 -0.78125 C 6.800781 -0.6875 6.84375 -0.578125 6.84375 -0.453125 C 6.84375 -0.328125 6.785156 -0.207031 6.671875 -0.09375 C 6.554688 0.0078125 6.414062 0.0625 6.25 0.0625 C 5.71875 0.0625 5.171875 0 4.609375 -0.125 C 4.054688 -0.25 3.566406 -0.4375 3.140625 -0.6875 C 2.703125 -0.457031 2.21875 -0.273438 1.6875 -0.140625 C 1.15625 -0.00390625 0.59375 0.0625 0 0.0625 Z M 1.515625 -3.40625 C 1.816406 -3.144531 2.097656 -2.890625 2.359375 -2.640625 C 2.628906 -2.398438 2.929688 -2.109375 3.265625 -1.765625 C 3.609375 -1.984375 3.875 -2.222656 4.0625 -2.484375 C 4.257812 -2.742188 4.359375 -3.003906 4.359375 -3.265625 C 4.359375 -3.421875 4.269531 -3.570312 4.09375 -3.71875 C 3.925781 -3.875 3.628906 -3.953125 3.203125 -3.953125 C 2.929688 -3.953125 2.628906 -3.898438 2.296875 -3.796875 C 1.960938 -3.691406 1.703125 -3.5625 1.515625 -3.40625 Z M 1.515625 -3.40625 "/></g></g></g><g fill="#ffffff" fill-opacity="1"><g transform="translate(323.144467, 262.447652)"><g><path d="M 0 0.0625 L 0.125 -0.921875 C 0.34375 -0.921875 0.523438 -0.96875 0.671875 -1.0625 C 0.828125 -1.15625 0.976562 -1.3125 1.125 -1.53125 C 1.269531 -1.757812 1.425781 -2.0625 1.59375 -2.4375 C 1.820312 -2.957031 2.050781 -3.347656 2.28125 -3.609375 C 2.507812 -3.867188 2.738281 -4.046875 2.96875 -4.140625 C 3.195312 -4.242188 3.421875 -4.296875 3.640625 -4.296875 C 3.910156 -4.296875 4.160156 -4.222656 4.390625 -4.078125 C 4.628906 -3.941406 4.832031 -3.753906 5 -3.515625 C 5.175781 -3.285156 5.316406 -3.03125 5.421875 -2.75 C 5.523438 -2.476562 5.578125 -2.207031 5.578125 -1.9375 C 5.578125 -1.457031 5.488281 -1.078125 5.3125 -0.796875 C 5.144531 -0.515625 4.929688 -0.3125 4.671875 -0.1875 C 4.421875 -0.0625 4.15625 0 3.875 0 C 3.632812 0 3.335938 -0.0351562 2.984375 -0.109375 C 2.628906 -0.191406 2.1875 -0.40625 1.65625 -0.75 C 1.394531 -0.375 1.132812 -0.144531 0.875 -0.0625 C 0.625 0.0195312 0.332031 0.0625 0 0.0625 Z M 2.234375 -1.8125 C 2.191406 -1.707031 2.148438 -1.609375 2.109375 -1.515625 C 2.453125 -1.304688 2.765625 -1.164062 3.046875 -1.09375 C 3.328125 -1.019531 3.566406 -0.984375 3.765625 -0.984375 C 4.109375 -0.984375 4.347656 -1.054688 4.484375 -1.203125 C 4.628906 -1.359375 4.703125 -1.5625 4.703125 -1.8125 C 4.703125 -2.039062 4.644531 -2.269531 4.53125 -2.5 C 4.425781 -2.738281 4.285156 -2.929688 4.109375 -3.078125 C 3.941406 -3.234375 3.765625 -3.3125 3.578125 -3.3125 C 3.429688 -3.3125 3.289062 -3.269531 3.15625 -3.1875 C 3.019531 -3.101562 2.878906 -2.953125 2.734375 -2.734375 C 2.585938 -2.523438 2.421875 -2.21875 2.234375 -1.8125 Z M 2.234375 -1.8125 "/></g></g></g><g fill="#ffffff" fill-opacity="1"><g transform="translate(329.436324, 262.447652)"><g><path d="M 5.265625 3.578125 C 3.460938 3.578125 2.132812 3.414062 1.28125 3.09375 C 0.425781 2.769531 0 2.296875 0 1.671875 C 0 1.234375 0.242188 0.816406 0.734375 0.421875 C 1.222656 0.0234375 1.960938 -0.296875 2.953125 -0.546875 C 3.953125 -0.796875 5.203125 -0.921875 6.703125 -0.921875 C 6.867188 -0.921875 6.988281 -0.875 7.0625 -0.78125 C 7.132812 -0.6875 7.171875 -0.578125 7.171875 -0.453125 C 7.171875 -0.328125 7.113281 -0.207031 7 -0.09375 C 6.894531 0.0078125 6.753906 0.0625 6.578125 0.0625 C 5.773438 0.0625 5.035156 0.101562 4.359375 0.1875 C 3.679688 0.28125 3.085938 0.394531 2.578125 0.53125 C 2.078125 0.675781 1.679688 0.835938 1.390625 1.015625 C 1.109375 1.203125 0.96875 1.390625 0.96875 1.578125 C 0.96875 1.859375 1.316406 2.097656 2.015625 2.296875 C 2.722656 2.492188 3.804688 2.59375 5.265625 2.59375 C 6.503906 2.59375 7.570312 2.539062 8.46875 2.4375 C 9.375 2.34375 10.046875 2.257812 10.484375 2.1875 L 10.3125 3.109375 C 10.101562 3.171875 9.8125 3.226562 9.4375 3.28125 C 9.070312 3.34375 8.65625 3.394531 8.1875 3.4375 C 7.726562 3.476562 7.242188 3.507812 6.734375 3.53125 C 6.234375 3.5625 5.742188 3.578125 5.265625 3.578125 Z M 5.265625 3.578125 "/></g></g></g><g fill="#ffffff" fill-opacity="1"><g transform="translate(336.015799, 262.447652)"><g><path d="M 0 0.0625 L 0.125 -0.921875 C 0.5 -0.921875 0.804688 -0.941406 1.046875 -0.984375 C 1.285156 -1.035156 1.457031 -1.132812 1.5625 -1.28125 C 1.664062 -1.4375 1.71875 -1.660156 1.71875 -1.953125 C 1.71875 -2.242188 1.644531 -2.617188 1.5 -3.078125 C 1.363281 -3.546875 1.207031 -4.007812 1.03125 -4.46875 L 2 -4.828125 C 2.101562 -4.566406 2.203125 -4.273438 2.296875 -3.953125 C 2.390625 -3.628906 2.46875 -3.304688 2.53125 -2.984375 C 2.59375 -2.660156 2.625 -2.378906 2.625 -2.140625 C 2.625 -1.335938 2.410156 -0.769531 1.984375 -0.4375 C 1.554688 -0.101562 0.894531 0.0625 0 0.0625 Z M 1.28125 2.28125 C 1.113281 2.28125 0.972656 2.222656 0.859375 2.109375 C 0.742188 1.992188 0.6875 1.859375 0.6875 1.703125 C 0.6875 1.535156 0.742188 1.390625 0.859375 1.265625 C 0.972656 1.148438 1.113281 1.09375 1.28125 1.09375 C 1.445312 1.09375 1.585938 1.148438 1.703125 1.265625 C 1.816406 1.390625 1.875 1.535156 1.875 1.703125 C 1.875 1.859375 1.816406 1.992188 1.703125 2.109375 C 1.585938 2.222656 1.445312 2.28125 1.28125 2.28125 Z M 1.28125 2.28125 "/></g></g></g><g fill="#ffffff" fill-opacity="1"><g transform="translate(307.573998, 278.926278)"><g><path d="M 0.359375 0.015625 C 0.359375 -0.273438 0.394531 -0.59375 0.46875 -0.9375 C 0.550781 -1.289062 0.679688 -1.679688 0.859375 -2.109375 L 1.71875 -1.78125 C 1.59375 -1.4375 1.5 -1.125 1.4375 -0.84375 C 1.375 -0.570312 1.34375 -0.316406 1.34375 -0.078125 C 1.34375 0.335938 1.445312 0.679688 1.65625 0.953125 C 1.875 1.234375 2.15625 1.441406 2.5 1.578125 C 2.851562 1.722656 3.226562 1.796875 3.625 1.796875 C 4.40625 1.796875 5.015625 1.65625 5.453125 1.375 C 5.898438 1.101562 6.207031 0.738281 6.375 0.28125 C 6.550781 -0.164062 6.628906 -0.65625 6.609375 -1.1875 L 6.359375 -8.5625 L 7.34375 -8.5625 L 7.53125 -2.484375 C 7.539062 -2.078125 7.601562 -1.757812 7.71875 -1.53125 C 7.84375 -1.300781 8.003906 -1.140625 8.203125 -1.046875 C 8.410156 -0.960938 8.632812 -0.921875 8.875 -0.921875 C 9.039062 -0.921875 9.160156 -0.875 9.234375 -0.78125 C 9.304688 -0.6875 9.34375 -0.578125 9.34375 -0.453125 C 9.34375 -0.328125 9.285156 -0.207031 9.171875 -0.09375 C 9.066406 0.0078125 8.925781 0.0625 8.75 0.0625 C 8.457031 0.0625 8.210938 0.015625 8.015625 -0.078125 C 7.828125 -0.171875 7.679688 -0.285156 7.578125 -0.421875 C 7.515625 -0.015625 7.398438 0.375 7.234375 0.75 C 7.078125 1.125 6.84375 1.460938 6.53125 1.765625 C 6.21875 2.078125 5.816406 2.320312 5.328125 2.5 C 4.847656 2.6875 4.265625 2.78125 3.578125 2.78125 C 3.015625 2.78125 2.488281 2.671875 2 2.453125 C 1.507812 2.234375 1.113281 1.914062 0.8125 1.5 C 0.507812 1.09375 0.359375 0.597656 0.359375 0.015625 Z M 0.359375 0.015625 "/></g></g></g><g fill="#ffffff" fill-opacity="1"><g transform="translate(316.322668, 278.926278)"><g><path d="M 0 0.0625 L 0.125 -0.921875 C 0.34375 -0.921875 0.515625 -0.96875 0.640625 -1.0625 C 0.773438 -1.15625 0.90625 -1.3125 1.03125 -1.53125 C 1.15625 -1.757812 1.316406 -2.0625 1.515625 -2.4375 C 1.765625 -2.957031 2.019531 -3.351562 2.28125 -3.625 C 2.539062 -3.894531 2.785156 -4.082031 3.015625 -4.1875 C 3.253906 -4.289062 3.472656 -4.34375 3.671875 -4.34375 C 3.929688 -4.34375 4.164062 -4.28125 4.375 -4.15625 C 4.582031 -4.039062 4.773438 -3.84375 4.953125 -3.5625 C 5.128906 -3.289062 5.320312 -2.914062 5.53125 -2.4375 C 5.707031 -2 5.867188 -1.671875 6.015625 -1.453125 C 6.171875 -1.234375 6.328125 -1.085938 6.484375 -1.015625 C 6.648438 -0.953125 6.835938 -0.921875 7.046875 -0.921875 C 7.210938 -0.921875 7.332031 -0.875 7.40625 -0.78125 C 7.488281 -0.6875 7.53125 -0.578125 7.53125 -0.453125 C 7.53125 -0.328125 7.472656 -0.207031 7.359375 -0.09375 C 7.242188 0.0078125 7.097656 0.0625 6.921875 0.0625 C 6.609375 0.0625 6.320312 0.015625 6.0625 -0.078125 C 5.8125 -0.179688 5.609375 -0.335938 5.453125 -0.546875 C 5.296875 -0.273438 5.101562 -0.078125 4.875 0.046875 C 4.65625 0.171875 4.410156 0.234375 4.140625 0.234375 C 3.742188 0.234375 3.335938 0.109375 2.921875 -0.140625 C 2.503906 -0.398438 2.15625 -0.738281 1.875 -1.15625 C 1.664062 -0.78125 1.46875 -0.503906 1.28125 -0.328125 C 1.09375 -0.160156 0.894531 -0.0507812 0.6875 0 C 0.488281 0.0390625 0.257812 0.0625 0 0.0625 Z M 2.328125 -2.0625 C 2.597656 -1.601562 2.898438 -1.269531 3.234375 -1.0625 C 3.566406 -0.851562 3.867188 -0.75 4.140625 -0.75 C 4.410156 -0.75 4.613281 -0.847656 4.75 -1.046875 C 4.882812 -1.242188 4.878906 -1.519531 4.734375 -1.875 C 4.640625 -2.113281 4.539062 -2.347656 4.4375 -2.578125 C 4.332031 -2.816406 4.210938 -3.007812 4.078125 -3.15625 C 3.941406 -3.300781 3.78125 -3.375 3.59375 -3.375 C 3.414062 -3.375 3.222656 -3.28125 3.015625 -3.09375 C 2.804688 -2.90625 2.578125 -2.5625 2.328125 -2.0625 Z M 2.328125 -2.0625 "/></g></g></g><g fill="#ffffff" fill-opacity="1"><g transform="translate(323.249696, 278.926278)"><g><path d="M 0 0.0625 L 0.125 -0.921875 C 0.269531 -0.921875 0.414062 -0.921875 0.5625 -0.921875 C 0.707031 -0.921875 0.851562 -0.925781 1 -0.9375 C 1.03125 -1.53125 1.125 -2.070312 1.28125 -2.5625 C 1.4375 -3.0625 1.640625 -3.488281 1.890625 -3.84375 C 2.140625 -4.207031 2.40625 -4.488281 2.6875 -4.6875 C 2.976562 -4.882812 3.265625 -4.984375 3.546875 -4.984375 C 3.941406 -4.984375 4.269531 -4.816406 4.53125 -4.484375 C 4.789062 -4.148438 4.921875 -3.707031 4.921875 -3.15625 C 4.921875 -2.800781 4.863281 -2.445312 4.75 -2.09375 C 4.644531 -1.75 4.4375 -1.445312 4.125 -1.1875 C 4.445312 -1.101562 4.773438 -1.035156 5.109375 -0.984375 C 5.453125 -0.941406 5.816406 -0.921875 6.203125 -0.921875 C 6.367188 -0.921875 6.488281 -0.875 6.5625 -0.78125 C 6.632812 -0.6875 6.671875 -0.578125 6.671875 -0.453125 C 6.671875 -0.328125 6.613281 -0.207031 6.5 -0.09375 C 6.394531 0.0078125 6.253906 0.0625 6.078125 0.0625 C 5.804688 0.0625 5.5 0.0390625 5.15625 0 C 5.332031 0.269531 5.429688 0.554688 5.453125 0.859375 C 5.472656 1.160156 5.414062 1.441406 5.28125 1.703125 C 5.15625 1.960938 4.957031 2.175781 4.6875 2.34375 C 4.425781 2.507812 4.085938 2.59375 3.671875 2.59375 C 2.984375 2.59375 2.390625 2.375 1.890625 1.9375 C 1.390625 1.507812 1.09375 0.851562 1 -0.03125 C 0.84375 0 0.675781 0.0195312 0.5 0.03125 C 0.332031 0.0507812 0.164062 0.0625 0 0.0625 Z M 3.46875 -4 C 3.300781 -4 3.101562 -3.867188 2.875 -3.609375 C 2.65625 -3.359375 2.453125 -3.007812 2.265625 -2.5625 C 2.085938 -2.113281 1.984375 -1.59375 1.953125 -1 C 2.335938 -1.0625 2.675781 -1.160156 2.96875 -1.296875 C 3.269531 -1.441406 3.503906 -1.648438 3.671875 -1.921875 C 3.847656 -2.203125 3.9375 -2.578125 3.9375 -3.046875 C 3.9375 -3.160156 3.921875 -3.289062 3.890625 -3.4375 C 3.867188 -3.59375 3.820312 -3.722656 3.75 -3.828125 C 3.675781 -3.941406 3.582031 -4 3.46875 -4 Z M 3.703125 1.625 C 3.910156 1.625 4.113281 1.5625 4.3125 1.4375 C 4.507812 1.320312 4.609375 1.101562 4.609375 0.78125 C 4.609375 0.582031 4.554688 0.398438 4.453125 0.234375 C 4.359375 0.0664062 4.1875 -0.0664062 3.9375 -0.171875 C 3.695312 -0.273438 3.347656 -0.328125 2.890625 -0.328125 C 2.765625 -0.328125 2.625 -0.316406 2.46875 -0.296875 C 2.3125 -0.273438 2.148438 -0.242188 1.984375 -0.203125 C 2.023438 0.191406 2.109375 0.507812 2.234375 0.75 C 2.367188 0.988281 2.519531 1.171875 2.6875 1.296875 C 2.863281 1.421875 3.035156 1.503906 3.203125 1.546875 C 3.378906 1.597656 3.546875 1.625 3.703125 1.625 Z M 3.703125 1.625 "/></g></g></g><g fill="#ffffff" fill-opacity="1"><g transform="translate(329.325826, 278.926278)"><g><path d="M 0 0.0625 L 0.125 -0.921875 C 0.34375 -0.921875 0.523438 -0.96875 0.671875 -1.0625 C 0.828125 -1.15625 0.976562 -1.3125 1.125 -1.53125 C 1.269531 -1.757812 1.425781 -2.0625 1.59375 -2.4375 C 1.820312 -2.957031 2.050781 -3.347656 2.28125 -3.609375 C 2.507812 -3.867188 2.738281 -4.046875 2.96875 -4.140625 C 3.195312 -4.242188 3.421875 -4.296875 3.640625 -4.296875 C 3.910156 -4.296875 4.160156 -4.222656 4.390625 -4.078125 C 4.628906 -3.941406 4.832031 -3.753906 5 -3.515625 C 5.175781 -3.285156 5.316406 -3.03125 5.421875 -2.75 C 5.523438 -2.476562 5.578125 -2.207031 5.578125 -1.9375 C 5.578125 -1.457031 5.488281 -1.078125 5.3125 -0.796875 C 5.144531 -0.515625 4.929688 -0.3125 4.671875 -0.1875 C 4.421875 -0.0625 4.15625 0 3.875 0 C 3.632812 0 3.335938 -0.0351562 2.984375 -0.109375 C 2.628906 -0.191406 2.1875 -0.40625 1.65625 -0.75 C 1.394531 -0.375 1.132812 -0.144531 0.875 -0.0625 C 0.625 0.0195312 0.332031 0.0625 0 0.0625 Z M 2.234375 -1.8125 C 2.191406 -1.707031 2.148438 -1.609375 2.109375 -1.515625 C 2.453125 -1.304688 2.765625 -1.164062 3.046875 -1.09375 C 3.328125 -1.019531 3.566406 -0.984375 3.765625 -0.984375 C 4.109375 -0.984375 4.347656 -1.054688 4.484375 -1.203125 C 4.628906 -1.359375 4.703125 -1.5625 4.703125 -1.8125 C 4.703125 -2.039062 4.644531 -2.269531 4.53125 -2.5 C 4.425781 -2.738281 4.285156 -2.929688 4.109375 -3.078125 C 3.941406 -3.234375 3.765625 -3.3125 3.578125 -3.3125 C 3.429688 -3.3125 3.289062 -3.269531 3.15625 -3.1875 C 3.019531 -3.101562 2.878906 -2.953125 2.734375 -2.734375 C 2.585938 -2.523438 2.421875 -2.21875 2.234375 -1.8125 Z M 2.234375 -1.8125 "/></g></g></g><path stroke-linecap="round" transform="matrix(0.749028, 0, 0, 0.749028, 250.333535, 161.764269)" fill="none" stroke-linejoin="miter" d="M 2.000587 1.99919 L 2.000587 25.352358 C 2.000587 31.547883 4.462109 37.487869 8.842783 41.868544 C 13.218243 46.249219 19.158229 48.710741 25.353755 48.710741 L 72.299985 48.710741 C 78.365133 48.710741 84.174742 51.114897 88.461545 55.4017 C 92.748348 59.688503 95.157719 65.503327 95.157719 71.56326 L 95.157719 94.420994 " stroke="#acb8c0" stroke-width="4" stroke-opacity="1" stroke-miterlimit="4"/><path stroke-linecap="round" transform="matrix(0.749028, 0, 0, 0.749028, 250.333535, 161.764269)" fill="none" stroke-linejoin="round" d="M 101.155071 87.41713 L 95.157719 95.417076 L 89.155152 87.41713 " stroke="#acb8c0" stroke-width="4" stroke-opacity="1" stroke-miterlimit="4"/><g clip-path="url(#90f9734027)"><g clip-path="url(#cceb69e943)"><path fill="#5271ff" d="M 137.203125 234.734375 L 226.949219 234.734375 L 226.949219 297.851562 L 137.203125 297.851562 Z M 137.203125 234.734375 " fill-opacity="1" fill-rule="nonzero"/></g></g><g fill="#ffffff" fill-opacity="1"><g transform="translate(167.613639, 266.138859)"><g><path d="M 0.609375 -7.203125 L 0.546875 -9.28125 L 1.203125 -9.28125 L 1.265625 -7.203125 Z M 0.609375 -7.203125 "/></g></g></g><g fill="#ffffff" fill-opacity="1"><g transform="translate(165.959779, 262.447652)"><g><path d="M 0.359375 0.015625 C 0.359375 -0.273438 0.394531 -0.59375 0.46875 -0.9375 C 0.550781 -1.289062 0.679688 -1.679688 0.859375 -2.109375 L 1.71875 -1.78125 C 1.59375 -1.4375 1.5 -1.125 1.4375 -0.84375 C 1.375 -0.570312 1.34375 -0.316406 1.34375 -0.078125 C 1.34375 0.367188 1.472656 0.726562 1.734375 1 C 1.992188 1.28125 2.335938 1.484375 2.765625 1.609375 C 3.191406 1.742188 3.660156 1.8125 4.171875 1.8125 C 4.785156 1.8125 5.34375 1.738281 5.84375 1.59375 C 6.351562 1.457031 6.757812 1.269531 7.0625 1.03125 C 7.375 0.789062 7.53125 0.523438 7.53125 0.234375 C 7.53125 0.0234375 7.367188 -0.148438 7.046875 -0.296875 C 6.722656 -0.453125 6.273438 -0.609375 5.703125 -0.765625 L 5.9375 -1.765625 C 6.757812 -1.429688 7.398438 -1.207031 7.859375 -1.09375 C 8.328125 -0.976562 8.6875 -0.921875 8.9375 -0.921875 C 9.101562 -0.921875 9.222656 -0.875 9.296875 -0.78125 C 9.378906 -0.6875 9.421875 -0.578125 9.421875 -0.453125 C 9.421875 -0.328125 9.363281 -0.207031 9.25 -0.09375 C 9.132812 0.0078125 8.992188 0.0625 8.828125 0.0625 L 8.375 0.0625 C 8.382812 0.132812 8.394531 0.191406 8.40625 0.234375 C 8.414062 0.273438 8.421875 0.332031 8.421875 0.40625 C 8.421875 0.800781 8.238281 1.175781 7.875 1.53125 C 7.519531 1.894531 7.003906 2.191406 6.328125 2.421875 C 5.660156 2.660156 4.851562 2.78125 3.90625 2.78125 C 3.269531 2.78125 2.679688 2.679688 2.140625 2.484375 C 1.609375 2.285156 1.175781 1.976562 0.84375 1.5625 C 0.519531 1.15625 0.359375 0.640625 0.359375 0.015625 Z M 4.765625 5.046875 C 4.597656 5.046875 4.457031 4.988281 4.34375 4.875 C 4.226562 4.757812 4.171875 4.617188 4.171875 4.453125 C 4.171875 4.296875 4.226562 4.15625 4.34375 4.03125 C 4.457031 3.914062 4.597656 3.859375 4.765625 3.859375 C 4.929688 3.859375 5.070312 3.914062 5.1875 4.03125 C 5.300781 4.15625 5.359375 4.296875 5.359375 4.453125 C 5.359375 4.617188 5.300781 4.757812 5.1875 4.875 C 5.070312 4.988281 4.929688 5.046875 4.765625 5.046875 Z M 3.125 5.046875 C 2.957031 5.046875 2.816406 4.988281 2.703125 4.875 C 2.585938 4.757812 2.53125 4.617188 2.53125 4.453125 C 2.53125 4.296875 2.585938 4.15625 2.703125 4.03125 C 2.816406 3.914062 2.957031 3.859375 3.125 3.859375 C 3.289062 3.859375 3.429688 3.914062 3.546875 4.03125 C 3.660156 4.15625 3.71875 4.296875 3.71875 4.453125 C 3.71875 4.617188 3.660156 4.757812 3.546875 4.875 C 3.429688 4.988281 3.289062 5.046875 3.125 5.046875 Z M 3.125 5.046875 "/></g></g></g><g fill="#ffffff" fill-opacity="1"><g transform="translate(174.780362, 262.447652)"><g><path d="M 0 0.0625 L 0.125 -0.921875 C 0.457031 -0.921875 0.71875 -0.953125 0.90625 -1.015625 C 1.101562 -1.078125 1.25 -1.191406 1.34375 -1.359375 C 1.445312 -1.535156 1.535156 -1.785156 1.609375 -2.109375 C 1.679688 -2.429688 1.769531 -2.859375 1.875 -3.390625 L 2.796875 -3.21875 C 2.753906 -3 2.703125 -2.75 2.640625 -2.46875 C 2.578125 -2.1875 2.546875 -1.953125 2.546875 -1.765625 C 2.546875 -1.597656 2.582031 -1.453125 2.65625 -1.328125 C 2.726562 -1.203125 2.878906 -1.101562 3.109375 -1.03125 C 3.347656 -0.957031 3.722656 -0.921875 4.234375 -0.921875 C 4.398438 -0.921875 4.519531 -0.875 4.59375 -0.78125 C 4.664062 -0.6875 4.703125 -0.578125 4.703125 -0.453125 C 4.703125 -0.328125 4.644531 -0.207031 4.53125 -0.09375 C 4.425781 0.0078125 4.285156 0.0625 4.109375 0.0625 C 3.472656 0.0625 3.003906 -0.00390625 2.703125 -0.140625 C 2.398438 -0.273438 2.191406 -0.476562 2.078125 -0.75 C 1.835938 -0.414062 1.5625 -0.195312 1.25 -0.09375 C 0.945312 0.0078125 0.53125 0.0625 0 0.0625 Z M 2.234375 -4.625 C 2.066406 -4.625 1.925781 -4.679688 1.8125 -4.796875 C 1.695312 -4.910156 1.640625 -5.050781 1.640625 -5.21875 C 1.640625 -5.375 1.695312 -5.507812 1.8125 -5.625 C 1.925781 -5.75 2.066406 -5.8125 2.234375 -5.8125 C 2.398438 -5.8125 2.539062 -5.75 2.65625 -5.625 C 2.769531 -5.507812 2.828125 -5.375 2.828125 -5.21875 C 2.828125 -5.050781 2.769531 -4.910156 2.65625 -4.796875 C 2.539062 -4.679688 2.398438 -4.625 2.234375 -4.625 Z M 2.234375 -4.625 "/></g></g></g><g fill="#ffffff" fill-opacity="1"><g transform="translate(178.891035, 262.447652)"><g><path d="M 0 0.0625 L 0.125 -0.921875 C 0.539062 -0.921875 0.941406 -0.957031 1.328125 -1.03125 C 1.710938 -1.101562 2.066406 -1.203125 2.390625 -1.328125 C 2.203125 -1.554688 1.988281 -1.785156 1.75 -2.015625 C 1.507812 -2.242188 1.242188 -2.460938 0.953125 -2.671875 C 0.910156 -2.710938 0.863281 -2.785156 0.8125 -2.890625 C 0.769531 -2.992188 0.726562 -3.097656 0.6875 -3.203125 C 0.65625 -3.316406 0.640625 -3.40625 0.640625 -3.46875 C 0.640625 -3.582031 0.71875 -3.722656 0.875 -3.890625 C 1.03125 -4.054688 1.234375 -4.21875 1.484375 -4.375 C 1.742188 -4.53125 2.035156 -4.660156 2.359375 -4.765625 C 2.691406 -4.867188 3.03125 -4.921875 3.375 -4.921875 C 3.832031 -4.921875 4.203125 -4.851562 4.484375 -4.71875 C 4.765625 -4.582031 4.972656 -4.410156 5.109375 -4.203125 C 5.242188 -3.992188 5.3125 -3.765625 5.3125 -3.515625 C 5.3125 -3.128906 5.195312 -2.742188 4.96875 -2.359375 C 4.75 -1.972656 4.441406 -1.617188 4.046875 -1.296875 C 4.390625 -1.171875 4.757812 -1.078125 5.15625 -1.015625 C 5.5625 -0.953125 5.960938 -0.921875 6.359375 -0.921875 C 6.523438 -0.921875 6.644531 -0.875 6.71875 -0.78125 C 6.800781 -0.6875 6.84375 -0.578125 6.84375 -0.453125 C 6.84375 -0.328125 6.785156 -0.207031 6.671875 -0.09375 C 6.554688 0.0078125 6.414062 0.0625 6.25 0.0625 C 5.71875 0.0625 5.171875 0 4.609375 -0.125 C 4.054688 -0.25 3.566406 -0.4375 3.140625 -0.6875 C 2.703125 -0.457031 2.21875 -0.273438 1.6875 -0.140625 C 1.15625 -0.00390625 0.59375 0.0625 0 0.0625 Z M 1.515625 -3.40625 C 1.816406 -3.144531 2.097656 -2.890625 2.359375 -2.640625 C 2.628906 -2.398438 2.929688 -2.109375 3.265625 -1.765625 C 3.609375 -1.984375 3.875 -2.222656 4.0625 -2.484375 C 4.257812 -2.742188 4.359375 -3.003906 4.359375 -3.265625 C 4.359375 -3.421875 4.269531 -3.570312 4.09375 -3.71875 C 3.925781 -3.875 3.628906 -3.953125 3.203125 -3.953125 C 2.929688 -3.953125 2.628906 -3.898438 2.296875 -3.796875 C 1.960938 -3.691406 1.703125 -3.5625 1.515625 -3.40625 Z M 1.515625 -3.40625 "/></g></g></g><g fill="#ffffff" fill-opacity="1"><g transform="translate(185.134946, 262.447652)"><g><path d="M 0 0.0625 L 0.125 -0.921875 C 0.34375 -0.921875 0.523438 -0.96875 0.671875 -1.0625 C 0.828125 -1.15625 0.976562 -1.3125 1.125 -1.53125 C 1.269531 -1.757812 1.425781 -2.0625 1.59375 -2.4375 C 1.820312 -2.957031 2.050781 -3.347656 2.28125 -3.609375 C 2.507812 -3.867188 2.738281 -4.046875 2.96875 -4.140625 C 3.195312 -4.242188 3.421875 -4.296875 3.640625 -4.296875 C 3.910156 -4.296875 4.160156 -4.222656 4.390625 -4.078125 C 4.628906 -3.941406 4.832031 -3.753906 5 -3.515625 C 5.175781 -3.285156 5.316406 -3.03125 5.421875 -2.75 C 5.523438 -2.476562 5.578125 -2.207031 5.578125 -1.9375 C 5.578125 -1.457031 5.488281 -1.078125 5.3125 -0.796875 C 5.144531 -0.515625 4.929688 -0.3125 4.671875 -0.1875 C 4.421875 -0.0625 4.15625 0 3.875 0 C 3.632812 0 3.335938 -0.0351562 2.984375 -0.109375 C 2.628906 -0.191406 2.1875 -0.40625 1.65625 -0.75 C 1.394531 -0.375 1.132812 -0.144531 0.875 -0.0625 C 0.625 0.0195312 0.332031 0.0625 0 0.0625 Z M 2.234375 -1.8125 C 2.191406 -1.707031 2.148438 -1.609375 2.109375 -1.515625 C 2.453125 -1.304688 2.765625 -1.164062 3.046875 -1.09375 C 3.328125 -1.019531 3.566406 -0.984375 3.765625 -0.984375 C 4.109375 -0.984375 4.347656 -1.054688 4.484375 -1.203125 C 4.628906 -1.359375 4.703125 -1.5625 4.703125 -1.8125 C 4.703125 -2.039062 4.644531 -2.269531 4.53125 -2.5 C 4.425781 -2.738281 4.285156 -2.929688 4.109375 -3.078125 C 3.941406 -3.234375 3.765625 -3.3125 3.578125 -3.3125 C 3.429688 -3.3125 3.289062 -3.269531 3.15625 -3.1875 C 3.019531 -3.101562 2.878906 -2.953125 2.734375 -2.734375 C 2.585938 -2.523438 2.421875 -2.21875 2.234375 -1.8125 Z M 2.234375 -1.8125 "/></g></g></g><g fill="#ffffff" fill-opacity="1"><g transform="translate(191.426804, 262.447652)"><g><path d="M 3.484375 0.0625 C 2.835938 0.0625 2.347656 -0.0078125 2.015625 -0.15625 C 1.679688 -0.300781 1.445312 -0.523438 1.3125 -0.828125 C 1.1875 -1.128906 1.117188 -1.519531 1.109375 -2 L 0.859375 -8.5625 L 1.84375 -8.5625 L 2.078125 -2.390625 C 2.097656 -1.992188 2.132812 -1.6875 2.1875 -1.46875 C 2.25 -1.257812 2.382812 -1.113281 2.59375 -1.03125 C 2.8125 -0.957031 3.148438 -0.921875 3.609375 -0.921875 C 3.773438 -0.921875 3.894531 -0.875 3.96875 -0.78125 C 4.050781 -0.6875 4.09375 -0.578125 4.09375 -0.453125 C 4.09375 -0.328125 4.035156 -0.207031 3.921875 -0.09375 C 3.804688 0.0078125 3.660156 0.0625 3.484375 0.0625 Z M 3.484375 0.0625 "/></g></g></g><g fill="#ffffff" fill-opacity="1"><g transform="translate(194.914285, 262.447652)"><g><path d="M 0 0.0625 L 0.125 -0.921875 C 0.5 -0.921875 0.804688 -0.941406 1.046875 -0.984375 C 1.285156 -1.035156 1.457031 -1.132812 1.5625 -1.28125 C 1.664062 -1.4375 1.71875 -1.660156 1.71875 -1.953125 C 1.71875 -2.242188 1.644531 -2.617188 1.5 -3.078125 C 1.363281 -3.546875 1.207031 -4.007812 1.03125 -4.46875 L 2 -4.828125 C 2.101562 -4.566406 2.203125 -4.273438 2.296875 -3.953125 C 2.390625 -3.628906 2.46875 -3.304688 2.53125 -2.984375 C 2.59375 -2.660156 2.625 -2.378906 2.625 -2.140625 C 2.625 -1.335938 2.410156 -0.769531 1.984375 -0.4375 C 1.554688 -0.101562 0.894531 0.0625 0 0.0625 Z M 1.28125 2.28125 C 1.113281 2.28125 0.972656 2.222656 0.859375 2.109375 C 0.742188 1.992188 0.6875 1.859375 0.6875 1.703125 C 0.6875 1.535156 0.742188 1.390625 0.859375 1.265625 C 0.972656 1.148438 1.113281 1.09375 1.28125 1.09375 C 1.445312 1.09375 1.585938 1.148438 1.703125 1.265625 C 1.816406 1.390625 1.875 1.535156 1.875 1.703125 C 1.875 1.859375 1.816406 1.992188 1.703125 2.109375 C 1.585938 2.222656 1.445312 2.28125 1.28125 2.28125 Z M 1.28125 2.28125 "/></g></g></g><g fill="#ffffff" fill-opacity="1"><g transform="translate(171.401939, 278.926278)"><g><path d="M 5.828125 0.0625 C 5.304688 0.0625 4.859375 -0.0234375 4.484375 -0.203125 C 4.117188 -0.378906 3.859375 -0.703125 3.703125 -1.171875 C 3.273438 -1.066406 2.863281 -1.023438 2.46875 -1.046875 C 2.070312 -1.066406 1.710938 -1.140625 1.390625 -1.265625 C 1.066406 -1.398438 0.8125 -1.585938 0.625 -1.828125 C 0.445312 -2.066406 0.359375 -2.347656 0.359375 -2.671875 C 0.359375 -3.097656 0.492188 -3.488281 0.765625 -3.84375 C 1.035156 -4.207031 1.398438 -4.507812 1.859375 -4.75 C 2.328125 -5 2.84375 -5.171875 3.40625 -5.265625 L 3.375 -6.1875 L 4.34375 -6.1875 L 4.53125 -2.234375 C 4.539062 -1.859375 4.601562 -1.578125 4.71875 -1.390625 C 4.84375 -1.203125 5.003906 -1.078125 5.203125 -1.015625 C 5.410156 -0.953125 5.65625 -0.921875 5.9375 -0.921875 C 6.113281 -0.921875 6.238281 -0.875 6.3125 -0.78125 C 6.382812 -0.6875 6.421875 -0.578125 6.421875 -0.453125 C 6.421875 -0.328125 6.363281 -0.207031 6.25 -0.09375 C 6.144531 0.0078125 6.003906 0.0625 5.828125 0.0625 Z M 1.3125 -2.828125 C 1.3125 -2.640625 1.382812 -2.484375 1.53125 -2.359375 C 1.675781 -2.242188 1.863281 -2.160156 2.09375 -2.109375 C 2.320312 -2.054688 2.566406 -2.03125 2.828125 -2.03125 C 3.085938 -2.03125 3.332031 -2.046875 3.5625 -2.078125 L 3.453125 -4.28125 C 2.992188 -4.226562 2.601562 -4.125 2.28125 -3.96875 C 1.96875 -3.8125 1.726562 -3.628906 1.5625 -3.421875 C 1.394531 -3.222656 1.3125 -3.023438 1.3125 -2.828125 Z M 3.75 -7.5625 C 3.582031 -7.5625 3.441406 -7.617188 3.328125 -7.734375 C 3.210938 -7.847656 3.15625 -7.988281 3.15625 -8.15625 C 3.15625 -8.3125 3.210938 -8.445312 3.328125 -8.5625 C 3.441406 -8.6875 3.582031 -8.75 3.75 -8.75 C 3.914062 -8.75 4.054688 -8.6875 4.171875 -8.5625 C 4.285156 -8.445312 4.34375 -8.3125 4.34375 -8.15625 C 4.34375 -7.988281 4.285156 -7.847656 4.171875 -7.734375 C 4.054688 -7.617188 3.914062 -7.5625 3.75 -7.5625 Z M 2.109375 -7.5625 C 1.941406 -7.5625 1.800781 -7.617188 1.6875 -7.734375 C 1.570312 -7.847656 1.515625 -7.988281 1.515625 -8.15625 C 1.515625 -8.3125 1.570312 -8.445312 1.6875 -8.5625 C 1.800781 -8.6875 1.941406 -8.75 2.109375 -8.75 C 2.273438 -8.75 2.414062 -8.6875 2.53125 -8.5625 C 2.644531 -8.445312 2.703125 -8.3125 2.703125 -8.15625 C 2.703125 -7.988281 2.644531 -7.847656 2.53125 -7.734375 C 2.414062 -7.617188 2.273438 -7.5625 2.109375 -7.5625 Z M 2.109375 -7.5625 "/></g></g></g><g fill="#ffffff" fill-opacity="1"><g transform="translate(177.226396, 278.926278)"><g><path d="M 0 0.0625 L 0.125 -0.921875 C 0.34375 -0.921875 0.515625 -0.96875 0.640625 -1.0625 C 0.773438 -1.15625 0.90625 -1.3125 1.03125 -1.53125 C 1.15625 -1.757812 1.316406 -2.0625 1.515625 -2.4375 C 1.765625 -2.957031 2.019531 -3.351562 2.28125 -3.625 C 2.539062 -3.894531 2.785156 -4.082031 3.015625 -4.1875 C 3.253906 -4.289062 3.472656 -4.34375 3.671875 -4.34375 C 3.929688 -4.34375 4.164062 -4.28125 4.375 -4.15625 C 4.582031 -4.039062 4.773438 -3.84375 4.953125 -3.5625 C 5.128906 -3.289062 5.320312 -2.914062 5.53125 -2.4375 C 5.707031 -2 5.867188 -1.671875 6.015625 -1.453125 C 6.171875 -1.234375 6.328125 -1.085938 6.484375 -1.015625 C 6.648438 -0.953125 6.835938 -0.921875 7.046875 -0.921875 C 7.210938 -0.921875 7.332031 -0.875 7.40625 -0.78125 C 7.488281 -0.6875 7.53125 -0.578125 7.53125 -0.453125 C 7.53125 -0.328125 7.472656 -0.207031 7.359375 -0.09375 C 7.242188 0.0078125 7.097656 0.0625 6.921875 0.0625 C 6.609375 0.0625 6.320312 0.015625 6.0625 -0.078125 C 5.8125 -0.179688 5.609375 -0.335938 5.453125 -0.546875 C 5.296875 -0.273438 5.101562 -0.078125 4.875 0.046875 C 4.65625 0.171875 4.410156 0.234375 4.140625 0.234375 C 3.742188 0.234375 3.335938 0.109375 2.921875 -0.140625 C 2.503906 -0.398438 2.15625 -0.738281 1.875 -1.15625 C 1.664062 -0.78125 1.46875 -0.503906 1.28125 -0.328125 C 1.09375 -0.160156 0.894531 -0.0507812 0.6875 0 C 0.488281 0.0390625 0.257812 0.0625 0 0.0625 Z M 2.328125 -2.0625 C 2.597656 -1.601562 2.898438 -1.269531 3.234375 -1.0625 C 3.566406 -0.851562 3.867188 -0.75 4.140625 -0.75 C 4.410156 -0.75 4.613281 -0.847656 4.75 -1.046875 C 4.882812 -1.242188 4.878906 -1.519531 4.734375 -1.875 C 4.640625 -2.113281 4.539062 -2.347656 4.4375 -2.578125 C 4.332031 -2.816406 4.210938 -3.007812 4.078125 -3.15625 C 3.941406 -3.300781 3.78125 -3.375 3.59375 -3.375 C 3.414062 -3.375 3.222656 -3.28125 3.015625 -3.09375 C 2.804688 -2.90625 2.578125 -2.5625 2.328125 -2.0625 Z M 2.328125 -2.0625 "/></g></g></g><g fill="#ffffff" fill-opacity="1"><g transform="translate(184.153424, 278.926278)"><g><path d="M 0 0.0625 L 0.109375 -0.921875 C 0.566406 -0.921875 0.882812 -0.960938 1.0625 -1.046875 C 1.25 -1.140625 1.351562 -1.296875 1.375 -1.515625 C 1.40625 -1.734375 1.414062 -2.046875 1.40625 -2.453125 L 1.203125 -8.5625 L 2.1875 -8.5625 L 2.390625 -2.484375 C 2.390625 -2.078125 2.445312 -1.757812 2.5625 -1.53125 C 2.6875 -1.300781 2.847656 -1.140625 3.046875 -1.046875 C 3.253906 -0.960938 3.476562 -0.921875 3.71875 -0.921875 C 3.882812 -0.921875 4.003906 -0.875 4.078125 -0.78125 C 4.148438 -0.6875 4.1875 -0.578125 4.1875 -0.453125 C 4.1875 -0.328125 4.128906 -0.207031 4.015625 -0.09375 C 3.910156 0.0078125 3.769531 0.0625 3.59375 0.0625 C 3.1875 0.0625 2.863281 -0.015625 2.625 -0.171875 C 2.382812 -0.328125 2.210938 -0.519531 2.109375 -0.75 C 1.953125 -0.476562 1.707031 -0.273438 1.375 -0.140625 C 1.039062 -0.00390625 0.582031 0.0625 0 0.0625 Z M 0 0.0625 "/></g></g></g><g fill="#ffffff" fill-opacity="1"><g transform="translate(187.748763, 278.926278)"><g><path d="M 0 0.0625 L 0.125 -0.921875 L 1.25 -0.921875 C 1.707031 -0.921875 2.078125 -0.945312 2.359375 -1 C 2.640625 -1.050781 2.84375 -1.117188 2.96875 -1.203125 C 3.101562 -1.285156 3.191406 -1.375 3.234375 -1.46875 C 3.285156 -1.570312 3.3125 -1.675781 3.3125 -1.78125 C 3.3125 -1.96875 3.238281 -2.195312 3.09375 -2.46875 C 2.957031 -2.738281 2.671875 -3.085938 2.234375 -3.515625 C 1.941406 -3.828125 1.644531 -4.097656 1.34375 -4.328125 C 1.050781 -4.554688 0.804688 -4.75 0.609375 -4.90625 C 0.421875 -5.070312 0.328125 -5.191406 0.328125 -5.265625 C 0.328125 -5.441406 0.347656 -5.609375 0.390625 -5.765625 C 0.429688 -5.929688 0.5 -6.054688 0.59375 -6.140625 C 0.90625 -6.484375 1.398438 -6.828125 2.078125 -7.171875 C 2.765625 -7.515625 3.625 -7.945312 4.65625 -8.46875 L 5.0625 -7.59375 C 4.332031 -7.238281 3.738281 -6.945312 3.28125 -6.71875 C 2.820312 -6.488281 2.441406 -6.285156 2.140625 -6.109375 C 1.835938 -5.941406 1.5625 -5.769531 1.3125 -5.59375 C 2.238281 -4.832031 2.953125 -4.148438 3.453125 -3.546875 C 3.953125 -2.953125 4.203125 -2.34375 4.203125 -1.71875 C 4.203125 -1.550781 4.171875 -1.363281 4.109375 -1.15625 C 4.046875 -0.945312 3.910156 -0.75 3.703125 -0.5625 C 3.492188 -0.375 3.179688 -0.222656 2.765625 -0.109375 C 2.347656 0.00390625 1.789062 0.0625 1.09375 0.0625 Z M 0 0.0625 "/></g></g></g><path stroke-linecap="round" transform="matrix(0.749028, 0, 0, 0.749028, 180.556325, 161.764269)" fill="none" stroke-linejoin="miter" d="M 95.15754 1.99919 L 95.15754 25.352358 C 95.15754 31.547883 92.696019 37.487869 88.315344 41.868544 C 83.934669 46.249219 77.994683 48.710741 71.804373 48.710741 L 24.852928 48.710741 C 18.792994 48.710741 12.97817 51.114897 8.696582 55.4017 C 4.409779 59.688503 2.000408 65.503327 2.000408 71.56326 L 2.000408 94.420994 " stroke="#acb8c0" stroke-width="4" stroke-opacity="1" stroke-miterlimit="4"/><path stroke-linecap="round" transform="matrix(0.749028, 0, 0, 0.749028, 180.556325, 161.764269)" fill="none" stroke-linejoin="round" d="M 7.997761 87.41713 L 2.000408 95.417076 L -4.002159 87.41713 " stroke="#acb8c0" stroke-width="4" stroke-opacity="1" stroke-miterlimit="4"/><g clip-path="url(#ed8aaa47f7)"><g clip-path="url(#d9c5713899)"><path fill="#5271ff" d="M 137.203125 380.355469 L 226.949219 380.355469 L 226.949219 443.472656 L 137.203125 443.472656 Z M 137.203125 380.355469 " fill-opacity="1" fill-rule="nonzero"/></g></g><g fill="#ffffff" fill-opacity="1"><g transform="translate(166.790732, 418.554561)"><g><path d="M 0.53125 0.015625 C 0.53125 -0.410156 0.585938 -0.882812 0.703125 -1.40625 C 0.828125 -1.9375 1.023438 -2.519531 1.296875 -3.15625 L 2.59375 -2.65625 C 2.394531 -2.15625 2.25 -1.691406 2.15625 -1.265625 C 2.0625 -0.847656 2.015625 -0.460938 2.015625 -0.109375 C 2.015625 0.503906 2.175781 1.019531 2.5 1.4375 C 2.820312 1.851562 3.242188 2.164062 3.765625 2.375 C 4.285156 2.582031 4.84375 2.6875 5.4375 2.6875 C 6.601562 2.6875 7.519531 2.476562 8.1875 2.0625 C 8.851562 1.65625 9.3125 1.113281 9.5625 0.4375 C 9.820312 -0.238281 9.941406 -0.976562 9.921875 -1.78125 L 9.515625 -12.828125 L 11.015625 -12.828125 L 11.296875 -3.71875 C 11.304688 -3.101562 11.398438 -2.625 11.578125 -2.28125 C 11.765625 -1.945312 12.003906 -1.710938 12.296875 -1.578125 C 12.597656 -1.453125 12.929688 -1.390625 13.296875 -1.390625 C 13.546875 -1.390625 13.726562 -1.316406 13.84375 -1.171875 C 13.957031 -1.035156 14.015625 -0.875 14.015625 -0.6875 C 14.015625 -0.488281 13.929688 -0.304688 13.765625 -0.140625 C 13.597656 0.015625 13.378906 0.09375 13.109375 0.09375 C 12.671875 0.09375 12.3125 0.0234375 12.03125 -0.109375 C 11.75 -0.253906 11.523438 -0.425781 11.359375 -0.625 C 11.273438 -0.03125 11.109375 0.546875 10.859375 1.109375 C 10.617188 1.679688 10.265625 2.195312 9.796875 2.65625 C 9.328125 3.125 8.726562 3.492188 8 3.765625 C 7.28125 4.035156 6.398438 4.171875 5.359375 4.171875 C 4.515625 4.171875 3.726562 4.003906 3 3.671875 C 2.269531 3.347656 1.675781 2.875 1.21875 2.25 C 0.757812 1.632812 0.53125 0.890625 0.53125 0.015625 Z M 0.53125 0.015625 "/></g></g></g><g fill="#ffffff" fill-opacity="1"><g transform="translate(179.905199, 418.554561)"><g><path d="M 0 0.09375 L 0.171875 -1.390625 C 0.804688 -1.390625 1.410156 -1.441406 1.984375 -1.546875 C 2.566406 -1.648438 3.101562 -1.800781 3.59375 -2 C 3.300781 -2.332031 2.972656 -2.671875 2.609375 -3.015625 C 2.253906 -3.367188 1.863281 -3.695312 1.4375 -4 C 1.363281 -4.0625 1.289062 -4.171875 1.21875 -4.328125 C 1.144531 -4.484375 1.082031 -4.644531 1.03125 -4.8125 C 0.988281 -4.976562 0.96875 -5.101562 0.96875 -5.1875 C 0.96875 -5.375 1.082031 -5.59375 1.3125 -5.84375 C 1.539062 -6.09375 1.84375 -6.332031 2.21875 -6.5625 C 2.601562 -6.800781 3.039062 -7 3.53125 -7.15625 C 4.03125 -7.3125 4.539062 -7.390625 5.0625 -7.390625 C 5.75 -7.390625 6.300781 -7.285156 6.71875 -7.078125 C 7.144531 -6.878906 7.457031 -6.617188 7.65625 -6.296875 C 7.851562 -5.984375 7.953125 -5.644531 7.953125 -5.28125 C 7.953125 -4.695312 7.785156 -4.113281 7.453125 -3.53125 C 7.117188 -2.945312 6.660156 -2.414062 6.078125 -1.9375 C 6.585938 -1.75 7.140625 -1.609375 7.734375 -1.515625 C 8.335938 -1.429688 8.941406 -1.390625 9.546875 -1.390625 C 9.796875 -1.390625 9.976562 -1.316406 10.09375 -1.171875 C 10.207031 -1.035156 10.265625 -0.875 10.265625 -0.6875 C 10.265625 -0.488281 10.175781 -0.304688 10 -0.140625 C 9.832031 0.015625 9.617188 0.09375 9.359375 0.09375 C 8.566406 0.09375 7.753906 0 6.921875 -0.1875 C 6.085938 -0.375 5.347656 -0.660156 4.703125 -1.046875 C 4.046875 -0.691406 3.316406 -0.410156 2.515625 -0.203125 C 1.722656 -0.00390625 0.882812 0.09375 0 0.09375 Z M 2.265625 -5.109375 C 2.722656 -4.722656 3.148438 -4.347656 3.546875 -3.984375 C 3.953125 -3.617188 4.398438 -3.171875 4.890625 -2.640625 C 5.398438 -2.972656 5.800781 -3.332031 6.09375 -3.71875 C 6.394531 -4.113281 6.546875 -4.503906 6.546875 -4.890625 C 6.546875 -5.128906 6.414062 -5.359375 6.15625 -5.578125 C 5.894531 -5.804688 5.441406 -5.921875 4.796875 -5.921875 C 4.390625 -5.921875 3.9375 -5.84375 3.4375 -5.6875 C 2.9375 -5.539062 2.546875 -5.347656 2.265625 -5.109375 Z M 2.265625 -5.109375 "/></g></g></g><g fill="#ffffff" fill-opacity="1"><g transform="translate(189.26498, 418.554561)"><g><path d="M 0 0.09375 L 0.171875 -1.390625 C 0.566406 -1.390625 1.019531 -1.390625 1.53125 -1.390625 C 2.039062 -1.398438 2.535156 -1.425781 3.015625 -1.46875 C 3.492188 -1.507812 3.875 -1.578125 4.15625 -1.671875 C 4.53125 -1.804688 4.832031 -1.976562 5.0625 -2.1875 C 5.300781 -2.394531 5.484375 -2.664062 5.609375 -3 C 5.390625 -2.925781 5.15625 -2.875 4.90625 -2.84375 C 4.664062 -2.8125 4.425781 -2.796875 4.1875 -2.796875 C 3.257812 -2.796875 2.550781 -3.007812 2.0625 -3.4375 C 1.570312 -3.875 1.328125 -4.421875 1.328125 -5.078125 C 1.328125 -5.535156 1.398438 -5.992188 1.546875 -6.453125 C 1.691406 -6.921875 1.894531 -7.34375 2.15625 -7.71875 C 2.414062 -8.101562 2.734375 -8.410156 3.109375 -8.640625 C 3.484375 -8.878906 3.894531 -9 4.34375 -9 C 4.988281 -9 5.523438 -8.785156 5.953125 -8.359375 C 6.378906 -7.929688 6.695312 -7.382812 6.90625 -6.71875 C 7.113281 -6.050781 7.21875 -5.335938 7.21875 -4.578125 C 7.21875 -3.679688 7.066406 -2.910156 6.765625 -2.265625 C 6.460938 -1.628906 5.957031 -1.101562 5.25 -0.6875 C 4.875 -0.46875 4.40625 -0.300781 3.84375 -0.1875 C 3.289062 -0.0703125 2.6875 0 2.03125 0.03125 C 1.375 0.0703125 0.695312 0.09375 0 0.09375 Z M 2.75 -5.4375 C 2.75 -5.070312 2.867188 -4.773438 3.109375 -4.546875 C 3.347656 -4.328125 3.757812 -4.21875 4.34375 -4.21875 C 4.863281 -4.21875 5.359375 -4.289062 5.828125 -4.4375 C 5.828125 -4.507812 5.828125 -4.59375 5.828125 -4.6875 C 5.828125 -5.175781 5.757812 -5.640625 5.625 -6.078125 C 5.488281 -6.515625 5.300781 -6.863281 5.0625 -7.125 C 4.820312 -7.394531 4.535156 -7.53125 4.203125 -7.53125 C 3.910156 -7.53125 3.65625 -7.425781 3.4375 -7.21875 C 3.226562 -7.007812 3.0625 -6.738281 2.9375 -6.40625 C 2.8125 -6.082031 2.75 -5.757812 2.75 -5.4375 Z M 4 -10.859375 C 3.75 -10.859375 3.535156 -10.941406 3.359375 -11.109375 C 3.191406 -11.285156 3.109375 -11.492188 3.109375 -11.734375 C 3.109375 -11.972656 3.191406 -12.179688 3.359375 -12.359375 C 3.535156 -12.546875 3.75 -12.640625 4 -12.640625 C 4.238281 -12.640625 4.445312 -12.546875 4.625 -12.359375 C 4.800781 -12.179688 4.890625 -11.972656 4.890625 -11.734375 C 4.890625 -11.492188 4.800781 -11.285156 4.625 -11.109375 C 4.445312 -10.941406 4.238281 -10.859375 4 -10.859375 Z M 4 -10.859375 "/></g></g></g><path stroke-linecap="round" transform="matrix(0.749028, 0, 0, 0.749028, 180.556325, 297.85237)" fill="none" stroke-linejoin="miter" d="M 2.000408 2.001517 L 2.000408 107.142923 " stroke="#acb8c0" stroke-width="4" stroke-opacity="1" stroke-miterlimit="4"/><path stroke-linecap="round" transform="matrix(0.749028, 0, 0, 0.749028, 180.556325, 297.85237)" fill="none" stroke-linejoin="round" d="M 7.997761 100.144274 L 2.000408 108.14422 L -4.002159 100.144274 " stroke="#acb8c0" stroke-width="4" stroke-opacity="1" stroke-miterlimit="4"/><g clip-path="url(#546249cb26)"><g clip-path="url(#a941ad1c72)"><path fill="#5271ff" d="M 0 380.355469 L 89.746094 380.355469 L 89.746094 443.472656 L 0 443.472656 Z M 0 380.355469 " fill-opacity="1" fill-rule="nonzero"/></g></g><g fill="#ffffff" fill-opacity="1"><g transform="translate(27.433168, 418.554561)"><g><path d="M 7 0.375 C 4.875 0.375 3.265625 0.0976562 2.171875 -0.453125 C 1.078125 -1.015625 0.53125 -1.953125 0.53125 -3.265625 C 0.53125 -3.710938 0.582031 -4.179688 0.6875 -4.671875 C 0.800781 -5.171875 0.921875 -5.644531 1.046875 -6.09375 L 2.390625 -5.75 C 2.316406 -5.488281 2.234375 -5.148438 2.140625 -4.734375 C 2.054688 -4.328125 2.015625 -3.976562 2.015625 -3.6875 C 2.015625 -3.0625 2.171875 -2.554688 2.484375 -2.171875 C 2.804688 -1.796875 3.363281 -1.519531 4.15625 -1.34375 C 4.945312 -1.175781 6.050781 -1.09375 7.46875 -1.09375 C 8.207031 -1.09375 8.957031 -1.09375 9.71875 -1.09375 C 10.476562 -1.09375 11.191406 -1.101562 11.859375 -1.125 C 12.523438 -1.15625 13.101562 -1.195312 13.59375 -1.25 C 14.082031 -1.3125 14.421875 -1.40625 14.609375 -1.53125 C 15.015625 -1.789062 15.269531 -2.289062 15.375 -3.03125 C 15.132812 -2.945312 14.878906 -2.882812 14.609375 -2.84375 C 14.347656 -2.8125 14.082031 -2.796875 13.8125 -2.796875 C 12.894531 -2.796875 12.1875 -2.984375 11.6875 -3.359375 C 11.195312 -3.734375 10.953125 -4.304688 10.953125 -5.078125 C 10.953125 -5.535156 11.023438 -5.992188 11.171875 -6.453125 C 11.316406 -6.921875 11.519531 -7.34375 11.78125 -7.71875 C 12.050781 -8.101562 12.367188 -8.410156 12.734375 -8.640625 C 13.109375 -8.878906 13.523438 -9 13.984375 -9 C 14.628906 -9 15.160156 -8.785156 15.578125 -8.359375 C 16.003906 -7.929688 16.320312 -7.382812 16.53125 -6.71875 C 16.75 -6.050781 16.859375 -5.335938 16.859375 -4.578125 C 16.859375 -3.679688 16.769531 -2.890625 16.59375 -2.203125 C 16.414062 -1.515625 16.117188 -0.957031 15.703125 -0.53125 C 15.472656 -0.3125 15.070312 -0.140625 14.5 -0.015625 C 13.9375 0.109375 13.253906 0.195312 12.453125 0.25 C 11.648438 0.3125 10.78125 0.347656 9.84375 0.359375 C 8.90625 0.367188 7.957031 0.375 7 0.375 Z M 12.375 -5.4375 C 12.375 -5.070312 12.492188 -4.773438 12.734375 -4.546875 C 12.972656 -4.328125 13.390625 -4.21875 13.984375 -4.21875 C 14.492188 -4.21875 14.984375 -4.289062 15.453125 -4.4375 C 15.453125 -4.507812 15.453125 -4.59375 15.453125 -4.6875 C 15.453125 -5.175781 15.382812 -5.640625 15.25 -6.078125 C 15.125 -6.515625 14.941406 -6.863281 14.703125 -7.125 C 14.460938 -7.394531 14.171875 -7.53125 13.828125 -7.53125 C 13.546875 -7.53125 13.296875 -7.425781 13.078125 -7.21875 C 12.859375 -7.007812 12.6875 -6.738281 12.5625 -6.40625 C 12.4375 -6.082031 12.375 -5.757812 12.375 -5.4375 Z M 13.625 -10.859375 C 13.375 -10.859375 13.160156 -10.941406 12.984375 -11.109375 C 12.816406 -11.285156 12.734375 -11.492188 12.734375 -11.734375 C 12.734375 -11.972656 12.816406 -12.179688 12.984375 -12.359375 C 13.160156 -12.546875 13.375 -12.640625 13.625 -12.640625 C 13.863281 -12.640625 14.070312 -12.546875 14.25 -12.359375 C 14.425781 -12.179688 14.515625 -11.972656 14.515625 -11.734375 C 14.515625 -11.492188 14.425781 -11.285156 14.25 -11.109375 C 14.070312 -10.941406 13.863281 -10.859375 13.625 -10.859375 Z M 13.625 -10.859375 "/></g></g></g><g fill="#ffffff" fill-opacity="1"><g transform="translate(44.553707, 418.554561)"><g><path d="M 0.078125 4.171875 L -0.453125 2.796875 C 0.710938 2.421875 1.617188 1.96875 2.265625 1.4375 C 2.921875 0.90625 3.382812 0.351562 3.65625 -0.21875 C 3.925781 -0.800781 4.0625 -1.367188 4.0625 -1.921875 C 4.0625 -2.503906 3.929688 -3.097656 3.671875 -3.703125 C 3.410156 -4.316406 3.128906 -4.890625 2.828125 -5.421875 L 4.125 -6.09375 C 4.46875 -5.457031 4.753906 -4.84375 4.984375 -4.25 C 5.222656 -3.664062 5.40625 -3.15625 5.53125 -2.71875 C 5.695312 -2.195312 5.914062 -1.84375 6.1875 -1.65625 C 6.457031 -1.476562 6.828125 -1.390625 7.296875 -1.390625 C 7.546875 -1.390625 7.726562 -1.316406 7.84375 -1.171875 C 7.957031 -1.035156 8.015625 -0.875 8.015625 -0.6875 C 8.015625 -0.488281 7.929688 -0.304688 7.765625 -0.140625 C 7.597656 0.015625 7.378906 0.09375 7.109375 0.09375 C 6.660156 0.09375 6.28125 0.0195312 5.96875 -0.125 C 5.664062 -0.269531 5.421875 -0.460938 5.234375 -0.703125 C 5.109375 -0.0234375 4.851562 0.582031 4.46875 1.125 C 4.09375 1.675781 3.644531 2.160156 3.125 2.578125 C 2.613281 2.992188 2.085938 3.332031 1.546875 3.59375 C 1.003906 3.851562 0.515625 4.046875 0.078125 4.171875 Z M 0.078125 4.171875 "/></g></g></g><g fill="#ffffff" fill-opacity="1"><g transform="translate(51.667855, 418.554561)"><g><path d="M 0 0.09375 L 0.15625 -1.390625 C 1.394531 -1.390625 2.59375 -1.570312 3.75 -1.9375 C 4.914062 -2.300781 5.976562 -2.816406 6.9375 -3.484375 C 6.46875 -3.890625 5.894531 -4.21875 5.21875 -4.46875 C 4.539062 -4.71875 3.796875 -4.84375 2.984375 -4.84375 C 2.679688 -4.84375 2.414062 -4.828125 2.1875 -4.796875 C 1.957031 -4.773438 1.679688 -4.726562 1.359375 -4.65625 L 1.078125 -6.015625 C 1.742188 -6.222656 2.378906 -6.328125 2.984375 -6.328125 C 3.609375 -6.328125 4.171875 -6.25 4.671875 -6.09375 C 5.171875 -5.945312 5.628906 -5.765625 6.046875 -5.546875 C 6.460938 -5.335938 6.851562 -5.125 7.21875 -4.90625 C 7.582031 -4.6875 7.9375 -4.5 8.28125 -4.34375 C 8.625 -4.195312 8.984375 -4.125 9.359375 -4.125 L 9.734375 -4.125 L 9.859375 -2.84375 C 9.253906 -2.84375 8.695312 -2.742188 8.1875 -2.546875 C 7.6875 -2.347656 7.179688 -2.097656 6.671875 -1.796875 C 6.160156 -1.503906 5.601562 -1.210938 5 -0.921875 C 4.394531 -0.640625 3.691406 -0.398438 2.890625 -0.203125 C 2.085938 -0.00390625 1.125 0.09375 0 0.09375 Z M 0 0.09375 "/></g></g></g><path stroke-linecap="round" transform="matrix(0.749028, 0, 0, 0.749028, 43.352217, 297.85237)" fill="none" stroke-linejoin="miter" d="M 185.176501 2.001517 L 185.176501 31.070422 C 185.176501 44.327178 174.433418 55.070261 161.176662 55.070261 L 26.001559 55.070261 C 12.744804 55.070261 2.001721 65.818559 2.001721 79.0701 L 2.001721 107.142923 " stroke="#acb8c0" stroke-width="4" stroke-opacity="1" stroke-miterlimit="4"/><path stroke-linecap="round" transform="matrix(0.749028, 0, 0, 0.749028, 43.352217, 297.85237)" fill="none" stroke-linejoin="round" d="M 7.999073 100.144274 L 2.001721 108.14422 L -4.000847 100.144274 " stroke="#acb8c0" stroke-width="4" stroke-opacity="1" stroke-miterlimit="4"/><g clip-path="url(#71e9df3905)"><g clip-path="url(#08e35e63c8)"><path fill="#5271ff" d="M 295.066406 380.355469 L 384.8125 380.355469 L 384.8125 443.472656 L 295.066406 443.472656 Z M 295.066406 380.355469 " fill-opacity="1" fill-rule="nonzero"/></g></g><g fill="#ffffff" fill-opacity="1"><g transform="translate(325.682816, 418.554561)"><g><path d="M 1.390625 7.0625 C 1.128906 6.132812 0.910156 5.226562 0.734375 4.34375 C 0.554688 3.46875 0.414062 2.6875 0.3125 2 C 0.21875 1.3125 0.171875 0.796875 0.171875 0.453125 C 0.171875 -0.429688 0.316406 -1.238281 0.609375 -1.96875 C 0.898438 -2.707031 1.269531 -3.351562 1.71875 -3.90625 C 2.175781 -4.46875 2.664062 -4.941406 3.1875 -5.328125 C 3.71875 -5.710938 4.234375 -6.003906 4.734375 -6.203125 C 5.234375 -6.398438 5.65625 -6.5 6 -6.5 C 6.289062 -6.5 6.550781 -6.429688 6.78125 -6.296875 C 7.019531 -6.171875 7.242188 -5.914062 7.453125 -5.53125 C 7.660156 -5.144531 7.890625 -4.582031 8.140625 -3.84375 C 8.367188 -3.144531 8.582031 -2.625 8.78125 -2.28125 C 8.988281 -1.9375 9.210938 -1.703125 9.453125 -1.578125 C 9.691406 -1.453125 9.96875 -1.390625 10.28125 -1.390625 C 10.53125 -1.390625 10.710938 -1.316406 10.828125 -1.171875 C 10.941406 -1.035156 11 -0.875 11 -0.6875 C 11 -0.488281 10.914062 -0.304688 10.75 -0.140625 C 10.582031 0.015625 10.363281 0.09375 10.09375 0.09375 C 9.675781 0.09375 9.3125 0.0234375 9 -0.109375 C 8.695312 -0.253906 8.425781 -0.445312 8.1875 -0.6875 C 7.96875 -0.332031 7.691406 -0.078125 7.359375 0.078125 C 7.035156 0.242188 6.691406 0.328125 6.328125 0.328125 C 5.878906 0.328125 5.410156 0.21875 4.921875 0 C 4.441406 -0.207031 3.976562 -0.515625 3.53125 -0.921875 C 3.09375 -1.328125 2.710938 -1.816406 2.390625 -2.390625 C 2.085938 -1.929688 1.890625 -1.441406 1.796875 -0.921875 C 1.703125 -0.398438 1.65625 0.0546875 1.65625 0.453125 C 1.65625 0.796875 1.691406 1.222656 1.765625 1.734375 C 1.835938 2.253906 1.925781 2.804688 2.03125 3.390625 C 2.144531 3.984375 2.269531 4.566406 2.40625 5.140625 C 2.550781 5.722656 2.679688 6.25 2.796875 6.71875 Z M 6.46875 -1.15625 C 6.78125 -1.15625 7.015625 -1.25 7.171875 -1.4375 C 7.328125 -1.625 7.34375 -1.90625 7.21875 -2.28125 C 6.945312 -3.15625 6.695312 -3.8125 6.46875 -4.25 C 6.25 -4.6875 6.007812 -4.90625 5.75 -4.90625 C 5.488281 -4.90625 5.117188 -4.785156 4.640625 -4.546875 C 4.171875 -4.316406 3.742188 -3.984375 3.359375 -3.546875 C 3.617188 -3.003906 3.9375 -2.550781 4.3125 -2.1875 C 4.695312 -1.832031 5.078125 -1.570312 5.453125 -1.40625 C 5.828125 -1.238281 6.164062 -1.15625 6.46875 -1.15625 Z M 6.46875 -1.15625 "/></g></g></g><g fill="#ffffff" fill-opacity="1"><g transform="translate(335.779156, 418.554561)"><g><path d="M 0 0.09375 L 0.171875 -1.390625 C 0.554688 -1.390625 0.867188 -1.414062 1.109375 -1.46875 C 1.347656 -1.519531 1.546875 -1.65625 1.703125 -1.875 C 1.867188 -2.09375 2.023438 -2.441406 2.171875 -2.921875 C 2.316406 -3.398438 2.484375 -4.070312 2.671875 -4.9375 L 4.03125 -4.5625 C 3.957031 -4.25 3.867188 -3.882812 3.765625 -3.46875 C 3.671875 -3.050781 3.625 -2.671875 3.625 -2.328125 C 3.625 -2.035156 3.738281 -1.804688 3.96875 -1.640625 C 4.195312 -1.472656 4.609375 -1.390625 5.203125 -1.390625 C 5.566406 -1.390625 5.863281 -1.414062 6.09375 -1.46875 C 6.320312 -1.53125 6.507812 -1.675781 6.65625 -1.90625 C 6.800781 -2.132812 6.929688 -2.492188 7.046875 -2.984375 C 7.171875 -3.484375 7.300781 -4.175781 7.4375 -5.0625 L 8.796875 -4.8125 C 8.765625 -4.59375 8.722656 -4.328125 8.671875 -4.015625 C 8.617188 -3.710938 8.570312 -3.40625 8.53125 -3.09375 C 8.5 -2.789062 8.484375 -2.535156 8.484375 -2.328125 C 8.484375 -2.160156 8.519531 -2.003906 8.59375 -1.859375 C 8.675781 -1.710938 8.832031 -1.597656 9.0625 -1.515625 C 9.300781 -1.429688 9.648438 -1.390625 10.109375 -1.390625 C 10.628906 -1.390625 11.046875 -1.488281 11.359375 -1.6875 C 11.671875 -1.894531 11.828125 -2.304688 11.828125 -2.921875 C 11.828125 -3.367188 11.71875 -3.9375 11.5 -4.625 C 11.289062 -5.320312 11.054688 -6.015625 10.796875 -6.703125 L 12.25 -7.234375 C 12.394531 -6.835938 12.539062 -6.394531 12.6875 -5.90625 C 12.832031 -5.425781 12.953125 -4.945312 13.046875 -4.46875 C 13.140625 -3.988281 13.1875 -3.570312 13.1875 -3.21875 C 13.1875 -2.101562 12.910156 -1.269531 12.359375 -0.71875 C 11.804688 -0.175781 11.050781 0.09375 10.09375 0.09375 C 9.4375 0.09375 8.921875 0.00390625 8.546875 -0.171875 C 8.171875 -0.347656 7.894531 -0.617188 7.71875 -0.984375 C 7.4375 -0.546875 7.09375 -0.253906 6.6875 -0.109375 C 6.289062 0.0234375 5.726562 0.09375 5 0.09375 C 4.75 0.09375 4.476562 0.0625 4.1875 0 C 3.90625 -0.0625 3.644531 -0.175781 3.40625 -0.34375 C 3.164062 -0.519531 2.984375 -0.78125 2.859375 -1.125 C 2.546875 -0.601562 2.15625 -0.269531 1.6875 -0.125 C 1.226562 0.0195312 0.664062 0.09375 0 0.09375 Z M 0 0.09375 "/></g></g></g><g fill="#ffffff" fill-opacity="1"><g transform="translate(349.863739, 418.554561)"><g><path d="M 1.65625 0 L 1.296875 -12.828125 L 2.75 -12.828125 L 3.109375 0 Z M 1.171875 5.4375 L 0.953125 4.46875 C 1.128906 4.4375 1.285156 4.398438 1.421875 4.359375 C 1.554688 4.328125 1.679688 4.300781 1.796875 4.28125 C 1.566406 4.125 1.367188 3.914062 1.203125 3.65625 C 1.035156 3.40625 0.953125 3.132812 0.953125 2.84375 C 0.953125 2.300781 1.140625 1.890625 1.515625 1.609375 C 1.890625 1.335938 2.316406 1.203125 2.796875 1.203125 C 3.078125 1.203125 3.363281 1.25 3.65625 1.34375 L 3.5 2.25 C 3.382812 2.21875 3.269531 2.191406 3.15625 2.171875 C 3.039062 2.148438 2.921875 2.140625 2.796875 2.140625 C 2.210938 2.140625 1.921875 2.351562 1.921875 2.78125 C 1.921875 3.09375 2.035156 3.347656 2.265625 3.546875 C 2.503906 3.753906 2.738281 3.890625 2.96875 3.953125 C 3.425781 3.816406 3.828125 3.6875 4.171875 3.5625 L 4.453125 4.46875 C 4.171875 4.582031 3.832031 4.695312 3.4375 4.8125 C 3.050781 4.9375 2.65625 5.050781 2.25 5.15625 C 1.851562 5.269531 1.492188 5.363281 1.171875 5.4375 Z M 1.171875 5.4375 "/></g></g></g><path stroke-linecap="round" transform="matrix(0.749028, 0, 0, 0.749028, 180.556325, 297.85237)" fill="none" stroke-linejoin="miter" d="M 2.000408 2.001517 L 2.000408 31.070422 C 2.000408 44.327178 12.743491 55.070261 26.000247 55.070261 L 188.757955 55.070261 C 202.009496 55.070261 212.757794 65.818559 212.757794 79.0701 L 212.757794 107.142923 " stroke="#acb8c0" stroke-width="4" stroke-opacity="1" stroke-miterlimit="4"/><path stroke-linecap="round" transform="matrix(0.749028, 0, 0, 0.749028, 180.556325, 297.85237)" fill="none" stroke-linejoin="round" d="M 218.755146 100.144274 L 212.757794 108.14422 L 206.755227 100.144274 " stroke="#acb8c0" stroke-width="4" stroke-opacity="1" stroke-miterlimit="4"/></svg>